<?xml version="1.0" encoding="UTF-8" standalone="no"?>
<svg
   viewBox="0 0 150 150"
   version="1.1"
   stroke-linecap="round"
   stroke-linejoin="round"
   fill-rule="evenodd"
   xml:space="preserve"
   id="svg89"
   sodipodi:docname="lookup.svg"
   inkscape:version="1.4.2 (f4327f4, 2025-05-13)"
   xmlns:inkscape="http://www.inkscape.org/namespaces/inkscape"
   xmlns:sodipodi="http://sodipodi.sourceforge.net/DTD/sodipodi-0.dtd"
   xmlns="http://www.w3.org/2000/svg"
   xmlns:svg="http://www.w3.org/2000/svg"><sodipodi:namedview
   id="namedview89"
   pagecolor="#ffffff"
   bordercolor="#000000"
   borderopacity="0.25"
   inkscape:showpageshadow="2"
   inkscape:pageopacity="0.0"
   inkscape:pagecheckerboard="0"
   inkscape:deskcolor="#d1d1d1"
   inkscape:zoom="5.6568542"
   inkscape:cx="9.1039998"
   inkscape:cy="8.9272231"
   inkscape:window-width="1680"
   inkscape:window-height="979"
   inkscape:window-x="-8"
   inkscape:window-y="-8"
   inkscape:window-maximized="1"
   inkscape:current-layer="svg89" />
<defs
   id="defs1">
<clipPath
   id="clipId0">
<path
   d="M0,150 150,150 150,0 0,0 z"
   id="path1" />
</clipPath>
<clipPath
   id="clipId0-8">
<path
   d="M 0,8666 H 8666 V 0 H 0 Z"
   id="path1-8" />
</clipPath><clipPath
   id="clipPath2">
<path
   d="M 0,8666 H 8666 V 0 H 0 Z"
   id="path2-2" />
</clipPath><clipPath
   id="clipPath3">
<path
   d="M 0,8666 H 8666 V 0 H 0 Z"
   id="path3-4" />
</clipPath><clipPath
   id="clipPath4">
<path
   d="M 0,8666 H 8666 V 0 H 0 Z"
   id="path4-5" />
</clipPath><clipPath
   id="clipPath5">
<path
   d="M 0,8666 H 8666 V 0 H 0 Z"
   id="path5-5" />
</clipPath><clipPath
   id="clipId0-5">
<path
   d="M 0,8666 H 8666 V 0 H 0 Z"
   id="path1-4" />
</clipPath><clipPath
   id="clipPath2-3">
<path
   d="M 0,8666 H 8666 V 0 H 0 Z"
   id="path2-1" />
</clipPath><clipPath
   id="clipPath3-2">
<path
   d="M 0,8666 H 8666 V 0 H 0 Z"
   id="path3-3" />
</clipPath><clipPath
   id="clipPath4-3">
<path
   d="M 0,8666 H 8666 V 0 H 0 Z"
   id="path4-4" />
</clipPath></defs>




<g
   id="find_005"
   transform="translate(-4333.1,-3913.78)"
   style="display:inline"><g
     clip-path="url(#clipId0-5)"
     fill="#ffffff"
     stroke="#ffffff"
     stroke-width="0.75"
     id="g6172">
<polygon
   points="4364.6,3915.28 4334.6,3915.28 4334.6,3945.28 4364.6,3945.28 "
   id="polygon6171" />
</g><g
     clip-path="url(#clipId0-5)"
     fill="none"
     stroke="#260000"
     stroke-width="0.75"
     id="g6175">
<polyline
   points="4364.6,3915.28 4334.6,3915.28 "
   id="polyline6172" />
<polyline
   points="4334.6,3915.28 4334.6,3945.28 "
   id="polyline6173" />
<polyline
   points="4334.6,3945.28 4364.6,3945.28 "
   id="polyline6174" />
<polyline
   points="4364.6,3945.28 4364.6,3915.28 "
   id="polyline6175" />
</g><g
     clip-path="url(#clipId0-5)"
     fill="#00261c"
     stroke="#00261c"
     stroke-width="3"
     id="g6218">
<path
   d="m 4334.6,3945.28 v -30 l 2.11,30 z"
   id="path6175" />
<path
   d="m 4336.71,3931.83 -2.11,-16.55 h 2.11 z"
   id="path6176" />
<path
   d="m 4336.71,3945.28 v -1.55 l 3.51,1.55 z"
   id="path6177" />
<path
   d="m 4340.22,3945.28 -3.51,-1.55 3.51,-2.83 z"
   id="path6178" />
<path
   d="m 4336.71,3931.83 v -16.55 l 3.51,19.37 z"
   id="path6179" />
<path
   d="m 4340.22,3934.65 -3.51,-19.37 h 3.51 z"
   id="path6180" />
<path
   d="m 4340.22,3945.28 v -4.38 l 3.68,4.38 z"
   id="path6181" />
<path
   d="m 4343.9,3945.28 -3.68,-4.38 h 3.68 z"
   id="path6182" />
<path
   d="m 4340.22,3934.65 v -19.37 l 3.68,19.37 z"
   id="path6183" />
<path
   d="m 4343.9,3934.65 -3.68,-19.37 h 3.68 z"
   id="path6184" />
<path
   d="m 4343.9,3934.65 v -19.37 l 2.19,30 z"
   id="path6185" />
<path
   d="m 4346.09,3924.33 -2.19,-9.05 h 2.19 z"
   id="path6186" />
<path
   d="m 4346.09,3945.28 v -9.05 l 3.51,9.05 z"
   id="path6187" />
<path
   d="m 4349.6,3945.28 -3.51,-9.05 3.51,-2.83 z"
   id="path6188" />
<path
   d="m 4346.09,3924.33 v -9.05 l 3.51,11.87 z"
   id="path6189" />
<path
   d="m 4349.6,3927.15 -3.51,-11.87 h 3.51 z"
   id="path6190" />
<path
   d="m 4349.6,3945.28 v -11.88 l 3.67,11.88 z"
   id="path6191" />
<path
   d="m 4353.27,3945.28 -3.67,-11.88 h 3.67 z"
   id="path6192" />
<path
   d="m 4349.6,3927.15 v -11.87 l 3.67,11.87 z"
   id="path6193" />
<path
   d="m 4353.27,3927.15 -3.67,-11.87 h 3.67 z"
   id="path6194" />
<path
   d="m 4353.27,3927.15 v -11.87 l 2.19,30 z"
   id="path6195" />
<path
   d="m 4355.46,3916.83 -2.19,-1.55 h 2.19 z"
   id="path6196" />
<path
   d="m 4355.46,3945.28 v -16.55 l 3.51,16.55 z"
   id="path6197" />
<path
   d="m 4358.97,3945.28 -3.51,-16.55 3.51,-2.83 z"
   id="path6198" />
<path
   d="m 4355.46,3916.83 v -1.55 l 3.51,4.37 z"
   id="path6199" />
<path
   d="m 4358.97,3919.65 -3.51,-4.37 h 3.51 z"
   id="path6200" />
<path
   d="m 4358.97,3945.28 v -19.38 l 3.68,19.38 z"
   id="path6201" />
<path
   d="m 4362.65,3945.28 -3.68,-19.38 h 3.68 z"
   id="path6202" />
<path
   d="m 4358.97,3919.65 v -4.37 l 3.68,4.37 z"
   id="path6203" />
<path
   d="m 4362.65,3919.65 -3.68,-4.37 h 3.68 z"
   id="path6204" />
<path
   d="m 4362.65,3919.65 v -4.37 l 1.95,30 z"
   id="path6205" />
<path
   d="m 4364.6,3945.28 -1.95,-30 h 1.95 z"
   id="path6206" />
<path
   d="m 4336.71,3945.28 -2.11,-30 2.11,28.45 z"
   id="path6207" />
<path
   d="m 4336.71,3943.73 -2.11,-28.45 2.11,16.55 z"
   id="path6208" />
<path
   d="m 4343.9,3945.28 v -4.38 l 2.19,4.38 z"
   id="path6209" />
<path
   d="m 4343.9,3940.9 v -6.25 l 2.19,10.63 z"
   id="path6210" />
<path
   d="m 4346.09,3945.28 -2.19,-30 2.19,20.95 z"
   id="path6211" />
<path
   d="m 4346.09,3936.23 -2.19,-20.95 2.19,9.05 z"
   id="path6212" />
<path
   d="m 4353.27,3945.28 v -11.88 l 2.19,11.88 z"
   id="path6213" />
<path
   d="m 4353.27,3933.4 v -6.25 l 2.19,18.13 z"
   id="path6214" />
<path
   d="m 4355.46,3945.28 -2.19,-30 2.19,13.45 z"
   id="path6215" />
<path
   d="m 4355.46,3928.73 -2.19,-13.45 2.19,1.55 z"
   id="path6216" />
<path
   d="m 4362.65,3945.28 v -19.38 l 1.95,19.38 z"
   id="path6217" />
<path
   d="m 4362.65,3925.9 v -6.25 l 1.95,25.63 z"
   id="path6218" />
</g><g
     clip-path="url(#clipId0-5)"
     fill="none"
     stroke="#7fffff"
     stroke-width="0.75"
     id="g6221">
<polyline
   points="4364.6,3945.28 4334.6,3945.28 4334.6,3915.28 4364.6,3915.28 4364.6,3945.28 "
   id="polyline6218" />
<polyline
   points="4353.27,3927.15 4353.27,3933.4 4349.6,3933.4 4346.09,3936.23 4346.09,3924.33 4349.6,3927.15 4353.27,3927.15 "
   id="polyline6219" />
<polyline
   points="4362.65,3919.65 4362.65,3925.9 4358.97,3925.9 4355.46,3928.73 4355.46,3916.83 4358.97,3919.65 4362.65,3919.65 "
   id="polyline6220" />
<polyline
   points="4343.9,3934.65 4343.9,3940.9 4340.22,3940.9 4336.71,3943.73 4336.71,3931.83 4340.22,3934.65 4343.9,3934.65 "
   id="polyline6221" />
</g></g><g
   id="find_004"
   transform="translate(-30.0457,-46.8916)"
   style="display:inline"><g
     clip-path="url(#clipId0)"
     fill="#ffffff"
     stroke="#ffffff"
     stroke-width="0.75"
     id="g2">
<polygon
   points="37.9035,54.7495 31.5457,54.7495 31.5457,48.3916 37.9035,48.3916 "
   id="polygon1" />
</g><g
     clip-path="url(#clipId0)"
     fill="none"
     stroke="#260000"
     stroke-width="0.75"
     id="g5">
<polyline
   points="31.5457,48.3916 37.9035,48.3916 "
   id="polyline2" />
<polyline
   points="37.9035,48.3916 37.9035,54.7495 "
   id="polyline3" />
<polyline
   points="37.9035,54.7495 31.5457,54.7495 "
   id="polyline4" />
<polyline
   points="31.5457,54.7495 31.5457,48.3916 "
   id="polyline5" />
</g><g
     clip-path="url(#clipId0)"
     fill="#00261c"
     stroke="#00261c"
     stroke-width="3"
     id="g48">
<path
   d="m 31.5457,54.7495 v -6.3579 l 0.4134,6.3579 z"
   id="path5" />
<path
   d="m 31.9591,49.3188 -0.4134,-0.9272 h 0.4134 z"
   id="path6" />
<path
   d="m 31.9591,54.7495 v -4.1061 l 0.7787,4.1061 z"
   id="path7" />
<path
   d="m 32.7378,54.7495 -0.7787,-4.1061 h 0.7787 z"
   id="path8" />
<path
   d="m 31.9591,49.3188 v -0.9272 l 0.7787,0.9272 z"
   id="path9" />
<path
   d="m 32.7378,49.3188 -0.7787,-0.9272 h 0.7787 z"
   id="path10" />
<path
   d="m 32.7378,54.7495 v -4.1061 l 0.7442,4.1061 z"
   id="path11" />
<path
   d="m 33.482,54.7495 -0.7442,-4.1061 0.7442,0.5983 z"
   id="path12" />
<path
   d="m 32.7378,49.3188 v -0.9272 l 0.7442,0.3289 z"
   id="path13" />
<path
   d="M 33.482,48.7205 32.7378,48.3916 H 33.482 Z"
   id="path14" />
<path
   d="m 33.482,48.7205 v -0.3289 l 0.464,6.3579 z"
   id="path15" />
<path
   d="m 33.946,50.9083 -0.464,-2.5167 h 0.464 z"
   id="path16" />
<path
   d="m 33.946,54.7495 v -2.5167 l 0.7786,2.5167 z"
   id="path17" />
<path
   d="M 34.7246,54.7495 33.946,52.2328 h 0.7786 z"
   id="path18" />
<path
   d="m 33.946,50.9083 v -2.5167 l 0.7786,2.5167 z"
   id="path19" />
<path
   d="M 34.7246,50.9083 33.946,48.3916 h 0.7786 z"
   id="path20" />
<path
   d="m 34.7246,54.7495 v -2.5167 l 0.7442,2.5167 z"
   id="path21" />
<path
   d="m 35.4688,54.7495 -0.7442,-2.5167 0.7442,0.5984 z"
   id="path22" />
<path
   d="m 34.7246,50.9083 v -2.5167 l 0.7442,1.9183 z"
   id="path23" />
<path
   d="m 35.4688,50.3099 -0.7442,-1.9183 h 0.7442 z"
   id="path24" />
<path
   d="m 35.4688,50.3099 v -1.9183 l 0.464,6.3579 z"
   id="path25" />
<path
   d="m 35.9328,52.4978 -0.464,-4.1062 h 0.464 z"
   id="path26" />
<path
   d="m 35.9328,54.7495 v -0.9272 l 0.7786,0.9272 z"
   id="path27" />
<path
   d="m 36.7114,54.7495 -0.7786,-0.9272 h 0.7786 z"
   id="path28" />
<path
   d="m 35.9328,52.4978 v -4.1062 l 0.7786,4.1062 z"
   id="path29" />
<path
   d="m 36.7114,52.4978 -0.7786,-4.1062 h 0.7786 z"
   id="path30" />
<path
   d="m 36.7114,54.7495 v -0.9272 l 0.7443,0.9272 z"
   id="path31" />
<path
   d="m 37.4557,54.7495 -0.7443,-0.9272 0.7443,0.5984 z"
   id="path32" />
<path
   d="m 36.7114,52.4978 v -4.1062 l 0.7443,3.5078 z"
   id="path33" />
<path
   d="m 37.4557,51.8994 -0.7443,-3.5078 h 0.7443 z"
   id="path34" />
<path
   d="m 37.4557,51.8994 v -3.5078 l 0.4478,6.3579 z"
   id="path35" />
<path
   d="m 37.9035,54.7495 -0.4478,-6.3579 h 0.4478 z"
   id="path36" />
<path
   d="m 31.9591,54.7495 -0.4134,-6.3579 0.4134,2.2518 z"
   id="path37" />
<path
   d="m 31.9591,50.6434 -0.4134,-2.2518 0.4134,0.9272 z"
   id="path38" />
<path
   d="m 33.482,54.7495 v -3.5078 l 0.464,3.5078 z"
   id="path39" />
<path
   d="m 33.482,51.2417 v -2.5212 l 0.464,6.029 z"
   id="path40" />
<path
   d="m 33.946,54.7495 -0.464,-6.3579 0.464,3.8412 z"
   id="path41" />
<path
   d="m 33.946,52.2328 -0.464,-3.8412 0.464,2.5167 z"
   id="path42" />
<path
   d="m 35.4688,54.7495 v -1.9183 l 0.464,1.9183 z"
   id="path43" />
<path
   d="m 35.4688,52.8312 v -2.5213 l 0.464,4.4396 z"
   id="path44" />
<path
   d="m 35.9328,54.7495 -0.464,-6.3579 0.464,5.4307 z"
   id="path45" />
<path
   d="m 35.9328,53.8223 -0.464,-5.4307 0.464,4.1062 z"
   id="path46" />
<path
   d="m 37.4557,54.7495 v -0.3288 l 0.4478,0.3288 z"
   id="path47" />
<path
   d="m 37.4557,54.4207 v -2.5213 l 0.4478,2.8501 z"
   id="path48" />
</g><g
     clip-path="url(#clipId0)"
     fill="none"
     stroke="#7fffff"
     stroke-width="0.75"
     id="g51">
<polyline
   points="31.5457,54.7495 37.9035,54.7495 37.9035,48.3916 31.5457,48.3916 31.5457,54.7495 "
   id="polyline48" />
<polyline
   points="33.946,50.9083 33.946,52.2328 34.7246,52.2328 35.4688,52.8312 35.4688,50.3099 34.7246,50.9083 33.946,50.9083 "
   id="polyline49" />
<polyline
   points="31.9591,49.3188 31.9591,50.6434 32.7378,50.6434 33.482,51.2417 33.482,48.7205 32.7378,49.3188 31.9591,49.3188 "
   id="polyline50" />
<polyline
   points="35.9328,52.4978 35.9328,53.8223 36.7114,53.8223 37.4557,54.4207 37.4557,51.8994 36.7114,52.4978 35.9328,52.4978 "
   id="polyline51" />
</g></g>





<g
   id="find_003"
   transform="translate(-33.179492,-77.6145)"
   style="display:inline"><g
     clip-path="url(#clipId0)"
     fill="#ffffff"
     stroke="#ffffff"
     stroke-width="0.75"
     id="g52">
<polygon
   points="44.487,79.1145 44.487,85.4724 38.1292,85.4724 38.1292,79.1145 "
   id="polygon51" />
</g><g
     clip-path="url(#clipId0)"
     fill="none"
     stroke="#260000"
     stroke-width="0.75"
     id="g55">
<polyline
   points="38.1292,85.4724 38.1292,79.1145 "
   id="polyline52" />
<polyline
   points="38.1292,79.1145 44.487,79.1145 "
   id="polyline53" />
<polyline
   points="44.487,79.1145 44.487,85.4724 "
   id="polyline54" />
<polyline
   points="44.487,85.4724 38.1292,85.4724 "
   id="polyline55" />
</g><g
     clip-path="url(#clipId0)"
     fill="#00261c"
     stroke="#00261c"
     stroke-width="3"
     id="g56">
<path
   d="m 38.1292,85.4724 v -6.3579 l 6.3578,6.3579 z"
   id="path55" />
<path
   d="M 44.487,85.4724 38.1292,79.1145 H 44.487 Z"
   id="path56" />
</g><g
     clip-path="url(#clipId0)"
     fill="none"
     stroke="#7fffff"
     stroke-width="0.75"
     id="g57">
<polyline
   points="38.1292,85.4724 44.487,85.4724 44.487,79.1145 38.1292,79.1145 38.1292,85.4724 "
   id="polyline56" />
</g><g
     clip-path="url(#clipId0)"
     fill="#7fffff"
     stroke="#7fffff"
     stroke-width="0.05"
     id="g58">
<text
   transform="matrix(1.80223,0,0,2.00248,39.4198,83.2947)"
   font-family="Arial, sans-serif"
   font-size="1.397px"
   id="text57">MP</text>
</g><g
     clip-path="url(#clipId0)"
     fill="#ff0000"
     stroke="#ff0000"
     stroke-width="0.05"
     id="g59">
<text
   transform="matrix(1.20149,0,0,1.50186,33.0885,85.5576)"
   font-family="Arial, sans-serif"
   font-size="1.397px"
   id="text58">MP3</text>
</g></g>




<g
   id="find_002"
   transform="translate(-61.6722,-78.0018)"
   style="display:inline"><g
     clip-path="url(#clipId0)"
     fill="#ffffff"
     stroke="#ffffff"
     stroke-width="0.75"
     id="g60">
<polygon
   points="63.1722,85.8597 63.1722,79.5018 69.5301,79.5018 69.5301,85.8597 "
   id="polygon59" />
</g><g
     clip-path="url(#clipId0)"
     fill="none"
     stroke="#260000"
     stroke-width="0.75"
     id="g63">
<polyline
   points="63.1722,85.8597 63.1722,79.5018 "
   id="polyline60" />
<polyline
   points="63.1722,79.5018 69.5301,79.5018 "
   id="polyline61" />
<polyline
   points="69.5301,79.5018 69.5301,85.8597 "
   id="polyline62" />
<polyline
   points="69.5301,85.8597 63.1722,85.8597 "
   id="polyline63" />
</g><g
     clip-path="url(#clipId0)"
     fill="#00261c"
     stroke="#00261c"
     stroke-width="3"
     id="g64">
<path
   d="m 63.1722,85.8597 v -6.3579 l 6.3579,6.3579 z"
   id="path63" />
<path
   d="m 69.5301,85.8597 -6.3579,-6.3579 h 6.3579 z"
   id="path64" />
</g><g
     clip-path="url(#clipId0)"
     fill="none"
     stroke="#7fffff"
     stroke-width="0.75"
     id="g65">
<polyline
   points="63.1722,85.8597 69.5301,85.8597 69.5301,79.5018 63.1722,79.5018 63.1722,85.8597 "
   id="polyline64" />
</g><g
     clip-path="url(#clipId0)"
     fill="#7fffff"
     stroke="#7fffff"
     stroke-width="0.05"
     id="g66">
<text
   transform="matrix(1.80223,0,0,2.00248,64.1131,83.682)"
   font-family="Arial, sans-serif"
   font-size="1.397px"
   id="text65">MIX</text>
</g></g>



<g
   id="find_001"
   transform="translate(-60.1231,-46.3753)"
   style="display:inline"><g
     clip-path="url(#clipId0)"
     fill="#ffffff"
     stroke="#ffffff"
     stroke-width="0.75"
     id="g67">
<polygon
   points="61.6231,47.8753 67.981,47.8753 67.981,54.2332 61.6231,54.2332 "
   id="polygon66" />
</g><g
     clip-path="url(#clipId0)"
     fill="none"
     stroke="#260000"
     stroke-width="0.75"
     id="g70">
<polyline
   points="61.6231,47.8753 67.981,47.8753 "
   id="polyline67" />
<polyline
   points="67.981,47.8753 67.981,54.2332 "
   id="polyline68" />
<polyline
   points="67.981,54.2332 61.6231,54.2332 "
   id="polyline69" />
<polyline
   points="61.6231,54.2332 61.6231,47.8753 "
   id="polyline70" />
</g><g
     clip-path="url(#clipId0)"
     fill="#130026"
     stroke="#130026"
     stroke-width="3"
     id="g87">
<path
   d="m 61.6231,54.2332 v -6.3579 l 0.9537,6.3579 z"
   id="path70" />
<path
   d="m 62.5768,49.7826 -0.9537,-1.9073 h 0.9537 z"
   id="path71" />
<path
   d="M 62.5768,54.2332 V 52.3258 L 65.12,54.2332 Z"
   id="path72" />
<path
   d="M 65.12,54.2332 62.5768,52.3258 H 65.12 Z"
   id="path73" />
<path
   d="M 62.5768,49.7826 V 47.8753 L 65.12,49.7826 Z"
   id="path74" />
<path
   d="M 65.12,49.7826 62.5768,47.8753 H 65.12 Z"
   id="path75" />
<path
   d="m 65.12,52.3258 v -1.2716 l 1.9073,3.179 z"
   id="path76" />
<path
   d="m 67.0273,54.2332 -1.9073,-3.179 1.9073,1.2716 z"
   id="path77" />
<path
   d="m 65.12,49.7826 v -1.9073 l 1.9073,1.9073 z"
   id="path78" />
<path
   d="M 67.0273,49.7826 65.12,47.8753 h 1.9073 z"
   id="path79" />
<path
   d="m 67.0273,49.7826 v -1.9073 l 0.9537,6.3579 z"
   id="path80" />
<path
   d="M 67.981,54.2332 67.0273,47.8753 H 67.981 Z"
   id="path81" />
<path
   d="m 62.5768,54.2332 -0.9537,-6.3579 0.9537,4.4505 z"
   id="path82" />
<path
   d="m 62.5768,52.3258 -0.9537,-4.4505 0.9537,1.9073 z"
   id="path83" />
<path
   d="m 65.12,54.2332 v -1.9074 l 1.9073,1.9074 z"
   id="path84" />
<path
   d="m 65.12,51.0542 v -1.2716 h 1.9073 z"
   id="path85" />
<path
   d="m 67.0273,54.2332 v -1.9074 l 0.9537,1.9074 z"
   id="path86" />
<path
   d="m 67.0273,52.3258 v -2.5432 l 0.9537,4.4506 z"
   id="path87" />
</g><g
     clip-path="url(#clipId0)"
     fill="none"
     stroke="#df7fff"
     stroke-width="0.75"
     id="g89">
<polyline
   points="62.5768,52.3258 65.12,52.3258 65.12,49.7826 62.5768,49.7826 62.5768,52.3258 "
   id="polyline87" />
<polyline
   points="65.12,51.0542 67.0273,49.7826 67.0273,52.3258 65.12,51.0542 "
   id="polyline88" />
<polyline
   points="61.6231,54.2332 67.981,54.2332 67.981,47.8753 61.6231,47.8753 61.6231,54.2332 "
   id="polyline89" />
</g></g>
<g
   id="replace_005"
   style="clip-rule:evenodd;display:inline;fill-rule:evenodd;stroke-linecap:round;stroke-linejoin:round;stroke-miterlimit:10"
   transform="translate(-2196.7708,-803.55816)"><g
     id="g52-8-4-2-0-7-8"
     transform="matrix(0.03156348,0.03156348,0.03156348,-0.03156348,2197.72,723.75334)">
            <g
   id="g34-0-4-7-8-9-1-6"
   transform="rotate(180,2054.645,-1107.845)">
                <circle
   id="path29-1-4-7-0-0-4-8"
   cx="1710.67"
   cy="-1031.6899"
   r="28.361"
   style="fill:#eff3ed" />
                <g
   id="path29-8-2-7-5-8-0-0-7"
   transform="rotate(90)">
                    <circle
   cx="-1461.84"
   cy="-2169.7"
   r="28.361"
   style="fill:#eff3ed"
   id="circle7395" />
                </g>
                <g
   id="path29-5-2-1-2-6-6-6-8"
   transform="scale(-1)">
                    <circle
   cx="-2612.9099"
   cy="1032.75"
   r="28.361"
   style="fill:#eff3ed"
   id="circle7396" />
                </g>
                <g
   id="path29-82-1-4-9-7-7-1-1-0"
   transform="rotate(-90)">
                    <circle
   cx="606.59198"
   cy="2166.4099"
   r="28.361"
   style="fill:#eff3ed"
   id="circle7397" />
                </g>
                <rect
   id="rect29-1-6-1-4-3-2-9"
   x="1679.9"
   y="-1045.87"
   width="429.61301"
   height="28.361"
   style="fill:#373739" />
                <path
   id="rect32-4-3-7-7-8-1-5"
   d="m 1900.98,-1050.4 v 39.45 l -0.16,0.16 21.82,21.261 4.76,-4.89 -17.23,-16.791 v -39.19 z"
   style="fill:#d2cdc1" />
                <rect
   id="rect31-88-5-5-1-9-4-6"
   x="1886.28"
   y="-1043.51"
   width="28.886"
   height="23.634001"
   style="fill:#b3b1ad" />
                <g
   id="rect29-8-8-4-0-8-3-9-9"
   transform="rotate(90)">
                    <rect
   x="-1492.61"
   y="-2183.8799"
   width="429.61301"
   height="28.361"
   style="fill:#373739"
   id="rect7397" />
                </g>
                <path
   id="rect32-2-8-4-1-5-4-5-0"
   d="m 2188.41,-1271.52 h -39.44 l -0.17,-0.16 -21.26,21.81 4.89,4.77 16.79,-17.23 h 39.19 z"
   style="fill:#d2cdc1" />
                <g
   id="rect31-1-1-2-2-5-4-2-0"
   transform="rotate(90)">
                    <rect
   x="-1286.23"
   y="-2181.52"
   width="28.886"
   height="23.634001"
   style="fill:#b3b1ad"
   id="rect7398" />
                </g>
                <g
   id="rect29-5-7-50-5-0-2-6-3-1"
   transform="scale(-1)">
                    <rect
   x="-2643.6799"
   y="1018.57"
   width="429.61301"
   height="28.361"
   style="fill:#373739"
   id="rect7399" />
                </g>
                <path
   id="rect32-24-0-6-3-7-0-4-3"
   d="m 2422.59,-1014.04 v -39.44 l 0.16,-0.17 -21.81,-21.26 -4.77,4.89 17.23,16.79 v 39.19 z"
   style="fill:#d2cdc1" />
                <g
   id="rect31-13-2-5-8-4-5-6-1-5"
   transform="scale(-1)">
                    <rect
   x="-2437.3"
   y="1020.93"
   width="28.886"
   height="23.634001"
   style="fill:#b3b1ad"
   id="rect7400" />
                </g>
                <g
   id="rect29-3-7-2-0-1-8-61-5-5"
   transform="rotate(-90)">
                    <rect
   x="575.823"
   y="2152.23"
   width="429.61301"
   height="28.361"
   style="fill:#373739"
   id="rect7401" />
                </g>
                <path
   id="rect34-0-7-1-8-0-8-8-2-8"
   d="m 2055.97,-1154.32 v 216.878 h 216.88 v -216.878 z m 15.6,15.59 h 185.68 v 185.691 h -185.68 z"
   style="fill:#272425" />
                <g
   id="rect30-5-2-9-2-8-4-3-0"
   transform="rotate(90)">
                    <rect
   x="-1261.02"
   y="-2178.6299"
   width="177.517"
   height="17.857"
   style="fill:#767471"
   id="rect7402" />
                </g>
                <rect
   id="rect15-9-3-1-4-5-9-1-1"
   x="1964.24"
   y="-1214.26"
   width="403.353"
   height="34.661999"
   style="fill:#404042" />
                <path
   id="rect32-6-9-2-0-2-6-6-7"
   d="m 2147.7,-796.906 h 39.44 l 0.17,0.161 21.26,-21.817 -4.89,-4.765 -16.79,17.23 h -39.19 z"
   style="fill:#d2cdc1" />
                <rect
   id="rect30-94-9-5-3-3-8-7"
   x="1911.49"
   y="-1040.62"
   width="177.517"
   height="17.857"
   style="fill:#767471" />
                <g
   id="rect31-8-8-9-2-5-7-8-4"
   transform="rotate(-90)">
                    <rect
   x="782.20001"
   y="2154.5901"
   width="28.886"
   height="23.634001"
   style="fill:#b3b1ad"
   id="rect7403" />
                </g>
                <rect
   id="rect19-40-3-77-7-8-2-6"
   x="2085.04"
   y="-1276.23"
   width="25.209999"
   height="194.32401"
   style="fill:#404042" />
                <path
   id="path27-5-3-1-7-8-7-7"
   d="m 2079.53,-978.446 v 83.268 c -0.16,2.04 -0.27,4.093 -0.27,6.172 v 23.132 c 0,44.709 37.36,80.701 83.77,80.701 46.41,0 83.77,-35.992 83.77,-80.701 v -23.132 c 0,-2.183 -0.11,-4.339 -0.29,-6.478 v -82.962 z m 16.02,12.336 h 134.94 v 72.372 c 0.15,1.866 0.24,3.747 0.24,5.652 v 20.178 c 0,39.001 -30.2,70.399 -67.7,70.399 -37.5,0 -67.69,-31.398 -67.69,-70.399 v -20.178 c 0,-1.814 0.09,-3.607 0.21,-5.386 z"
   style="fill:#403d3d" />
                <rect
   id="rect19-4-4-8-6-1-8-2-7-0"
   x="2220.6399"
   y="-1276.76"
   width="25.209999"
   height="194.32401"
   style="fill:#404042" />
                <rect
   id="rect28-5-8-1-6-9-1-7"
   x="2077.6899"
   y="-1122.35"
   width="170.69"
   height="152.83299"
   style="fill:#1b1b1d" />
                <g
   id="rect30-9-3-6-4-6-1-2-4"
   transform="scale(-1)">
                    <rect
   x="-2412.0901"
   y="1023.82"
   width="177.517"
   height="17.857"
   style="fill:#767471"
   id="rect7404" />
                </g>
                <g
   id="rect30-4-4-5-5-8-3-6-1"
   transform="rotate(-90)">
                    <rect
   x="807.40997"
   y="2157.48"
   width="177.517"
   height="17.857"
   style="fill:#767471"
   id="rect7405" />
                </g>
                <rect
   id="rect20-3-9-9-0-5-0-2"
   x="2064.8201"
   y="-1289.63"
   width="65.125"
   height="17.857"
   style="fill:#404042" />
                
                <rect
   id="rect20-2-0-9-8-2-8-9-8"
   x="2200.6799"
   y="-1288.3"
   width="65.125"
   height="17.857"
   style="fill:#404042" />
                
            </g>
            <g
   id="rect34-2-6-4-8-0-6-5"
   transform="rotate(45.841713)">
                <rect
   x="439.16501"
   y="-2565.76"
   width="130.24899"
   height="670.15399"
   style="fill:#1c1c1c"
   id="rect7408" />
            </g>
        </g><g
     id="g50-2-8-76-0-7"
     transform="matrix(-0.03932543,-0.02354759,-0.02354759,0.03932543,2295.5623,871.60816)">
            <g
   id="g49-7-3-3-3-1"
   transform="rotate(21.054076,1860.7646,-426.4984)">
                <g
   id="g41-74-2-6-6-4"
   transform="translate(793.05,8.40318)">
                    <path
   id="path41-4-3-7-1-2-7"
   d="m 779.067,-532.158 2.67,-15.615 29.71,-32.495 c 0,0 2.043,-2.786 4.457,-4.085 2.414,-1.3 7.984,-2.043 7.984,-2.043 0,0 56.82,-12.07 151.334,-12.07 94.518,0 183.088,14.113 183.088,14.113 0,0 5.38,0.742 6.68,1.671 1.3,0.928 11.33,11.698 11.33,11.698 l 22.84,27.667 2.46,13.23 -257.964,76.456 z"
   style="fill:#6b6d71" />
                    <path
   id="path40-0-99-4-5-4-6"
   d="m 775.053,-520.385 0.928,-10.066 c 0,0 0.92,-1.182 3.086,-1.707 2.166,-0.525 5.974,-0.394 5.974,-0.394 l 408.499,1.769 c 0,0 5.76,-0.093 8.08,0.696 2.32,0.789 2.46,1.254 2.46,1.254 l 0.65,8.448 -213.725,24.975 z"
   style="fill:#a3a5ac" />
                    <path
   id="path39-4-9-2-4-5-8"
   d="m 786.008,-522.427 c 0,0 -5.199,0.279 -7.799,0.557 -2.599,0.279 -3.156,1.485 -3.156,1.485 l 3.292,24.86 89.973,193.47 c 0,0 5.383,13.918 11.062,16.938 5.679,3.019 16.183,2.56 16.183,2.56 h 188.657 c 0,0 10.5,0.459 16.18,-2.56 5.68,-3.02 11.06,-16.938 11.06,-16.938 l 89.98,-193.47 3.29,-24.86 c 0,0 -0.56,-1.206 -3.16,-1.485 -2.6,-0.278 -7.8,-0.557 -7.8,-0.557 l -203.878,1.147 z"
   style="fill:#3c3f43" />
                </g>
                <g
   id="g48-9-1-2-8-2"
   transform="translate(-5.60384,8.40318)">
                    <g
   id="g46-68-1-0-8-3">
                        <path
   id="rect35-8-3-9-1-0"
   d="m 1810.17,-511.75 c -4.66,0 -8.42,3.756 -8.42,8.422 v 199.665 c 0,4.666 3.76,8.423 8.42,8.423 h 60.03 c 3.91,0 7.16,-2.657 8.11,-6.262 l 0.03,0.021 91.27,-196.436 c 0,0 2.6,-4.735 -1.21,-9.47 -3.8,-4.735 -10.4,-4.363 -10.4,-4.363 h -107.6 z"
   style="fill:#4f5157" />
                        <g
   id="g35-81-84-4-7-2-2"
   transform="translate(800.787,3.71372)">
                            <circle
   id="path35-4-87-9-37-1-7"
   cx="1056.51"
   cy="-323.64001"
   r="22.282"
   style="fill:#393c41" />
                            <circle
   id="path35-50-9-2-4-8"
   cx="1056.51"
   cy="-323.64001"
   r="15.319"
   style="fill:#45474a" />
                        </g>
                        <g
   id="g35-9-69-3-6-9-8"
   transform="translate(878.09,-161.01)">
                            <circle
   id="path35-4-5-4-5-0-8-5"
   cx="1056.51"
   cy="-323.64001"
   r="22.282"
   style="fill:#393c41" />
                            <circle
   id="path35-5-4-4-1-1-2-9"
   cx="1056.51"
   cy="-323.64001"
   r="15.319"
   style="fill:#45474a" />
                        </g>
                    </g>
                    <g
   id="g45-52-5-6-4-7">
                        <path
   id="rect35-6-71-1-5-5-1"
   d="m 1766.92,-511.75 c 4.67,0 8.42,3.756 8.42,8.422 v 199.665 c 0,4.666 -3.75,8.423 -8.42,8.423 h -60.03 c -3.91,0 -7.15,-2.657 -8.11,-6.262 l -0.03,0.021 -91.27,-196.436 c 0,0 -2.6,-4.735 1.21,-9.47 3.81,-4.735 10.4,-4.363 10.4,-4.363 h 107.6 z"
   style="fill:#4f5157" />
                        <g
   id="g35-2-3-1-7-2-3"
   transform="translate(664.143,3.71372)">
                            <circle
   id="path35-4-7-2-8-5-9-4"
   cx="1056.51"
   cy="-323.64001"
   r="22.282"
   style="fill:#393c41" />
                            <circle
   id="path35-45-1-0-41-9-7"
   cx="1056.51"
   cy="-323.64001"
   r="15.319"
   style="fill:#45474a" />
                        </g>
                        <g
   id="g35-6-8-6-20-8-1"
   transform="translate(588.636,-161.01)">
                            <circle
   id="path35-4-0-4-1-0-3-3"
   cx="1056.51"
   cy="-323.64001"
   r="22.282"
   style="fill:#393c41" />
                            <circle
   id="path35-7-01-0-1-8-7"
   cx="1056.51"
   cy="-323.64001"
   r="15.319"
   style="fill:#45474a" />
                        </g>
                    </g>
                    <g
   id="g47-3-6-4-6-1"
   transform="translate(8.81055e-5)">
                        <rect
   id="rect36-3-5-6-9-2"
   x="1783.72"
   y="-508.40799"
   width="9.6560001"
   height="222.08"
   style="fill:#2b2b2b" />
                        <g
   id="g38-6-9-0-8-7"
   transform="translate(798.874)">
                            <circle
   id="path38-1-1-8-7-6-5"
   cx="989.672"
   cy="-359.827"
   r="11.915"
   style="fill:#38393b" />
                            <circle
   id="path37-4-3-8-1-6-3"
   cx="989.672"
   cy="-359.827"
   r="5.5799999"
   style="fill:#fbfefd" />
                            <circle
   id="path36-1-84-8-7-2-4"
   cx="989.672"
   cy="-359.827"
   r="3.6760001"
   style="fill:#101115" />
                        </g>
                    </g>
                </g>
            </g>
            <g
   id="g44-5-6-7-3-4"
   transform="rotate(-58.590829,1421.8538,-1338.868)">
                <g
   id="g43-0-7-7-8-5"
   transform="translate(129.237)">
                    <path
   id="rect42-9-4-73-2-5"
   d="m 735.316,-603.479 c -26.952,0 -48.65,21.698 -48.65,48.65 v 11.884 c 0,2.628 0.213,5.203 0.61,7.716 -0.377,0.688 -0.61,1.468 -0.61,2.311 v 215.395 c 0,2.675 2.154,4.828 4.828,4.828 h 87.644 c 2.675,0 4.828,-2.153 4.828,-4.828 v -215.395 c 0,-0.843 -0.233,-1.623 -0.61,-2.311 0.397,-2.513 0.61,-5.088 0.61,-7.716 v -11.884 c 0,-26.952 -21.698,-48.65 -48.65,-48.65 z"
   style="fill:#6e7175" />
                    <circle
   id="path42-4-0-4-3-6-1"
   cx="697.034"
   cy="-325.879"
   r="7.0560002"
   style="fill:#060606" />
                    <circle
   id="path42-7-5-3-5-2-4"
   cx="697.034"
   cy="-344.51001"
   r="4.7350001"
   style="fill:#060606" />
                    <circle
   id="path42-3-2-5-9-7-1"
   cx="772.20001"
   cy="-325.879"
   r="7.0560002"
   style="fill:#060606" />
                    <circle
   id="path42-6-5-2-9-5-2"
   cx="697.034"
   cy="-504.811"
   r="7.0560002"
   style="fill:#060606" />
                    <circle
   id="path42-3-3-2-7-8-7-6"
   cx="772.20001"
   cy="-504.811"
   r="7.0560002"
   style="fill:#060606" />
                    <circle
   id="path42-7-9-1-2-1-8-6"
   cx="772.20001"
   cy="-344.51001"
   r="4.7350001"
   style="fill:#060606" />
                    <circle
   id="path42-7-0-9-2-8-2-3"
   cx="697.034"
   cy="-481.30499"
   r="4.7350001"
   style="fill:#060606" />
                    <circle
   id="path42-7-9-8-6-6-2-7-3"
   cx="772.20001"
   cy="-481.30499"
   r="4.7350001"
   style="fill:#060606" />
                    <circle
   id="path42-7-3-8-7-6-8-0"
   cx="734.99701"
   cy="-481.30499"
   r="4.7350001"
   style="fill:#060606" />
                </g>
                <g
   id="path43-3-67-1-6-0-0"
   transform="matrix(0.910253,0,0,0.910253,201.001,-45.3493)">
                    <path
   d="m 737.379,-573.255 -8.067,5.046 -8.404,-4.465 -0.335,-9.509 8.068,-5.045 8.403,4.464 z"
   style="fill:#615e5b"
   id="path7408" />
                </g>
            </g>
        </g><g
     id="g49-5-8-6-3-0-1"
     transform="matrix(0.0452007,-0.00760707,0.00760707,0.0452007,2129.8208,844.44099)">
                <g
   id="g41-7-6-5-80-8-3"
   transform="translate(793.05,8.40318)">
                    <path
   id="path41-4-0-0-7-1-9-8"
   d="m 779.067,-532.158 2.67,-15.615 29.71,-32.495 c 0,0 2.043,-2.786 4.457,-4.085 2.414,-1.3 7.984,-2.043 7.984,-2.043 0,0 56.82,-12.07 151.334,-12.07 94.518,0 183.088,14.113 183.088,14.113 0,0 5.38,0.742 6.68,1.671 1.3,0.928 11.33,11.698 11.33,11.698 l 22.84,27.667 2.46,13.23 -257.964,76.456 z"
   style="fill:#6b6d71" />
                    <path
   id="path40-0-9-3-0-2-2-1"
   d="m 775.053,-520.385 0.928,-10.066 c 0,0 0.92,-1.182 3.086,-1.707 2.166,-0.525 5.974,-0.394 5.974,-0.394 l 408.499,1.769 c 0,0 5.76,-0.093 8.08,0.696 2.32,0.789 2.46,1.254 2.46,1.254 l 0.65,8.448 -213.725,24.975 z"
   style="fill:#a3a5ac" />
                    <path
   id="path39-4-8-3-1-5-8-6"
   d="m 786.008,-522.427 c 0,0 -5.199,0.279 -7.799,0.557 -2.599,0.279 -3.156,1.485 -3.156,1.485 l 3.292,24.86 89.973,193.47 c 0,0 5.383,13.918 11.062,16.938 5.679,3.019 16.183,2.56 16.183,2.56 h 188.657 c 0,0 10.5,0.459 16.18,-2.56 5.68,-3.02 11.06,-16.938 11.06,-16.938 l 89.98,-193.47 3.29,-24.86 c 0,0 -0.56,-1.206 -3.16,-1.485 -2.6,-0.278 -7.8,-0.557 -7.8,-0.557 l -203.878,1.147 z"
   style="fill:#3c3f43" />
                </g>
                <g
   id="g48-8-2-8-0-2-9"
   transform="translate(-5.60384,8.40318)">
                    <g
   id="g46-5-3-2-9-0-8">
                        <path
   id="rect35-4-62-6-4-5-0"
   d="m 1810.17,-511.75 c -4.66,0 -8.42,3.756 -8.42,8.422 v 199.665 c 0,4.666 3.76,8.423 8.42,8.423 h 60.03 c 3.91,0 7.16,-2.657 8.11,-6.262 l 0.03,0.021 91.27,-196.436 c 0,0 2.6,-4.735 -1.21,-9.47 -3.8,-4.735 -10.4,-4.363 -10.4,-4.363 h -107.6 z"
   style="fill:#4f5157" />
                        <g
   id="g35-81-8-3-3-7-5-1"
   transform="translate(800.787,3.71372)">
                            <circle
   id="path35-4-8-4-4-8-2-3"
   cx="1056.51"
   cy="-323.64001"
   r="22.282"
   style="fill:#393c41" />
                            <circle
   id="path35-1-2-9-35-7-9"
   cx="1056.51"
   cy="-323.64001"
   r="15.319"
   style="fill:#45474a" />
                        </g>
                        <g
   id="g35-9-6-6-2-1-6-3"
   transform="translate(878.09,-161.01)">
                            <circle
   id="path35-4-5-0-3-6-2-7-9"
   cx="1056.51"
   cy="-323.64001"
   r="22.282"
   style="fill:#393c41" />
                            <circle
   id="path35-5-4-1-6-8-0-8-3"
   cx="1056.51"
   cy="-323.64001"
   r="15.319"
   style="fill:#45474a" />
                        </g>
                    </g>
                    <g
   id="g45-9-3-6-1-7-6">
                        <path
   id="rect35-6-6-9-6-6-8-5"
   d="m 1766.92,-511.75 c 4.67,0 8.42,3.756 8.42,8.422 v 199.665 c 0,4.666 -3.75,8.423 -8.42,8.423 h -60.03 c -3.91,0 -7.15,-2.657 -8.11,-6.262 l -0.03,0.021 -91.27,-196.436 c 0,0 -2.6,-4.735 1.21,-9.47 3.81,-4.735 10.4,-4.363 10.4,-4.363 h 107.6 z"
   style="fill:#4f5157" />
                        <g
   id="g35-2-1-7-0-4-1-5"
   transform="translate(664.143,3.71372)">
                            <circle
   id="path35-4-7-8-3-4-0-6-4"
   cx="1056.51"
   cy="-323.64001"
   r="22.282"
   style="fill:#393c41" />
                            <circle
   id="path35-45-9-3-3-6-0-0"
   cx="1056.51"
   cy="-323.64001"
   r="15.319"
   style="fill:#45474a" />
                        </g>
                        <g
   id="g35-6-4-4-7-1-9-5"
   transform="translate(588.636,-161.01)">
                            <circle
   id="path35-4-0-0-1-3-8-5-0"
   cx="1056.51"
   cy="-323.64001"
   r="22.282"
   style="fill:#393c41" />
                            <circle
   id="path35-7-6-83-6-9-8-6"
   cx="1056.51"
   cy="-323.64001"
   r="15.319"
   style="fill:#45474a" />
                        </g>
                    </g>
                    <g
   id="g47-9-2-5-84-9-5"
   transform="translate(8.81055e-5)">
                        <rect
   id="rect36-6-5-1-1-0-5"
   x="1783.72"
   y="-508.40799"
   width="9.6560001"
   height="222.08"
   style="fill:#2b2b2b" />
                        <g
   id="g38-0-4-4-4-0-1"
   transform="translate(798.874)">
                            <circle
   id="path38-1-0-4-3-3-0-8"
   cx="989.672"
   cy="-359.827"
   r="11.915"
   style="fill:#38393b" />
                            <circle
   id="path37-4-1-9-6-9-7-9"
   cx="989.672"
   cy="-359.827"
   r="5.5799999"
   style="fill:#fbfefd" />
                            <circle
   id="path36-1-7-3-4-8-2-6"
   cx="989.672"
   cy="-359.827"
   r="3.6760001"
   style="fill:#101115" />
                        </g>
                    </g>
                </g>
            </g><g
     id="g44-0-4-6-8-5-2"
     transform="matrix(-2.4513915e-4,-0.04583566,0.04583566,-2.4513915e-4,2233.1269,851.00138)">
                <g
   id="g43-8-0-4-0-5-2"
   transform="translate(129.237)">
                    <path
   id="rect42-2-2-9-8-2-5"
   d="m 735.316,-603.479 c -26.952,0 -48.65,21.698 -48.65,48.65 v 11.884 c 0,2.628 0.213,5.203 0.61,7.716 -0.377,0.688 -0.61,1.468 -0.61,2.311 v 215.395 c 0,2.675 2.154,4.828 4.828,4.828 h 87.644 c 2.675,0 4.828,-2.153 4.828,-4.828 v -215.395 c 0,-0.843 -0.233,-1.623 -0.61,-2.311 0.397,-2.513 0.61,-5.088 0.61,-7.716 v -11.884 c 0,-26.952 -21.698,-48.65 -48.65,-48.65 z"
   style="fill:#6e7175" />
                    <circle
   id="path42-4-3-5-0-7-1-0"
   cx="697.034"
   cy="-325.879"
   r="7.0560002"
   style="fill:#060606" />
                    <circle
   id="path42-7-04-34-8-7-4-5"
   cx="697.034"
   cy="-344.51001"
   r="4.7350001"
   style="fill:#060606" />
                    <circle
   id="path42-3-4-6-3-8-8-2"
   cx="772.20001"
   cy="-325.879"
   r="7.0560002"
   style="fill:#060606" />
                    <circle
   id="path42-6-0-0-3-3-6-5"
   cx="697.034"
   cy="-504.811"
   r="7.0560002"
   style="fill:#060606" />
                    <circle
   id="path42-3-3-3-1-9-8-4-2"
   cx="772.20001"
   cy="-504.811"
   r="7.0560002"
   style="fill:#060606" />
                    <circle
   id="path42-7-9-0-8-5-3-6-0"
   cx="772.20001"
   cy="-344.51001"
   r="4.7350001"
   style="fill:#060606" />
                    <circle
   id="path42-7-0-1-3-1-7-8-6"
   cx="697.034"
   cy="-481.30499"
   r="4.7350001"
   style="fill:#060606" />
                    <circle
   id="path42-7-9-8-2-3-2-1-9-7"
   cx="772.20001"
   cy="-481.30499"
   r="4.7350001"
   style="fill:#060606" />
                    <circle
   id="path42-7-3-5-4-1-0-8-2"
   cx="734.99701"
   cy="-481.30499"
   r="4.7350001"
   style="fill:#060606" />
                </g>
                <g
   id="path43-3-8-1-3-7-3-8"
   transform="matrix(0.910253,0,0,0.910253,201.001,-45.3493)">
                    <path
   d="m 737.379,-573.255 -8.067,5.046 -8.404,-4.465 -0.335,-9.509 8.068,-5.045 8.403,4.464 z"
   style="fill:#615e5b"
   id="path7409" />
                </g>
            </g><g
     id="g9-2-2-1-5-1-1-4-1-2"
     transform="matrix(-0.02881589,0.00998458,-0.00998458,-0.02881589,2259.2908,827.26612)">
            <g
   id="g8-6-3-3-7-1-5-8-4-0"
   transform="rotate(45.031034,1613.5436,364.45517)">
                <path
   id="path21-8-4-0-2-8-7-4-9-7"
   d="m 1601.23,236.276 v 5.159 l -212.56,23.958 -3.35,1.986 0.88,17.64 c 0,0 0,2.878 0.28,3.992 0.28,1.114 1.21,3.806 1.21,3.806 L 1455,531.145 c 0,0 0.83,3.436 3.43,5.757 2.6,2.321 5.67,2.692 8.55,3.249 2.87,0.557 8.82,0.743 12.16,0.929 2.42,0.134 74.27,1.088 122.09,1.716 v 0.605 c 0,0 17.44,-0.231 22.89,-0.302 5.44,0.071 22.88,0.302 22.88,0.302 v -0.605 c 47.82,-0.628 119.67,-1.582 122.09,-1.716 3.34,-0.186 9.29,-0.372 12.16,-0.929 2.88,-0.557 5.95,-0.928 8.55,-3.249 2.6,-2.321 3.43,-5.757 3.43,-5.757 l 67.31,-238.328 c 0,0 0.93,-2.692 1.21,-3.806 0.28,-1.114 0.28,-3.992 0.28,-3.992 l 0.88,-17.64 -3.35,-1.986 L 1647,241.435 v -5.159 l -22.88,2.58 z"
   style="fill:#868589" />
                <path
   id="path20-80-5-6-2-1-7-9-9-5"
   d="m 1389.09,257.444 c 0,0 -1.12,0.209 -1.77,0.581 -0.65,0.371 -0.95,0.951 -0.95,0.951 l -1.18,9.47 c 0,0 1.39,-0.51 3.76,-0.928 2.36,-0.418 6.82,-0.325 8.77,-0.325 h 11.23 l 444.95,-0.789 c 0,0 4,0.046 5.3,0.185 1.3,0.14 3.71,0.789 3.71,0.789 l -1.21,-8.866 c 0,0 -0.32,-1.068 -0.88,-1.532 -0.56,-0.464 -2.04,-0.743 -2.04,-0.743 l -35.61,-7.742 -209.68,-8.479 -217.7,14.963 z"
   style="fill:#595b60" />
                <path
   id="path19-72-7-4-8-0-1-9-0-6"
   d="m 1403.11,200.624 c 0,0 5.57,-4.827 11.14,-6.127 5.57,-1.3 12.44,-2.414 12.44,-2.414 0,0 98.05,-15.879 199.41,-15.879 101.36,0 201.94,16.807 201.94,16.807 0,0 11.06,2.321 14.4,5.107 3.34,2.785 3.99,7.334 3.99,7.334 l 8.73,29.339 3.53,19.311 0.09,2.135 c 0,0 -5.34,-0.512 -7.75,-0.512 -2.42,0 -15.65,-0.23 -15.65,-0.23 l -423.55,0.835 c 0,0 -12.62,-0.278 -16.15,0.186 -3.53,0.464 -6.59,0.928 -6.59,0.928 l 2.13,-14.298 c 0,0 0.1,-1.299 0.28,-2.599 0.19,-1.3 9.47,-34.909 9.47,-34.909 0,0 1.11,-3.714 2.14,-5.014 z"
   style="fill:#64666c" />
                <g
   id="g22-4-7-6-12-5-5-25-3-1"
   transform="translate(402.248,23.1088)">
                    <path
   id="rect21-8-0-9-77-3-3-5-0-8"
   d="m 1256.36,266.276 c -8.85,0 -15.98,7.126 -15.98,15.977 V 476.09 c 0,8.852 7.13,15.978 15.98,15.978 h 81.31 c 8.03,0 14.63,-5.873 15.78,-13.572 l 0.2,0.091 55.59,-198.262 c 0,0 1.31,-6.04 -1.44,-9.847 -2.76,-3.808 -6.7,-4.202 -6.7,-4.202 h -66.04 z"
   style="fill:#8e8d91;stroke:#000000;stroke-width:1.9px;stroke-linecap:butt;stroke-linejoin:miter;stroke-miterlimit:4" />
                    <path
   id="rect21-5-69-0-0-2-1-3-3-3-1"
   d="m 1187.38,266.276 c 8.85,0 15.97,7.126 15.97,15.977 V 476.09 c 0,8.852 -7.12,15.978 -15.97,15.978 h -81.32 c -8.03,0 -14.62,-5.873 -15.78,-13.572 l -0.2,0.091 -55.59,-198.262 c 0,0 -1.31,-6.04 1.45,-9.847 2.75,-3.808 6.69,-4.202 6.69,-4.202 h 66.05 z"
   style="fill:#8e8d91;stroke:#000000;stroke-width:1.9px;stroke-linecap:butt;stroke-linejoin:miter;stroke-miterlimit:4" />
                </g>
                <rect
   id="rect22-8-56-3-4-80-5-5-3-5-8"
   x="1614.64"
   y="290.12601"
   width="18.940001"
   height="238.047"
   style="fill:#646261" />
                <g
   id="g23-9-1-1-0-5-0-3-0-5"
   transform="translate(402.141,23.1088)">
                    <circle
   id="path22-7-2-80-79-5-5-3-2-7-7-6"
   cx="1221.97"
   cy="435.45599"
   r="14.64"
   style="fill:#b5b2b4;stroke:#000000;stroke-width:0.78px;stroke-linecap:butt;stroke-linejoin:miter;stroke-miterlimit:4" />
                    <circle
   id="path22-7-03-78-53-24-4-1-4-6-5"
   cx="1221.97"
   cy="435.45599"
   r="10.012"
   style="fill:#4d4b4e" />
                    <circle
   id="path22-12-1-5-5-6-3-3-7-9"
   cx="1221.97"
   cy="435.45599"
   r="7.8940001"
   style="fill:#8d8b8e" />
                </g>
            </g>
            <g
   id="g27-43-4-7-5-1-0-8-8-2"
   transform="rotate(107.52165,1921.5261,115.42306)">
                <path
   id="rect23-4-02-31-68-0-1-0-3-6"
   d="m 2233,291.223 c 0,0 0,0 0,0 -18.17,0 -33.11,7.823 -33.11,17.331 0,0 0,341.183 0,341.183 0,3.909 3.14,7.056 7.05,7.056 h 52.11 c 3.91,0 7.06,-3.147 7.06,-7.056 0,0 0,-341.183 0,-341.183 0,-9.508 -14.95,-17.331 -33.11,-17.331 z"
   style="fill:#727174" />
                <g
   id="g26-3-07-3-8-0-6-88-6-5"
   transform="translate(974.048)">
                    <circle
   id="path24-01-71-9-70-3-0-0-4-2"
   cx="1258.95"
   cy="325.879"
   r="12.07"
   style="fill:#b4b0b1" />
                    <circle
   id="path24-9-93-00-2-8-0-1-6-4-3"
   cx="1258.95"
   cy="325.879"
   r="9.1450005"
   style="fill:#e2e3db" />
                    <g
   id="g25-06-9-46-76-2-1-8-1-2"
   transform="translate(52.0848,-0.0696716)">
                        <circle
   id="path25-1-4-5-0-8-7-1-9-1"
   cx="1206.87"
   cy="325.948"
   r="8.3330002"
   style="fill:#676058" />
                        <rect
   id="rect25-9-9-1-8-8-6-9-5-2"
   x="1205.73"
   y="321.16699"
   width="2.2750001"
   height="9.5629997"
   style="fill:#b3aba3" />
                        <g
   id="rect25-8-6-2-7-74-7-9-8-5-2"
   transform="rotate(90)">
                            <rect
   x="324.811"
   y="-1211.65"
   width="2.2750001"
   height="9.5629997"
   style="fill:#b3aba3"
   id="rect7417" />
                        </g>
                    </g>
                </g>
            </g>
        </g><g
     id="g9-2-2-0-9-3-2-8-9-7-8"
     transform="matrix(0.02881589,0.00998457,0.00998457,-0.02881589,2184.4917,827.36533)">
            <g
   id="g8-6-3-0-7-4-8-3-7-4-8"
   transform="rotate(64.508506,1617.5401,359.34453)">
                <path
   id="path21-8-4-9-2-93-3-4-2-7-8"
   d="m 1601.23,236.276 v 5.159 l -212.56,23.958 -3.35,1.986 0.88,17.64 c 0,0 0,2.878 0.28,3.992 0.28,1.114 1.21,3.806 1.21,3.806 L 1455,531.145 c 0,0 0.83,3.436 3.43,5.757 2.6,2.321 5.67,2.692 8.55,3.249 2.87,0.557 8.82,0.743 12.16,0.929 2.42,0.134 74.27,1.088 122.09,1.716 v 0.605 c 0,0 17.44,-0.231 22.89,-0.302 5.44,0.071 22.88,0.302 22.88,0.302 v -0.605 c 47.82,-0.628 119.67,-1.582 122.09,-1.716 3.34,-0.186 9.29,-0.372 12.16,-0.929 2.88,-0.557 5.95,-0.928 8.55,-3.249 2.6,-2.321 3.43,-5.757 3.43,-5.757 l 67.31,-238.328 c 0,0 0.93,-2.692 1.21,-3.806 0.28,-1.114 0.28,-3.992 0.28,-3.992 l 0.88,-17.64 -3.35,-1.986 L 1647,241.435 v -5.159 l -22.88,2.58 z"
   style="fill:#868589" />
                <path
   id="path20-80-5-9-6-4-6-9-2-3-7"
   d="m 1389.09,257.444 c 0,0 -1.12,0.209 -1.77,0.581 -0.65,0.371 -0.95,0.951 -0.95,0.951 l -1.18,9.47 c 0,0 1.39,-0.51 3.76,-0.928 2.36,-0.418 6.82,-0.325 8.77,-0.325 h 11.23 l 444.95,-0.789 c 0,0 4,0.046 5.3,0.185 1.3,0.14 3.71,0.789 3.71,0.789 l -1.21,-8.866 c 0,0 -0.32,-1.068 -0.88,-1.532 -0.56,-0.464 -2.04,-0.743 -2.04,-0.743 l -35.61,-7.742 -209.68,-8.479 -217.7,14.963 z"
   style="fill:#595b60" />
                <path
   id="path19-72-7-3-7-89-0-2-8-4-4"
   d="m 1403.11,200.624 c 0,0 5.57,-4.827 11.14,-6.127 5.57,-1.3 12.44,-2.414 12.44,-2.414 0,0 98.05,-15.879 199.41,-15.879 101.36,0 201.94,16.807 201.94,16.807 0,0 11.06,2.321 14.4,5.107 3.34,2.785 3.99,7.334 3.99,7.334 l 8.73,29.339 3.53,19.311 0.09,2.135 c 0,0 -5.34,-0.512 -7.75,-0.512 -2.42,0 -15.65,-0.23 -15.65,-0.23 l -423.55,0.835 c 0,0 -12.62,-0.278 -16.15,0.186 -3.53,0.464 -6.59,0.928 -6.59,0.928 l 2.13,-14.298 c 0,0 0.1,-1.299 0.28,-2.599 0.19,-1.3 9.47,-34.909 9.47,-34.909 0,0 1.11,-3.714 2.14,-5.014 z"
   style="fill:#64666c" />
                <g
   id="g22-4-7-8-7-6-6-0-2-0-0"
   transform="translate(402.248,23.1088)">
                    <path
   id="rect21-8-0-6-9-23-1-4-8-8-0"
   d="m 1256.36,266.276 c -8.85,0 -15.98,7.126 -15.98,15.977 V 476.09 c 0,8.852 7.13,15.978 15.98,15.978 h 81.31 c 8.03,0 14.63,-5.873 15.78,-13.572 l 0.2,0.091 55.59,-198.262 c 0,0 1.31,-6.04 -1.44,-9.847 -2.76,-3.808 -6.7,-4.202 -6.7,-4.202 h -66.04 z"
   style="fill:#8e8d91;stroke:#000000;stroke-width:1.9px;stroke-linecap:butt;stroke-linejoin:miter;stroke-miterlimit:4" />
                    <path
   id="rect21-5-69-0-9-1-1-3-3-9-8-5"
   d="m 1187.38,266.276 c 8.85,0 15.97,7.126 15.97,15.977 V 476.09 c 0,8.852 -7.12,15.978 -15.97,15.978 h -81.32 c -8.03,0 -14.62,-5.873 -15.78,-13.572 l -0.2,0.091 -55.59,-198.262 c 0,0 -1.31,-6.04 1.45,-9.847 2.75,-3.808 6.69,-4.202 6.69,-4.202 h 66.05 z"
   style="fill:#8e8d91;stroke:#000000;stroke-width:1.9px;stroke-linecap:butt;stroke-linejoin:miter;stroke-miterlimit:4" />
                </g>
                <rect
   id="rect22-8-56-3-7-7-9-8-6-0-1-9"
   x="1614.64"
   y="290.12601"
   width="18.940001"
   height="238.047"
   style="fill:#646261" />
                <g
   id="g23-9-1-3-3-85-4-8-7-5-9"
   transform="translate(402.141,23.1088)">
                    <circle
   id="path22-7-2-80-79-7-9-9-0-4-81-2-5"
   cx="1221.97"
   cy="435.45599"
   r="14.64"
   style="fill:#b5b2b4;stroke:#000000;stroke-width:0.78px;stroke-linecap:butt;stroke-linejoin:miter;stroke-miterlimit:4" />
                    <circle
   id="path22-7-03-78-5-0-9-6-5-58-3-3"
   cx="1221.97"
   cy="435.45599"
   r="10.012"
   style="fill:#4d4b4e" />
                    <circle
   id="path22-12-1-0-6-8-0-9-6-2-0"
   cx="1221.97"
   cy="435.45599"
   r="7.8940001"
   style="fill:#8d8b8e" />
                </g>
            </g>
            <g
   id="g27-43-4-1-1-9-8-9-1-4-9"
   transform="rotate(107.52165,1921.5261,115.42306)">
                <path
   id="rect23-4-02-3-1-0-3-0-2-6-9"
   d="m 2233,291.223 c 0,0 0,0 0,0 -18.17,0 -33.11,7.823 -33.11,17.331 0,0 0,341.183 0,341.183 0,3.909 3.14,7.056 7.05,7.056 h 52.11 c 3.91,0 7.06,-3.147 7.06,-7.056 0,0 0,-341.183 0,-341.183 0,-9.508 -14.95,-17.331 -33.11,-17.331 z"
   style="fill:#727174" />
                <g
   id="g26-3-07-4-7-80-5-1-4-6-5"
   transform="translate(974.048)">
                    <circle
   id="path24-01-71-3-9-92-1-0-2-6-1"
   cx="1258.95"
   cy="325.879"
   r="12.07"
   style="fill:#b4b0b1" />
                    <circle
   id="path24-9-93-00-5-5-7-5-9-5-2-1"
   cx="1258.95"
   cy="325.879"
   r="9.1450005"
   style="fill:#e2e3db" />
                    <g
   id="g25-06-9-4-7-1-3-5-8-9-1"
   transform="translate(52.0848,-0.0696716)">
                        <circle
   id="path25-1-4-0-4-7-4-8-6-0-2"
   cx="1206.87"
   cy="325.948"
   r="8.3330002"
   style="fill:#676058" />
                        <rect
   id="rect25-9-9-7-3-30-0-5-2-4-3"
   x="1205.73"
   y="321.16699"
   width="2.2750001"
   height="9.5629997"
   style="fill:#b3aba3" />
                        <g
   id="rect25-8-6-2-8-3-02-0-1-6-9-3"
   transform="rotate(90)">
                            <rect
   x="324.811"
   y="-1211.65"
   width="2.2750001"
   height="9.5629997"
   style="fill:#b3aba3"
   id="rect7418" />
                        </g>
                    </g>
                </g>
            </g>
        </g></g><g
   id="replace_004"
   transform="translate(-114.67205,-70.225343)"
   style="display:inline"><rect
     style="fill:#aa0000;stroke:#000000;stroke-width:2.70236"
     id="g32"
     width="16.162441"
     height="17.894131"
     x="116.02323"
     y="71.576523" /><path
     style="fill:#000000;stroke:#000000;stroke-width:2.70236"
     d="m 123.87755,75.714286 v 10.204082 l -3.2653,-2.653061 3.06122,2.857143 3.06122,-3.67347"
     id="path49" /></g><g
   id="replace_003"
   transform="translate(-88.119477,-71.957032)"
   style="display:inline"><rect
     style="fill:#44aa00;stroke:#000000;stroke-width:2.70236"
     id="g33"
     width="15.585211"
     height="16.73967"
     x="89.470657"
     y="73.308212" /><path
     style="fill:#000000;stroke:#000000;stroke-width:2.70236"
     d="m 101.22449,81.428572 -8.163265,-0.204081 2.857143,-3.469388 -3.061224,3.061224 2.040816,3.265306"
     id="path4" /></g><g
   id="replace_002"
   transform="translate(-115.82652,-42.5183)"
   style="display:inline"><rect
     style="fill:#0000ff;stroke:#000000;stroke-width:2.70236"
     id="g34"
     width="16.162441"
     height="16.162441"
     x="117.1777"
     y="43.86948"
     inkscape:label="g34" /><path
     style="fill:#000000;stroke:#000000;stroke-width:2.70236"
     d="M 125.10204,57.346939 V 48.367347 L 122.65306,50 l 2.44898,-1.836734 3.26531,2.244898"
     id="path3" /></g><g
   id="replace_001"
   transform="translate(-88.119477,-43.095533)"
   style="display:inline"><rect
     style="fill:#ffcc00;stroke:#000000;stroke-width:2.70236"
     id="g35"
     width="13.85352"
     height="14.430751"
     x="89.470657"
     y="44.446712"
     inkscape:label="g35"
     onmouseout="g35" /><path
     style="fill:#000000;stroke:#000000;stroke-width:2.70236"
     d="m 92.212497,51.229165 c 7.936913,0.144308 7.936913,0.144308 7.936913,0.144308 l -1.443075,-1.948152 1.515225,1.875998 -1.443071,2.164613"
     id="path2" /></g></svg>
