<?xml version="1.0" encoding="UTF-8" standalone="no"?>
<!-- Created with Inkscape (http://www.inkscape.org/) -->

<svg
   width="793.70081"
   height="1122.5197"
   viewBox="0 0 793.70081 1122.5197"
   version="1.1"
   id="svg1"
   inkscape:version="1.4.2 (f4327f4, 2025-05-13)"
   sodipodi:docname="lookup.svg"
   xmlns:inkscape="http://www.inkscape.org/namespaces/inkscape"
   xmlns:sodipodi="http://sodipodi.sourceforge.net/DTD/sodipodi-0.dtd"
   xmlns="http://www.w3.org/2000/svg"
   xmlns:svg="http://www.w3.org/2000/svg"
   xmlns:serif="http://www.serif.com/">
  <sodipodi:namedview
     id="namedview1"
     pagecolor="#ffffff"
     bordercolor="#000000"
     borderopacity="0.25"
     inkscape:showpageshadow="2"
     inkscape:pageopacity="0.0"
     inkscape:pagecheckerboard="0"
     inkscape:deskcolor="#d1d1d1"
     inkscape:document-units="px"
     inkscape:zoom="0.5"
     inkscape:cx="397"
     inkscape:cy="561"
     inkscape:window-width="1680"
     inkscape:window-height="979"
     inkscape:window-x="-8"
     inkscape:window-y="-8"
     inkscape:window-maximized="1"
     inkscape:current-layer="svg1" />
  <defs
     id="defs1">
    <clipPath
       id="clipId0">
<path
   d="M 0,8666 H 8666 V 0 H 0 Z"
   id="path1" />

</clipPath>
    <clipPath
       id="clipPath2">
<path
   d="M 0,8666 H 8666 V 0 H 0 Z"
   id="path2" />

</clipPath>
    <clipPath
       id="clipPath3">
<path
   d="M 0,8666 H 8666 V 0 H 0 Z"
   id="path3" />

</clipPath>
    <clipPath
       id="clipPath4">
<path
   d="M 0,8666 H 8666 V 0 H 0 Z"
   id="path4" />

</clipPath>
    <clipPath
       id="clipId0-2">
<path
   d="M 0,8666 H 8666 V 0 H 0 Z"
   id="path1-4" />

</clipPath>
    <clipPath
       id="clipPath2-5">
<path
   d="M 0,8666 H 8666 V 0 H 0 Z"
   id="path2-5" />

</clipPath>
    <clipPath
       id="clipPath3-1">
<path
   d="M 0,8666 H 8666 V 0 H 0 Z"
   id="path3-7" />

</clipPath>
    <clipPath
       id="clipPath4-1">
<path
   d="M 0,8666 H 8666 V 0 H 0 Z"
   id="path4-1" />

</clipPath>
    <linearGradient
       id="_Linear11"
       x1="0"
       y1="0"
       x2="1"
       y2="0"
       gradientUnits="userSpaceOnUse"
       gradientTransform="matrix(0,1.28994,-1.28994,0,95.0498,95.2531)">
      <stop
         offset="0"
         style="stop-color:rgb(115,6,29);stop-opacity:1"
         id="stop7651" />
      <stop
         offset="0.43"
         style="stop-color:rgb(245,105,132);stop-opacity:1"
         id="stop7652" />
      <stop
         offset="1"
         style="stop-color:rgb(115,6,29);stop-opacity:1"
         id="stop7653" />
    </linearGradient>
    <linearGradient
       id="_Linear12"
       x1="0"
       y1="0"
       x2="1"
       y2="0"
       gradientUnits="userSpaceOnUse"
       gradientTransform="matrix(2.64415,0,0,2.64415,117.815,99.7969)">
      <stop
         offset="0"
         style="stop-color:rgb(115,6,29);stop-opacity:1"
         id="stop7654" />
      <stop
         offset="0.43"
         style="stop-color:rgb(245,105,132);stop-opacity:1"
         id="stop7655" />
      <stop
         offset="1"
         style="stop-color:rgb(115,6,29);stop-opacity:1"
         id="stop7656" />
    </linearGradient>
    <linearGradient
       id="_Linear13"
       x1="0"
       y1="0"
       x2="1"
       y2="0"
       gradientUnits="userSpaceOnUse"
       gradientTransform="matrix(0.422885,2.74802,-2.74802,0.422885,40.2253,143.425)">
      <stop
         offset="0"
         style="stop-color:rgb(118,123,129);stop-opacity:1"
         id="stop7657" />
      <stop
         offset="0.73"
         style="stop-color:rgb(234,235,236);stop-opacity:1"
         id="stop7658" />
      <stop
         offset="1"
         style="stop-color:rgb(118,123,129);stop-opacity:1"
         id="stop7659" />
    </linearGradient>
    <linearGradient
       id="_Linear14"
       x1="0"
       y1="0"
       x2="1"
       y2="0"
       gradientUnits="userSpaceOnUse"
       gradientTransform="matrix(0.257353,1.67235,-1.67235,0.257353,42.4539,145.568)">
      <stop
         offset="0"
         style="stop-color:rgb(118,123,129);stop-opacity:1"
         id="stop7660" />
      <stop
         offset="0.73"
         style="stop-color:rgb(234,235,236);stop-opacity:1"
         id="stop7661" />
      <stop
         offset="1"
         style="stop-color:rgb(118,123,129);stop-opacity:1"
         id="stop7662" />
    </linearGradient>
    <clipPath
       id="clipId0-23">
<path
   d="M 0,8666 H 8666 V 0 H 0 Z"
   id="path1-2" />

</clipPath>
    <clipPath
       id="clipPath2-2">
<path
   d="M 0,8666 H 8666 V 0 H 0 Z"
   id="path2-1" />

</clipPath>
    <clipPath
       id="clipPath3-6">
<path
   d="M 0,8666 H 8666 V 0 H 0 Z"
   id="path3-8" />

</clipPath>
    <clipPath
       id="clipPath4-5">
<path
   d="M 0,8666 H 8666 V 0 H 0 Z"
   id="path4-7" />

</clipPath>
    <clipPath
       id="clipId0-3">
<path
   d="M 0,8666 H 8666 V 0 H 0 Z"
   id="path1-1" />

</clipPath>
    <clipPath
       id="clipPath2-23">
<path
   d="M 0,8666 H 8666 V 0 H 0 Z"
   id="path2-3" />

</clipPath>
    <clipPath
       id="clipPath3-4">
<path
   d="M 0,8666 H 8666 V 0 H 0 Z"
   id="path3-1" />

</clipPath>
    <clipPath
       id="clipPath4-13">
<path
   d="M 0,8666 H 8666 V 0 H 0 Z"
   id="path4-8" />

</clipPath>
  </defs>
  <g
     id="find_001"
     transform="translate(-379.9271,-544.1213)">
    <g
       clip-path="url(#clipId0-2)"
       fill="#ffffff"
       stroke="#ffffff"
       stroke-width="0.75"
       id="g6728"
       transform="translate(-4325.2729,-3771.6487)">
<polygon
   points="4706.7,4317.27 4736.7,4317.27 4736.7,4347.27 4706.7,4347.27 "
   id="polygon6727" />

</g>
    <g
       clip-path="url(#clipId0-2)"
       fill="none"
       stroke="#260000"
       stroke-width="0.75"
       id="g6731"
       transform="translate(-4325.2729,-3771.6487)">
<polyline
   points="4706.7,4317.27 4736.7,4317.27 "
   id="polyline6728" />

<polyline
   points="4736.7,4317.27 4736.7,4347.27 "
   id="polyline6729" />

<polyline
   points="4736.7,4347.27 4706.7,4347.27 "
   id="polyline6730" />

<polyline
   points="4706.7,4347.27 4706.7,4317.27 "
   id="polyline6731" />

</g>
    <g
       clip-path="url(#clipId0-2)"
       fill="#130026"
       stroke="#130026"
       stroke-width="3"
       id="g6748"
       transform="translate(-4325.2729,-3771.6487)"
       style="stroke-linejoin:round">
<path
   d="m 4706.7,4347.27 v -30 l 4.5,30 z"
   id="path6731"
   style="stroke-linejoin:round" />

<path
   d="m 4711.2,4326.27 -4.5,-9 h 4.5 z"
   id="path6732"
   style="stroke-linejoin:round" />

<path
   d="m 4711.2,4347.27 v -9 l 12,9 z"
   id="path6733"
   style="stroke-linejoin:round" />

<path
   d="m 4723.2,4347.27 -12,-9 h 12 z"
   id="path6734"
   style="stroke-linejoin:round" />

<path
   d="m 4711.2,4326.27 v -9 l 12,9 z"
   id="path6735"
   style="stroke-linejoin:round" />

<path
   d="m 4723.2,4326.27 -12,-9 h 12 z"
   id="path6736"
   style="stroke-linejoin:round" />

<path
   d="m 4723.2,4338.27 v -6 l 9,15 z"
   id="path6737"
   style="stroke-linejoin:round" />

<path
   d="m 4732.2,4347.27 -9,-15 9,6 z"
   id="path6738"
   style="stroke-linejoin:round" />

<path
   d="m 4723.2,4326.27 v -9 l 9,9 z"
   id="path6739"
   style="stroke-linejoin:round" />

<path
   d="m 4732.2,4326.27 -9,-9 h 9 z"
   id="path6740"
   style="stroke-linejoin:round" />

<path
   d="m 4732.2,4326.27 v -9 l 4.5,30 z"
   id="path6741"
   style="stroke-linejoin:round" />

<path
   d="m 4736.7,4347.27 -4.5,-30 h 4.5 z"
   id="path6742"
   style="stroke-linejoin:round" />

<path
   d="m 4711.2,4347.27 -4.5,-30 4.5,21 z"
   id="path6743"
   style="stroke-linejoin:round" />

<path
   d="m 4711.2,4338.27 -4.5,-21 4.5,9 z"
   id="path6744"
   style="stroke-linejoin:round" />

<path
   d="m 4723.2,4347.27 v -9 l 9,9 z"
   id="path6745"
   style="stroke-linejoin:round" />

<path
   d="m 4723.2,4332.27 v -6 h 9 z"
   id="path6746"
   style="stroke-linejoin:round" />

<path
   d="m 4732.2,4347.27 v -9 l 4.5,9 z"
   id="path6747"
   style="stroke-linejoin:round" />

<path
   d="m 4732.2,4338.27 v -12 l 4.5,21 z"
   id="path6748"
   style="stroke-linejoin:round" />

</g>
    <g
       clip-path="url(#clipId0-2)"
       fill="none"
       stroke="#df7fff"
       stroke-width="0.75"
       id="g6750"
       transform="translate(-4325.2729,-3771.6487)">
<polyline
   points="4711.2,4338.27 4723.2,4338.27 4723.2,4326.27 4711.2,4326.27 4711.2,4338.27 "
   id="polyline6748" />

<polyline
   points="4723.2,4332.27 4732.2,4326.27 4732.2,4338.27 4723.2,4332.27 "
   id="polyline6749" />

<polyline
   points="4706.7,4347.27 4736.7,4347.27 4736.7,4317.27 4706.7,4317.27 4706.7,4347.27 "
   id="polyline6750" />

</g>
  </g>
  <g
     id="replace_001"
     style="clip-rule:evenodd;display:inline;fill-rule:evenodd;stroke-linecap:round;stroke-linejoin:round;stroke-miterlimit:10"
     transform="matrix(0.99995056,0,0,0.99995056,-3124.0262,-1104.9408)">
    <g
       id="MANFROTO-TRIPOD-2"
       serif:id="MANFROTO TRIPOD 2"
       transform="matrix(-0.00540462,-0.43070583,-0.43070583,0.00540462,3189.4543,1169.7473)">
            <path
   id="path33-9-0-7"
   d="m 95.317,85.815 -2.508,2.919 -0.182,7.253 -0.117,5.397 0.378,2.054 c 1.182,1.276 1.171,0 1.628,-3.541 0.239,-1.855 0.497,-3.751 0.551,-5.632 0.053,-1.823 0.299,-3.539 0.535,-5.465 0.086,-0.699 0.172,-1.21 0.164,-1.673 -0.003,-0.171 -0.017,-0.473 0.062,-0.634 0.312,-0.627 0.456,-1.43 -0.511,-0.678 z"
   style="fill:#1e2128;fill-rule:nonzero;stroke:#1a1a1a;stroke-width:0.22px;stroke-linecap:butt;stroke-linejoin:miter;stroke-miterlimit:4" />

            <path
   id="rect25-4-2-2"
   d="m 92.21,103.438 c -0.764,0 -0.936,1.662 -0.936,3.761 0,2.1 0.172,3.818 0.936,3.818 h 3.698 c 0.763,0 0.831,-1.718 0.831,-3.818 0,-2.099 -0.068,-3.761 -0.831,-3.761 z"
   style="fill:#2d3034;fill-rule:nonzero;stroke:#919191;stroke-width:0.14px;stroke-linecap:butt;stroke-linejoin:miter;stroke-miterlimit:4" />

            <path
   id="rect25-4-6-3-1"
   d="m 115.219,103.49 c -0.764,0 -0.936,1.662 -0.936,3.761 0,2.099 0.172,3.818 0.936,3.818 h 3.698 c 0.763,0 0.831,-1.719 0.831,-3.818 0,-2.099 -0.068,-3.761 -0.831,-3.761 z"
   style="fill:#2d3034;fill-rule:nonzero;stroke:#919191;stroke-width:0.14px;stroke-linecap:butt;stroke-linejoin:miter;stroke-miterlimit:4" />

            <path
   id="rect34-3-1-01"
   d="m 120.96,95.059 c 0.343,0 0.62,1.447 0.62,3.245 v 1.941 c 0,1.798 -0.277,3.245 -0.62,3.245 h -3.023 c -0.343,0 -0.238,-1.447 -0.238,-3.245 v -1.941 c 0,-1.798 -0.342,-3.245 0,-3.245 z"
   style="fill:#272b2e;fill-rule:nonzero;stroke:#919191;stroke-width:0.13px;stroke-linecap:butt;stroke-linejoin:miter;stroke-miterlimit:4" />

            <g
   id="rect1-4-2-9-4-9-5"
   transform="matrix(-0.00523112,0.999986,-0.999924,-0.0123683,0,0)">
                <path
   d="m 97.858,-121.437 v 2.93 c 0,0.174 -0.142,0.315 -0.316,0.315 -0.174,0 -0.316,-0.141 -0.316,-0.315 v -2.93 c 0,-0.174 0.142,-0.316 0.316,-0.316 0.174,0 0.316,0.142 0.316,0.316 z"
   id="path6512-2" />

            </g>

            <path
   id="path34-28-8-53"
   d="m 91.196,89.879 -0.262,10.497 1.576,1.008 0.299,-12.65 z"
   style="fill:#481418;fill-rule:nonzero" />

            <path
   id="path36-24-9-7"
   d="m 89.76,84.792 -5.408,2.619 2.618,2.705 6.36,2.059 3.72,-7.282 z"
   style="fill:#151112;fill-rule:nonzero" />

            <path
   id="path36-2-8-6"
   d="m 121.847,89.594 5.393,-4.871 -3.812,-1.197 -6.619,1.377 0.726,8.957 z"
   style="fill:#151112;fill-rule:nonzero" />

            <g
   id="rect1-4-2-9-0-9-87"
   transform="matrix(-0.00523111,0.999986,-0.999924,-0.0123683,0,0)">
                <path
   d="m 96.692,-121.317 v 2.929 c 0,0.175 -0.142,0.316 -0.316,0.316 -0.175,0 -0.316,-0.141 -0.316,-0.316 v -2.929 c 0,-0.174 0.141,-0.316 0.316,-0.316 0.174,0 0.316,0.142 0.316,0.316 z"
   id="path6513-4" />

            </g>

            <g
   id="rect1-4-2-9-4-1-1-3"
   transform="matrix(-0.00523111,0.999986,-0.999924,-0.0123683,0,0)">
                <path
   d="m 99.245,-121.36 v 2.929 c 0,0.174 -0.141,0.316 -0.315,0.316 -0.175,0 -0.316,-0.142 -0.316,-0.316 v -2.929 c 0,-0.175 0.141,-0.316 0.316,-0.316 0.174,0 0.315,0.141 0.315,0.316 z"
   id="path6514-5" />

            </g>

            <g
   id="rect1-4-2-9-4-6-3-8"
   transform="matrix(-0.00523111,0.999986,-0.999924,-0.0123683,0,0)">
                <path
   d="m 101.692,-121.332 v 2.929 c 0,0.174 -0.141,0.316 -0.316,0.316 -0.174,0 -0.315,-0.142 -0.315,-0.316 v -2.929 c 0,-0.175 0.141,-0.316 0.315,-0.316 0.175,0 0.316,0.141 0.316,0.316 z"
   id="path6515-5" />

            </g>

            <g
   id="rect1-4-2-9-5-4"
   transform="matrix(-0.00523112,0.999986,-0.999924,-0.0123683,0,0)">
                <path
   d="m 95.541,-121.275 v 2.929 c 0,0.175 -0.141,0.316 -0.316,0.316 -0.174,0 -0.316,-0.141 -0.316,-0.316 v -2.929 c 0,-0.174 0.142,-0.316 0.316,-0.316 0.175,0 0.316,0.142 0.316,0.316 z"
   id="path6516-1" />

            </g>

            <g
   id="rect1-4-2-9-4-4-1-7"
   transform="matrix(-0.00523112,0.999986,-0.999924,-0.0123683,0,0)">
                <path
   d="m 100.427,-121.36 v 2.929 c 0,0.175 -0.142,0.316 -0.316,0.316 -0.175,0 -0.316,-0.141 -0.316,-0.316 v -2.929 c 0,-0.174 0.141,-0.316 0.316,-0.316 0.174,0 0.316,0.142 0.316,0.316 z"
   id="path6517-7" />

            </g>

            <path
   id="rect26-2-2-5-4-9"
   d="m 93.155,95.253 c -0.417,-0.002 -0.753,0.575 -0.753,1.29 0,0.715 0.336,1.275 0.753,1.29 l 1.755,0.065 c 0.417,0.015 0.14,-0.64 0.14,-1.355 0,-0.715 0.327,-1.277 -0.09,-1.279 z"
   style="fill:url(#_Linear11);fill-rule:nonzero" />

            <path
   id="rect25-4-68-2-4"
   d="m 117.615,91.37 c -0.392,0 -0.48,0.976 -0.48,2.209 0,1.234 0.088,2.243 0.48,2.243 h 1.898 c 0.393,0 0.427,-1.009 0.427,-2.243 0,-1.233 -0.034,-2.209 -0.427,-2.209 z"
   style="fill:#2d3034;fill-rule:nonzero;stroke:#919191;stroke-width:0.08px;stroke-linecap:butt;stroke-linejoin:miter;stroke-miterlimit:4" />

            <g
   id="rect1-93-5-0-6-5-0"
   transform="matrix(-0.00720661,0.999974,-0.99996,-0.00897808,0,0)">
                <path
   d="m 91.078,-120.018 v 1.909 c 0,0.078 -0.063,0.141 -0.141,0.141 -0.078,0 -0.141,-0.063 -0.141,-0.141 v -1.909 c 0,-0.078 0.063,-0.141 0.141,-0.141 0.078,0 0.141,0.063 0.141,0.141 z"
   id="path6518-1" />

            </g>

            <g
   id="rect1-93-5-0-9-3-1"
   transform="matrix(-0.0069267,0.999976,-0.999956,-0.00934087,0,0)">
                <path
   d="m 92.144,-119.963 v 1.823 c 0,0.078 -0.063,0.141 -0.141,0.141 -0.078,0 -0.141,-0.063 -0.141,-0.141 v -1.823 c 0,-0.078 0.063,-0.142 0.141,-0.142 0.078,0 0.141,0.064 0.141,0.142 z"
   id="path6519-1" />

            </g>

            <g
   id="rect1-93-5-0-3-8-3"
   transform="matrix(-0.00696169,0.999976,-0.999957,-0.00929393,0,0)">
                <path
   d="m 91.592,-119.979 v 1.834 c 0,0.078 -0.064,0.141 -0.141,0.141 -0.078,0 -0.141,-0.063 -0.141,-0.141 v -1.834 c 0,-0.078 0.063,-0.141 0.141,-0.141 0.077,0 0.141,0.063 0.141,0.141 z"
   id="path6520-5" />

            </g>

            <g
   id="rect1-93-5-0-92-5"
   transform="matrix(-0.0072416,0.999974,-0.99996,-0.0089347,0,0)">
                <path
   d="m 94.173,-120.184 v 1.919 c 0,0.078 -0.063,0.141 -0.141,0.141 -0.078,0 -0.141,-0.063 -0.141,-0.141 v -1.919 c 0,-0.078 0.063,-0.141 0.141,-0.141 0.078,0 0.141,0.063 0.141,0.141 z"
   id="path6521-2" />

            </g>

            <g
   id="rect1-93-5-0-8-8-7"
   transform="matrix(-0.00703167,0.999975,-0.999958,-0.00920144,0,0)">
                <path
   d="m 93.671,-120.111 v 1.855 c 0,0.078 -0.063,0.141 -0.141,0.141 -0.077,0 -0.141,-0.063 -0.141,-0.141 v -1.855 c 0,-0.078 0.064,-0.141 0.141,-0.141 0.078,0 0.141,0.063 0.141,0.141 z"
   id="path6522-7" />

            </g>

            <g
   id="rect1-93-5-0-1-7-0"
   transform="matrix(-0.00699668,0.999976,-0.999957,-0.00924745,0,0)">
                <path
   d="m 92.711,-120.037 v 1.845 c 0,0.078 -0.063,0.141 -0.141,0.141 -0.078,0 -0.141,-0.063 -0.141,-0.141 v -1.845 c 0,-0.078 0.063,-0.141 0.141,-0.141 0.078,0 0.141,0.063 0.141,0.141 z"
   id="path6523-6" />

            </g>

            <g
   id="rect1-93-5-0-2-0-1"
   transform="matrix(-0.00706665,0.999975,-0.999958,-0.00915588,0,0)">
                <path
   d="m 93.188,-120.078 v 1.866 c 0,0.078 -0.063,0.141 -0.141,0.141 -0.078,0 -0.141,-0.063 -0.141,-0.141 v -1.866 c 0,-0.078 0.063,-0.141 0.141,-0.141 0.078,0 0.141,0.063 0.141,0.141 z"
   id="path6524-1" />

            </g>

            <path
   id="rect26-2-2-1-77"
   d="m 119.74,99.797 c 0.399,-0.002 0.719,0.575 0.719,1.29 0,0.714 -0.321,1.274 -0.719,1.29 l -1.674,0.064 c -0.398,0.016 -0.134,-0.639 -0.134,-1.354 0,-0.715 -0.313,-1.277 0.086,-1.279 z"
   style="fill:url(#_Linear12);fill-rule:nonzero" />

            <path
   id="rect18-6-4-0"
   d="m 101.087,84.385 -0.151,12.435 c -0.191,3.95 0.056,7.846 0.151,11.76 h 10.221 V 84.385 Z"
   style="fill:#343b45;fill-rule:nonzero;stroke:#626262;stroke-width:0.11px;stroke-linecap:butt;stroke-linejoin:miter;stroke-miterlimit:4" />

            <path
   id="rect1-1-5-8-4"
   d="m 96.373,81.918 c -0.097,0 -0.169,0.746 -0.186,0.917 l -2.435,24.858 c -0.016,0.171 -0.125,1.243 0.048,1.233 l 2.529,0.069 0.216,-0.377 4.389,-0.092 c 0.173,-0.003 0.019,-4.855 0.021,-5.027 l -0.032,-0.275 -0.148,-2.717 0.626,-0.01 c 0.172,-0.003 0.233,-0.14 0.249,-0.312 l 0.017,-1.536 0.01,-0.939 c 0.002,-0.172 0.032,-0.327 -0.13,-0.386 l -0.67,0.02 0.06,-4.613 h 0.678 c 0.173,0 0.312,-0.139 0.312,-0.311 v -3.406 c 0,-0.173 -0.139,-0.312 -0.312,-0.312 h -0.635 l 0.07,-6.639 c 0.001,-0.173 -0.358,-0.1 -0.531,-0.103 l -2.537,-0.036 z"
   style="fill:#343b45;fill-rule:nonzero;stroke:#606060;stroke-width:0.12px;stroke-linecap:butt;stroke-linejoin:miter;stroke-miterlimit:4" />

            <path
   id="path5-04-1-1"
   d="m 101.102,84.363 -0.072,3.693 h 0.002 c 0.007,-0.017 -0.009,-0.099 0.003,-0.108 -0.008,0.004 -0.01,0.098 0.003,0.084 0.049,-0.052 0.081,-0.06 0.151,-0.064 0.101,-0.006 0.237,0.015 0.372,0.015 h 0.985 c 0.271,0 0.3,0.219 0.3,0.427 v 5.135 c 0,0.208 -0.218,0.375 -0.489,0.375 h -0.368 c -0.238,0 -0.308,-0.019 -0.554,-0.036 l -0.516,-0.011 -0.048,2.461 c 0,0 0,0 0,0 0.025,-0.009 0.054,-0.015 0.089,-0.016 0.041,-0.003 0.049,-0.007 0.1,-0.004 0.07,0.004 0.185,0.017 0.263,0.017 0.204,-0.002 0.363,-0.002 0.478,10e-4 h 0.502 c 0.268,0 0.483,0.149 0.483,0.335 v 4.578 c 0,0.186 -0.215,0.335 -0.483,0.335 h -0.975 c -0.204,0 -0.383,0.037 -0.457,-0.028 h -0.04 l 0.176,4.698 0.096,2.308 2.802,-0.021 -0.428,-24.174 z"
   style="fill:#353c46;fill-rule:nonzero;stroke:#606060;stroke-width:0.13px;stroke-linecap:butt;stroke-linejoin:miter;stroke-miterlimit:4" />

            <path
   id="rect15-6-9-9-9-9"
   d="m 110.191,86.082 c 0,0.527 -0.427,0.954 -0.954,0.954 h -0.007 c -0.527,0 -0.954,-0.427 -0.954,-0.954 0,-0.526 0.427,-0.954 0.954,-0.954 h 0.007 c 0.527,0 0.954,0.428 0.954,0.954 z"
   style="fill:#343b45;stroke:#606060;stroke-width:0.11px;stroke-linecap:butt;stroke-linejoin:miter;stroke-miterlimit:4" />

            <path
   id="rect1-4-6-3-1"
   d="m 116.183,82.151 -1.735,0.005 -2.735,0.036 c -0.186,0.003 -0.574,-0.069 -0.573,0.103 l 0.062,6.504 h -0.245 c -0.179,0 -0.322,0.139 -0.322,0.311 v 11.342 c 0,0.173 0.143,0.312 0.322,0.312 h 0.358 l 0.05,5.204 c 0.001,0.173 -0.192,2.62 -0.006,2.621 l 3.391,0.124 0.239,0.379 3.013,-0.068 c 0.186,0.001 0.495,-2.899 0.482,-3.071 L 116.688,82.3 c -0.013,-0.172 -0.006,-0.093 -0.109,-0.105 z"
   style="fill:#333a44;fill-rule:nonzero;stroke:#606060;stroke-width:0.11px;stroke-linecap:butt;stroke-linejoin:miter;stroke-miterlimit:4" />

            <path
   id="rect14-4-5-0"
   d="m 111.16,84.354 -1.876,0.015 v 20.891 c 0.143,-0.035 0.3,-0.053 0.465,-0.053 0.645,0 1.153,0.269 1.153,0.798 0,0.529 -0.571,0.83 -1.08,0.851 -0.187,0.008 -0.371,-0.016 -0.538,-0.067 v 1.719 l 2.025,-0.021 -0.041,-6.661 c -0.063,0.1 -0.162,0.166 -0.274,0.166 h -0.558 c -0.192,0 -0.346,-0.189 -0.346,-0.422 V 88.515 c 0,-0.234 0.154,-0.422 0.346,-0.422 h 0.558 c 0.07,0 0.135,0.025 0.189,0.069 z"
   style="fill:#333a44;fill-rule:nonzero;stroke:#606060;stroke-width:0.1px;stroke-linecap:butt;stroke-linejoin:miter;stroke-miterlimit:4" />

            <path
   id="rect15-6-8-9-06"
   d="m 109.777,86.082 c 0,0.299 -0.243,0.541 -0.541,0.541 h -0.004 c -0.299,0 -0.542,-0.242 -0.542,-0.541 0,-0.298 0.243,-0.541 0.542,-0.541 h 0.004 c 0.298,0 0.541,0.243 0.541,0.541 z"
   style="fill:#343b45;stroke:#606060;stroke-width:0.06px;stroke-linecap:butt;stroke-linejoin:miter;stroke-miterlimit:4" />

            <path
   id="rect15-6-7-0-7-3"
   d="m 102.16,103.517 c -0.667,-0.007 -1.257,-0.161 -1.252,0.181 l 0.037,2.382 c 0.002,0.157 0.015,0.209 0.682,0.211 l 1.893,0.007 c 0.667,0.002 1.241,0.035 1.239,-0.307 l -0.006,-1.842 c -0.002,-0.791 -0.536,-0.611 -1.203,-0.618 z"
   style="fill:#343b45;fill-rule:nonzero;stroke:#606060;stroke-width:0.12px;stroke-linecap:butt;stroke-linejoin:miter;stroke-miterlimit:4" />

            <path
   id="rect19-4-4-9-8"
   d="m 103.049,103.786 v 2.243 c 0,0.137 -0.112,0.248 -0.248,0.248 -0.137,0 -0.248,-0.111 -0.248,-0.248 v -2.243 c 0,-0.136 0.111,-0.247 0.248,-0.247 0.136,0 0.248,0.111 0.248,0.247 z"
   style="fill:#1a1e24" />

            <g
   id="rect44-2-1-8-30"
   transform="rotate(-30.000012)">
                <path
   d="m 40.797,145.517 v 0.097 c 0,0.484 -0.392,0.877 -0.876,0.877 -0.484,0 -0.877,-0.393 -0.877,-0.877 v -0.097 c 0,-0.484 0.393,-0.876 0.877,-0.876 0.484,0 0.876,0.392 0.876,0.876 z"
   style="fill:url(#_Linear13)"
   id="path6525-4" />

            </g>

            <g
   id="rect44-9-5-8-0-2"
   transform="rotate(-30.000012)">
                <path
   d="m 40.714,145.452 v 0.029 c 0,0.451 -0.367,0.817 -0.818,0.817 -0.451,0 -0.817,-0.366 -0.817,-0.817 v -0.029 c 0,-0.451 0.366,-0.818 0.817,-0.818 0.451,0 0.818,0.367 0.818,0.818 z"
   style="fill:#1a1a1a"
   id="path6526-2" />

            </g>

            <g
   id="rect44-2-4-4-1-5"
   transform="rotate(-30.000012)">
                <path
   d="m 42.802,146.842 v 0.058 c 0,0.295 -0.239,0.534 -0.534,0.534 -0.294,0 -0.533,-0.239 -0.533,-0.534 v -0.058 c 0,-0.295 0.239,-0.534 0.533,-0.534 0.295,0 0.534,0.239 0.534,0.534 z"
   style="fill:url(#_Linear14)"
   id="path6527-3" />

            </g>

            <g
   id="rect44-9-5-4-0-4-15"
   transform="rotate(-30.000012)">
                <path
   d="m 42.751,146.802 v 0.017 c 0,0.275 -0.223,0.498 -0.497,0.498 -0.275,0 -0.498,-0.223 -0.498,-0.498 v -0.017 c 0,-0.275 0.223,-0.498 0.498,-0.498 0.274,0 0.497,0.223 0.497,0.498 z"
   style="fill:#1a1a1a"
   id="path6528-2" />

            </g>

            <path
   id="rect20-8-7-6"
   d="m 107.777,91.498 v 2.609 c 0,0.323 -0.262,0.585 -0.585,0.585 -0.323,0 -0.585,-0.262 -0.585,-0.585 v -2.609 c 0,-0.323 0.262,-0.585 0.585,-0.585 0.323,0 0.585,0.262 0.585,0.585 z"
   style="fill:#1a1a1a" />

            <g
   id="g30-0-5-8"
   transform="rotate(-120.00001,104.37389,96.159735)">
                <g
   id="rect26-51-5-4"
   transform="matrix(-0.566138,0.824311,-0.77896,-0.627074,0,0)">
                    <path
   d="m -39.711,-164.01 c 0,0.339 -0.274,0.613 -0.611,0.613 h -0.066 c -0.337,0 -0.611,-0.274 -0.611,-0.613 0,-0.338 0.274,-0.613 0.611,-0.613 h 0.066 c 0.337,0 0.611,0.275 0.611,0.613 z"
   style="fill:#151112"
   id="path6529-2" />

                </g>

                <path
   id="path27-1-5-1"
   d="m 150.41,69.225 -3.545,1.714 -0.263,0.125 -29.285,13.727 c 0,0 1.766,1.204 1.973,2.021 0.206,0.817 0.492,4.879 0.492,4.879 l 22.446,-16.603 8.461,-5.059 0.157,-0.473 z"
   style="fill:#494844;fill-rule:nonzero" />

                <path
   id="path28-5-0-3"
   d="m 146.579,73.076 c 0.086,-0.021 0.257,-0.134 0.471,-0.205 0.192,-0.063 0.391,-0.138 0.493,-0.249 0.386,-0.425 0.191,-0.659 0.078,-1.009 -0.246,-0.758 -0.725,-0.784 -1.293,-0.47 -0.116,0.065 -0.534,0.257 -0.549,0.307 -0.056,0.193 0.88,-0.538 1.075,0.065 0.161,0.497 0.246,0.473 0.175,0.594 -0.022,0.036 -0.044,0.073 -0.136,0.14 -0.038,0.027 -0.234,0.176 -0.435,0.31 -0.106,0.071 -0.258,0.154 -0.308,0.184 l -0.249,0.149 c -0.027,0.016 0.119,0.013 0.147,0.054 0.014,0.02 0.031,0.045 0.06,0.059 0.135,0.068 0.313,0.11 0.471,0.071 z"
   style="fill:#151112;fill-rule:nonzero" />

                <path
   id="path29-9-9-3"
   d="m 133.416,83.63 c 0.291,-0.071 0.869,-0.453 1.593,-0.692 0.649,-0.214 1.321,-0.467 1.664,-0.845 1.304,-1.432 0.646,-2.225 0.264,-3.406 -0.829,-2.56 -2.447,-2.65 -4.365,-1.587 -0.392,0.217 -1.798,1.225 -1.847,1.393 -0.19,0.655 2.963,-2.173 3.623,-0.136 0.543,1.678 0.829,1.596 0.59,2.004 -0.073,0.124 -0.147,0.248 -0.46,0.473 -0.196,0.141 -1.986,1.333 -2.465,1.647 -0.738,0.484 -1.22,1.079 -0.926,0.886 0.021,-0.013 0.143,-0.046 0.208,-0.044 0.06,0.003 0.144,0.04 0.217,0.145 0.046,0.067 0.164,0.113 0.262,0.162 0.455,0.229 1.111,0.13 1.642,0 z"
   style="fill:#151112;fill-rule:nonzero" />

                <path
   id="path30-0-2-8"
   d="m 140.749,77.041 c 0.147,-0.035 0.438,-0.228 0.804,-0.349 0.327,-0.108 0.666,-0.235 0.839,-0.426 0.657,-0.722 0.325,-1.122 0.133,-1.717 -0.418,-1.291 -1.234,-1.337 -2.201,-0.801 -0.198,0.11 -0.939,0.626 -0.964,0.71 -0.077,0.266 0.976,-0.58 1.545,-0.418 0.137,0.039 0.249,0.142 0.314,0.342 0.274,0.846 0.418,0.805 0.298,1.011 -0.037,0.062 -0.074,0.125 -0.232,0.238 -0.099,0.072 -0.863,0.829 -1.108,0.982 l -0.331,0.206 c -0.045,0.028 -0.048,-0.069 0,0 0.023,0.034 0.052,0.076 0.102,0.101 0.229,0.115 0.533,0.187 0.801,0.121 z"
   style="fill:#151112;fill-rule:nonzero" />

            </g>

            <path
   id="rect34-5-8-6"
   d="m 92.245,89.512 c -0.177,0 -0.32,0.843 -0.32,1.891 v 1.131 c 0,1.047 0.143,1.891 0.32,1.891 l 1.56,-10e-4 c 0.178,0 0.123,-0.843 0.123,-1.89 v -1.131 c 0,-1.048 0.177,-1.891 0,-1.891 z"
   style="fill:#272b2e;fill-rule:nonzero;stroke:#919191;stroke-width:0.07px;stroke-linecap:butt;stroke-linejoin:miter;stroke-miterlimit:4" />

            <g
   id="rect1-93-4-2-7"
   transform="matrix(-0.00510727,0.999987,-0.99992,-0.0126682,0,0)">
                <path
   d="m 88.909,-94.309 v 1.27 c 0,0.078 -0.063,0.141 -0.141,0.141 -0.078,0 -0.141,-0.063 -0.141,-0.141 v -1.27 c 0,-0.078 0.063,-0.141 0.141,-0.141 0.078,0 0.141,0.063 0.141,0.141 z"
   id="path6530-1" />

            </g>

            <g
   id="rect1-93-75-4-8"
   transform="matrix(-0.00510727,0.999987,-0.99992,-0.0126682,0,0)">
                <path
   d="m 89.363,-94.3 v 1.27 c 0,0.078 -0.063,0.142 -0.141,0.142 -0.078,0 -0.141,-0.064 -0.141,-0.142 v -1.27 c 0,-0.078 0.063,-0.141 0.141,-0.141 0.078,0 0.141,0.063 0.141,0.141 z"
   id="path6531-6" />

            </g>

            <g
   id="rect1-93-9-5-2"
   transform="matrix(-0.00510727,0.999987,-0.99992,-0.0126682,0,0)">
                <path
   d="m 89.862,-94.292 v 1.271 c 0,0.078 -0.063,0.141 -0.141,0.141 -0.078,0 -0.141,-0.063 -0.141,-0.141 v -1.271 c 0,-0.078 0.063,-0.141 0.141,-0.141 0.078,0 0.141,0.063 0.141,0.141 z"
   id="path6532-8" />

            </g>

            <g
   id="rect1-93-5-04-8"
   transform="matrix(-0.00510727,0.999987,-0.99992,-0.0126682,0,0)">
                <path
   d="m 90.8,-94.266 v 1.27 c 0,0.078 -0.063,0.141 -0.141,0.141 -0.078,0 -0.141,-0.063 -0.141,-0.141 v -1.27 c 0,-0.078 0.063,-0.142 0.141,-0.142 0.078,0 0.141,0.064 0.141,0.142 z"
   id="path6533-5" />

            </g>

            <g
   id="rect1-93-3-4-2"
   transform="matrix(-0.00510727,0.999987,-0.99992,-0.0126682,0,0)">
                <path
   d="m 90.339,-94.279 v 1.27 c 0,0.078 -0.064,0.141 -0.141,0.141 -0.078,0 -0.141,-0.063 -0.141,-0.141 v -1.27 c 0,-0.078 0.063,-0.141 0.141,-0.141 0.077,0 0.141,0.063 0.141,0.141 z"
   id="path6534-7" />

            </g>

            <path
   id="rect34-83-0-4"
   d="m 87.599,89.879 c -0.378,0 -0.683,1.802 -0.683,4.04 v 2.417 c 0,2.238 0.305,4.04 0.683,4.04 h 3.335 c 0.378,-0.001 0.262,-1.802 0.262,-4.04 v -2.417 c 0,-2.238 0.378,-4.04 0,-4.04 z"
   style="fill:#272b2e;fill-rule:nonzero;stroke:#919191;stroke-width:0.15px;stroke-linecap:butt;stroke-linejoin:miter;stroke-miterlimit:4" />

            <g
   id="rect1-4-2-5-4"
   transform="matrix(-0.00523112,0.999986,-0.999924,-0.0123683,0,0)">
                <path
   d="m 90.286,-91.456 v 2.929 c 0,0.175 -0.141,0.316 -0.316,0.316 -0.174,0 -0.316,-0.141 -0.316,-0.316 v -2.929 c 0,-0.174 0.142,-0.316 0.316,-0.316 0.175,0 0.316,0.142 0.316,0.316 z"
   id="path6535-6" />

            </g>

            <g
   id="rect1-4-13-1-6"
   transform="matrix(-0.00523112,0.999986,-0.999924,-0.0123683,0,0)">
                <path
   d="m 91.3,-91.413 v 2.929 c 0,0.175 -0.142,0.316 -0.316,0.316 -0.175,0 -0.316,-0.141 -0.316,-0.316 v -2.929 c 0,-0.174 0.141,-0.316 0.316,-0.316 0.174,0 0.316,0.142 0.316,0.316 z"
   id="path6536" />

            </g>

            <g
   id="rect1-4-7-1-9"
   transform="matrix(-0.00523112,0.999986,-0.999924,-0.0123683,0,0)">
                <path
   d="m 92.297,-91.407 v 2.929 c 0,0.174 -0.142,0.316 -0.316,0.316 -0.174,0 -0.316,-0.142 -0.316,-0.316 v -2.929 c 0,-0.175 0.142,-0.316 0.316,-0.316 0.174,0 0.316,0.141 0.316,0.316 z"
   id="path6537" />

            </g>

            <g
   id="g23-8-5-8">
                <g
   id="rect39-6-9-7"
   transform="matrix(-0.566138,0.824311,-0.77896,-0.627074,0,0)">
                    <path
   d="m -39.711,-164.01 c 0,0.339 -0.274,0.613 -0.611,0.613 h -0.066 c -0.337,0 -0.611,-0.274 -0.611,-0.613 0,-0.338 0.274,-0.613 0.611,-0.613 h 0.066 c 0.337,0 0.611,0.275 0.611,0.613 z"
   style="fill:#151112"
   id="path6538" />

                </g>

                <path
   id="path35-2-0-0"
   d="m 150.41,69.225 -3.545,1.714 -0.263,0.125 -29.285,13.727 c 0,0 1.766,1.204 1.973,2.021 0.206,0.817 0.492,4.879 0.492,4.879 l 22.446,-16.603 8.461,-5.059 0.157,-0.473 z"
   style="fill:#494844;fill-rule:nonzero" />

                <path
   id="rect38-6-7-1-8-1"
   d="m 146.579,73.076 c 0.086,-0.021 0.257,-0.134 0.471,-0.205 0.192,-0.063 0.391,-0.138 0.493,-0.249 0.386,-0.425 0.191,-0.659 0.078,-1.009 -0.246,-0.758 -0.725,-0.784 -1.293,-0.47 -0.116,0.065 -0.534,0.257 -0.549,0.307 -0.056,0.193 0.88,-0.538 1.075,0.065 0.161,0.497 0.246,0.473 0.175,0.594 -0.022,0.036 -0.044,0.073 -0.136,0.14 -0.038,0.027 -0.234,0.176 -0.435,0.31 -0.106,0.071 -0.258,0.154 -0.308,0.184 l -0.249,0.149 c -0.027,0.016 0.119,0.013 0.147,0.054 0.014,0.02 0.031,0.045 0.06,0.059 0.135,0.068 0.313,0.11 0.471,0.071 z"
   style="fill:#151112;fill-rule:nonzero" />

                <path
   id="rect38-2-3-6"
   d="m 133.416,83.63 c 0.291,-0.071 0.869,-0.453 1.593,-0.692 0.649,-0.214 1.321,-0.467 1.664,-0.845 1.304,-1.432 0.646,-2.225 0.264,-3.406 -0.829,-2.56 -2.447,-2.65 -4.365,-1.587 -0.392,0.217 -1.798,1.225 -1.847,1.393 -0.19,0.655 2.963,-2.173 3.623,-0.136 0.543,1.678 0.829,1.596 0.59,2.004 -0.073,0.124 -0.147,0.248 -0.46,0.473 -0.196,0.141 -1.986,1.333 -2.465,1.647 -0.738,0.484 -1.22,1.079 -0.926,0.886 0.021,-0.013 0.143,-0.046 0.208,-0.044 0.06,0.003 0.144,0.04 0.217,0.145 0.046,0.067 0.164,0.113 0.262,0.162 0.455,0.229 1.111,0.13 1.642,0 z"
   style="fill:#151112;fill-rule:nonzero" />

                <path
   id="rect38-6-9-8-2"
   d="m 140.749,77.041 c 0.147,-0.035 0.438,-0.228 0.804,-0.349 0.327,-0.108 0.666,-0.235 0.839,-0.426 0.657,-0.722 0.325,-1.122 0.133,-1.717 -0.418,-1.291 -1.234,-1.337 -2.201,-0.801 -0.198,0.11 -0.939,0.626 -0.964,0.71 -0.077,0.266 0.976,-0.58 1.545,-0.418 0.137,0.039 0.249,0.142 0.314,0.342 0.274,0.846 0.418,0.805 0.298,1.011 -0.037,0.062 -0.074,0.125 -0.232,0.238 -0.099,0.072 -0.863,0.829 -1.108,0.982 l -0.331,0.206 c -0.045,0.028 -0.048,-0.069 0,0 0.023,0.034 0.052,0.076 0.102,0.101 0.229,0.115 0.533,0.187 0.801,0.121 z"
   style="fill:#151112;fill-rule:nonzero" />

            </g>

            <g
   id="rect1-72-7-6"
   transform="matrix(-0.00523112,0.999986,-0.999924,-0.0123683,0,0)">
                <path
   d="m 98.018,-91.414 v 2.929 c 0,0.174 -0.142,0.316 -0.316,0.316 -0.174,0 -0.316,-0.142 -0.316,-0.316 v -2.929 c 0,-0.175 0.142,-0.316 0.316,-0.316 0.174,0 0.316,0.141 0.316,0.316 z"
   id="path6539" />

            </g>

            <g
   id="rect1-6-6-2-4"
   transform="matrix(-0.00523112,0.999986,-0.999924,-0.0123683,0,0)">
                <path
   d="m 96.816,-91.394 v 2.929 c 0,0.174 -0.142,0.316 -0.316,0.316 -0.174,0 -0.316,-0.142 -0.316,-0.316 v -2.929 c 0,-0.175 0.142,-0.316 0.316,-0.316 0.174,0 0.316,0.141 0.316,0.316 z"
   id="path6540" />

            </g>

            <g
   id="rect1-9-6-4"
   transform="matrix(-0.00523112,0.999986,-0.999924,-0.0123683,0,0)">
                <path
   d="m 95.695,-91.393 v 2.929 c 0,0.174 -0.141,0.316 -0.316,0.316 -0.174,0 -0.316,-0.142 -0.316,-0.316 v -2.929 c 0,-0.175 0.142,-0.316 0.316,-0.316 0.175,0 0.316,0.141 0.316,0.316 z"
   id="path6541" />

            </g>

            <g
   id="rect1-4-9-9-5"
   transform="matrix(-0.00523112,0.999986,-0.999924,-0.0123683,0,0)">
                <path
   d="m 94.63,-91.367 v 2.929 c 0,0.174 -0.141,0.316 -0.315,0.316 -0.175,0 -0.316,-0.142 -0.316,-0.316 v -2.929 c 0,-0.175 0.141,-0.316 0.316,-0.316 0.174,0 0.315,0.141 0.315,0.316 z"
   id="path6542" />

            </g>

            <g
   id="rect1-4-1-3-2"
   transform="matrix(-0.00523112,0.999986,-0.999924,-0.0123683,0,0)">
                <path
   d="m 93.491,-91.4 v 2.929 c 0,0.175 -0.142,0.316 -0.316,0.316 -0.175,0 -0.316,-0.141 -0.316,-0.316 V -91.4 c 0,-0.174 0.141,-0.316 0.316,-0.316 0.174,0 0.316,0.142 0.316,0.316 z"
   id="path6543" />

            </g>

            <g
   id="g9214-3-8-9"
   transform="matrix(0.262916,0,0,0.262916,243.754,103.703)">
                <circle
   id="path9153-9-1-8"
   cx="-553.14697"
   cy="-66.102997"
   r="4.3179998"
   style="fill:#5f5f5f" />

                <path
   id="path9207-7-0-41"
   d="m -553.981,-69.758 v 1.973 l -0.143,0.202 -1.644,0.176 0.693,1.501 -0.67,1.512 1.646,0.151 0.118,0.162 v 1.632 h 1.502 v -1.372 l 0.308,-0.436 1.644,-0.177 -0.692,-1.501 0.669,-1.511 -1.646,-0.151 -0.283,-0.389 v -1.772 z"
   style="fill:#252525" />

            </g>

            <g
   id="g9214-3-6-3-6"
   transform="matrix(0.262916,0,0,0.262916,259.233,103.548)">
                <circle
   id="path9153-9-2-3-5"
   cx="-553.14697"
   cy="-66.102997"
   r="4.3179998"
   style="fill:#5f5f5f" />

                <path
   id="path9207-7-7-8-8"
   d="m -553.981,-69.758 v 1.973 l -0.143,0.202 -1.644,0.176 0.693,1.501 -0.67,1.512 1.646,0.151 0.118,0.162 v 1.632 h 1.502 v -1.372 l 0.308,-0.436 1.644,-0.177 -0.692,-1.501 0.669,-1.511 -1.646,-0.151 -0.283,-0.389 v -1.772 z"
   style="fill:#252525" />

            </g>

            <g
   id="g9214-3-6-2-4-90"
   transform="matrix(0.262916,0,0,0.262916,243.089,122.216)">
                <circle
   id="path9153-9-2-1-8-3"
   cx="-553.14697"
   cy="-66.102997"
   r="4.3179998"
   style="fill:#5f5f5f" />

                <path
   id="path9207-7-7-1-0-8"
   d="m -553.981,-69.758 v 1.973 l -0.143,0.202 -1.644,0.176 0.693,1.501 -0.67,1.512 1.646,0.151 0.118,0.162 v 1.632 h 1.502 v -1.372 l 0.308,-0.436 1.644,-0.177 -0.692,-1.501 0.669,-1.511 -1.646,-0.151 -0.283,-0.389 v -1.772 z"
   style="fill:#252525" />

            </g>

            <g
   id="g9214-3-6-1-1-5"
   transform="matrix(0.262916,0,0,0.262916,260.762,122.23)">
                <circle
   id="path9153-9-2-2-5-5"
   cx="-553.14697"
   cy="-66.102997"
   r="4.3179998"
   style="fill:#5f5f5f" />

                <path
   id="path9207-7-7-2-4-2"
   d="m -553.981,-69.758 v 1.973 l -0.143,0.202 -1.644,0.176 0.693,1.501 -0.67,1.512 1.646,0.151 0.118,0.162 v 1.632 h 1.502 v -1.372 l 0.308,-0.436 1.644,-0.177 -0.692,-1.501 0.669,-1.511 -1.646,-0.151 -0.283,-0.389 v -1.772 z"
   style="fill:#252525" />

            </g>

            <g
   id="g17-38-1-4">
                <rect
   id="rect16-1-3-2"
   x="100.928"
   y="108.406"
   width="0.186"
   height="0.18799999"
   style="fill:#606060" />

                <rect
   id="rect17-03-7-4"
   x="100.803"
   y="108.569"
   width="0.15700001"
   height="0.02"
   style="fill:#606060" />

            </g>

            <rect
   id="rect18-3-3-5"
   x="100.795"
   y="108.587"
   width="0.35800001"
   height="0.012"
   style="fill:#201f22" />

            <path
   id="path20-84-5-0"
   d="m 99.625,108.588 -0.052,0.024 0.144,0.336 0.164,-0.078 -0.122,-0.282 z"
   style="fill:#201f22;fill-rule:nonzero" />

            <g
   id="rect22-80-8-3"
   transform="matrix(0.766201,-0.642601,0.486411,0.87373,0,0)">
                <path
   d="m 34.405,156.339 v 0.258 c 0,0.004 -0.003,0.008 -0.008,0.008 -0.004,0 -0.007,-0.004 -0.007,-0.008 v -0.258 c 0,-0.004 0.003,-0.008 0.007,-0.008 0.005,0 0.008,0.004 0.008,0.008 z"
   style="fill:#494844"
   id="path6544" />

            </g>

            <g
   id="g26-1-5-4"
   transform="rotate(120.00001,104.83552,96.506123)">
                <g
   id="rect23-5-6-2"
   transform="matrix(-0.566138,0.824311,-0.77896,-0.627074,0,0)">
                    <path
   d="m -39.711,-164.01 c 0,0.339 -0.274,0.613 -0.611,0.613 h -0.066 c -0.337,0 -0.611,-0.274 -0.611,-0.613 0,-0.338 0.274,-0.613 0.611,-0.613 h 0.066 c 0.337,0 0.611,0.275 0.611,0.613 z"
   style="fill:#151112"
   id="path6545-1" />

                </g>

                <path
   id="path23-41-9-4"
   d="m 150.41,69.225 -3.545,1.714 -0.263,0.125 -29.285,13.727 c 0,0 1.766,1.204 1.973,2.021 0.206,0.817 0.492,4.879 0.492,4.879 l 22.446,-16.603 8.461,-5.059 0.157,-0.473 z"
   style="fill:#494844;fill-rule:nonzero" />

                <path
   id="path24-0-1"
   d="m 146.579,73.076 c 0.086,-0.021 0.257,-0.134 0.471,-0.205 0.192,-0.063 0.391,-0.138 0.493,-0.249 0.386,-0.425 0.191,-0.659 0.078,-1.009 -0.246,-0.758 -0.725,-0.784 -1.293,-0.47 -0.116,0.065 -0.534,0.257 -0.549,0.307 -0.056,0.193 0.88,-0.538 1.075,0.065 0.161,0.497 0.246,0.473 0.175,0.594 -0.022,0.036 -0.044,0.073 -0.136,0.14 -0.038,0.027 -0.234,0.176 -0.435,0.31 -0.106,0.071 -0.258,0.154 -0.308,0.184 l -0.249,0.149 c -0.027,0.016 0.119,0.013 0.147,0.054 0.014,0.02 0.031,0.045 0.06,0.059 0.135,0.068 0.313,0.11 0.471,0.071 z"
   style="fill:#151112;fill-rule:nonzero" />

                <path
   id="path25-3-8-8"
   d="m 133.416,83.63 c 0.291,-0.071 0.869,-0.453 1.593,-0.692 0.649,-0.214 1.321,-0.467 1.664,-0.845 1.304,-1.432 0.646,-2.225 0.264,-3.406 -0.829,-2.56 -2.447,-2.65 -4.365,-1.587 -0.392,0.217 -1.798,1.225 -1.847,1.393 -0.19,0.655 2.963,-2.173 3.623,-0.136 0.543,1.678 0.829,1.596 0.59,2.004 -0.073,0.124 -0.147,0.248 -0.46,0.473 -0.196,0.141 -1.986,1.333 -2.465,1.647 -0.738,0.484 -1.22,1.079 -0.926,0.886 0.021,-0.013 0.143,-0.046 0.208,-0.044 0.06,0.003 0.144,0.04 0.217,0.145 0.046,0.067 0.164,0.113 0.262,0.162 0.455,0.229 1.111,0.13 1.642,0 z"
   style="fill:#151112;fill-rule:nonzero" />

                <path
   id="path26-7-9-0"
   d="m 140.749,77.041 c 0.147,-0.035 0.438,-0.228 0.804,-0.349 0.327,-0.108 0.666,-0.235 0.839,-0.426 0.657,-0.722 0.325,-1.122 0.133,-1.717 -0.418,-1.291 -1.234,-1.337 -2.201,-0.801 -0.198,0.11 -0.939,0.626 -0.964,0.71 -0.077,0.266 0.976,-0.58 1.545,-0.418 0.137,0.039 0.249,0.142 0.314,0.342 0.274,0.846 0.418,0.805 0.298,1.011 -0.037,0.062 -0.074,0.125 -0.232,0.238 -0.099,0.072 -0.863,0.829 -1.108,0.982 l -0.331,0.206 c -0.045,0.028 -0.048,-0.069 0,0 0.023,0.034 0.052,0.076 0.102,0.101 0.229,0.115 0.533,0.187 0.801,0.121 z"
   style="fill:#151112;fill-rule:nonzero" />

            </g>

            <g
   id="g22-3-3-4">
                <g
   id="g15-58-6-1"
   transform="matrix(0.630727,0,0,0.686484,38.7251,29.1922)">
                    <g
   id="g14-5-0-1"
   transform="translate(-285.449,-20.5482)">
                        <g
   id="rect2-69-6-2"
   transform="rotate(-27.897027)">
                            <path
   d="m 273.84,299.495 c -0.052,0.055 -0.083,0.128 -0.083,0.209 l -0.001,9.343 c 0,0.17 0.137,0.306 0.306,0.306 h 5.976 c 0.17,0 0.306,-0.136 0.306,-0.306 v -6.109 z"
   style="fill:#201f22;fill-rule:nonzero"
   id="path6546-8" />

                        </g>

                        <rect
   id="rect5-08-9-3"
   x="382.147"
   y="136.203"
   width="10.546"
   height="0.433"
   style="fill:#201f22" />

                        <rect
   id="rect8-93-7-6"
   x="389.19901"
   y="136.51401"
   width="4.1149998"
   height="2.4590001"
   style="fill:#201f22" />

                        <path
   id="path9-60-8-0"
   d="m 400.367,136.218 c 0.022,0.072 0.015,0.152 -0.027,0.223 l -4.887,8.258 c -0.089,0.15 -0.295,0.206 -0.462,0.127 l -5.905,-2.796 c -0.167,-0.079 -0.23,-0.263 -0.142,-0.413 l 3.195,-5.399 z"
   style="fill:#201f22;fill-rule:nonzero" />

                        <ellipse
   id="path10-6-9-1"
   cx="391.061"
   cy="145.8"
   rx="3.661"
   ry="2.744"
   style="fill:#201f22" />

                        <g
   id="rect11-9-4-59"
   transform="rotate(-34.002836)">
                            <rect
   x="239.34"
   y="336.16199"
   width="1.229"
   height="1.8890001"
   style="fill:#201f22"
   id="rect6546" />

                        </g>

                        <g
   id="rect12-78-1-84"
   transform="rotate(-149.4957)">
                            <rect
   x="-414.133"
   y="74.648003"
   width="1.229"
   height="1.8890001"
   style="fill:#201f22"
   id="rect6547" />

                        </g>

                        <g
   id="rect14-94-5-7"
   transform="rotate(29.258531)">
                            <rect
   x="415.40799"
   y="-69.348"
   width="0.403"
   height="4.0809999"
   style="fill:#201f22"
   id="rect6548" />

                        </g>

                    </g>

                    <rect
   id="rect15-15-6-3"
   x="104.967"
   y="122.125"
   width="1.346"
   height="0.67299998"
   style="fill:#201f22" />

                </g>

                <g
   id="rect20-6-6-9"
   transform="matrix(0.897125,-0.441777,0.490587,0.871392,0,0)">
                    <rect
   x="33.145"
   y="147.786"
   width="0.075000003"
   height="1.785"
   style="fill:#201f22"
   id="rect6549" />

                </g>

            </g>

            <g
   id="path32-6-6-6"
   transform="matrix(0.705509,-0.708701,0.660515,0.750813,0,0)">
                <ellipse
   cx="10.686"
   cy="126.377"
   rx="2.9960001"
   ry="1.7"
   style="fill:#151112"
   id="ellipse6549" />

            </g>

        </g>
    <g
       id="AW-HE120-PTZ-CAMERA"
       serif:id="AW-HE120 PTZ CAMERA"
       transform="matrix(0.30732222,0,0,0.30732222,2572.5185,1432.8161)">
            <g
   id="g43-6-6"
   transform="matrix(0.661124,0,0,0.661124,1849.75,-1115.28)">
                <rect
   id="rect42-29-0"
   x="13.385"
   y="146.21001"
   width="33.255001"
   height="41.299999"
   style="fill:#313434" />

                <ellipse
   id="path42-32-4"
   cx="13.385"
   cy="166.85899"
   rx="5.8930001"
   ry="20.649"
   style="fill:#313434" />

            </g>

            <rect
   id="rect44-56-9"
   x="1869.33"
   y="-994.91302"
   width="19.882999"
   height="2.582"
   style="fill:#050707" />

            <ellipse
   id="path30-35-1"
   cx="1876.24"
   cy="-1013.34"
   rx="10.15"
   ry="6.2620001"
   style="fill:#434645" />

            <path
   id="path48-7-8"
   d="m 1896.86,-1016.06 c -2.97,0 -5.37,4.97 -5.37,11.09 0,5.559 2.18,10.267 4.84,11.002 0.27,0 0.65,-0.01 1.24,-0.01 2.67,-0.738 4.65,-5.434 4.65,-10.992 0,-6.9 -2.92,-10.74 -5.13,-11.09 0,0 -0.13,0 -0.23,0 z"
   style="fill:#878c8c;fill-rule:nonzero" />

            <ellipse
   id="path28-2-7"
   cx="1876.78"
   cy="-1011.98"
   rx="8.3640003"
   ry="5.5349998"
   style="fill:#2c2c2c" />

            <path
   id="path27-8-3"
   d="m 1862.38,-1008.49 c 0,0 -0.42,1.29 -0.45,2.63 -0.04,1.35 -0.06,2.11 0.08,2.89 0.14,0.78 0.56,1.91 0.56,1.91 l 4.71,-4.59 z"
   style="fill:#545452;fill-rule:nonzero" />

            <path
   id="path26-5-2"
   d="m 1862.92,-1013.22 c 0,0.02 -0.24,0.76 -0.46,3.62 -0.23,2.87 -0.28,4.89 -0.24,5.43 0.03,0.54 0.12,2.29 0.26,3.16 0.13,0.88 0.68,4.137 0.68,4.137 l 1.16,0.373 c 0,0 4.3,-8.11 4.52,-8.45 0.21,-0.34 -3.16,-7.57 -3.16,-7.57 z"
   style="fill:#3a3c3c;fill-rule:nonzero" />

            <rect
   id="rect23-48-7"
   x="1864.64"
   y="-995.578"
   width="11.248"
   height="1.546"
   style="fill:#1b1d1c" />

            <path
   id="path25-9-6"
   d="m 1864.64,-1015.98 -1.72,2.75 c 0,0 -0.17,2.36 -0.1,6.15 0.06,3.79 0.34,10.209 0.34,10.209 l 1.47,2.828 1.71,-1.418 -0.49,-18.449 c -0.41,-0.69 4.45,-1.75 -1.21,-2.07 z"
   style="fill:#242728;fill-rule:nonzero" />

            <path
   id="path17-5-3"
   d="m 1896.35,-995.281 c 0.52,-0.16 0.75,-0.435 1.06,-0.722 0.36,-0.34 0.51,-0.63 0.86,-1.279 0.3,-0.544 0.51,-1.105 0.49,-1.138 -0.03,-0.065 -2.71,0.232 -2.71,0.314 0,0.082 -0.75,1.071 -0.75,1.071 0,0 0.68,0.771 0.7,0.853 0.02,0.082 0.07,0.809 0.07,0.809 z"
   style="fill:#3a3c3c;fill-rule:nonzero" />

            <rect
   id="rect8-28-5"
   x="1900.53"
   y="-1005.14"
   width="0.050999999"
   height="0.017000001"
   style="fill:#817c76" />

            <path
   id="path17-6-4"
   d="m 1896.36,-1015.57 c 0.52,0.16 0.74,0.42 1.05,0.71 0.36,0.34 0.51,0.63 0.86,1.28 0.3,0.54 0.51,1.1 0.49,1.14 -0.03,0.06 -2.71,-0.24 -2.71,-0.32 0,-0.08 -0.75,-1.07 -0.75,-1.07 0,0 0.68,-0.77 0.7,-0.85 0.02,-0.08 0.07,-0.81 0.07,-0.81 z"
   style="fill:#3a3c3c;fill-rule:nonzero" />

            <rect
   id="rect27-88-4"
   x="1899.96"
   y="-1006.1"
   width="1.96"
   height="0.61799997"
   style="fill:#38444d" />

            <path
   id="path36-8-3"
   d="m 1899.2,-1010.61 h -34.55 v 10.843 h 34.44 c 0.41,-1.683 0.63,-3.613 0.63,-5.673 0,-1.84 -0.18,-3.6 -0.52,-5.17 z"
   style="fill:#474846;fill-rule:nonzero" />

            <path
   id="path35-5-1"
   d="m 1899.2,-1010.61 c 0.34,1.57 0.52,3.33 0.52,5.17 0,2.06 -0.22,3.99 -0.63,5.673 h 0.21 c 0.39,-1.673 0.61,-3.583 0.61,-5.613 0,-1.87 -0.19,-3.64 -0.53,-5.23 z"
   style="fill:#545452;fill-rule:nonzero" />

            <path
   id="path40-9-5"
   d="m 1864.65,-1016.06 v 5.96 h 34.83 c -0.48,-2.58 -1.34,-4.69 -2.43,-5.96 z"
   style="fill:#474846;fill-rule:nonzero" />

            <path
   id="path38-94-4"
   d="m 1899.42,-1000.28 h -34.77 v 6.31 h 31.42 c 1.47,-0.876 2.69,-3.184 3.35,-6.31 z"
   style="fill:#474846;fill-rule:nonzero" />

            <path
   id="path37-2-1"
   d="m 1899.23,-1000.28 c -0.62,3.126 -1.78,5.434 -3.16,6.31 h 0.26 c 1.36,-0.921 2.48,-3.222 3.09,-6.31 z"
   style="fill:#444544;fill-rule:nonzero" />

            <path
   id="path12-9-6-2"
   d="m 1871.93,-993.939 c 3.37,-1.242 3.94,-1.88 5.73,-2.717 1.71,-0.8 1.76,-0.835 2.93,-1.105 1.18,-0.27 2.85,-0.518 4.39,0.097 0.65,0.262 1.57,0.593 2.18,0.995 0.65,0.428 2.07,1.428 2.1,1.713 0.05,0.333 0.08,0.789 0.05,0.886 -0.02,0.099 -0.46,0.398 -0.54,0.42 -0.09,0.022 -0.47,0.182 -0.77,0.218 -0.3,0.036 -15.11,1.375 -16.07,-0.438"
   style="fill:#383836;fill-rule:nonzero" />

            <path
   id="path46-9-1"
   d="m 1897.09,-1016.06 h -0.14 c 0.02,0.01 0.02,0.02 0.02,0.02 1.71,1.97 2.85,6.02 2.85,10.59 0,5.514 -1.64,10.146 -3.87,11.48 h 0.38 c 2.18,-1.409 3.68,-5.986 3.68,-11.42 0,-4.65 -1.18,-8.73 -2.92,-10.67 z"
   style="fill-rule:nonzero" />

            <rect
   id="rect41-8-3"
   x="1859.59"
   y="-1006.49"
   width="0.94700003"
   height="3.0810001"
   style="fill:#070a11" />

            <path
   id="path44-7-0-7"
   d="m 1867.23,-993.947 c 0,0 2.55,2.075 3.16,2.621 0.61,0.547 2.36,2.332 2.67,2.605 0.3,0.273 0.66,0.72 0.79,0.824 0.13,0.104 0.57,0.371 0.65,0.402 0.09,0.031 1.2,0.421 1.2,0.421 0,0 1.21,0.298 1.36,0.329 0.15,0.03 1.15,0.22 1.32,0.231 0.17,0.012 1.56,0.109 1.67,0.109 0.11,0 1.33,0.019 1.38,0.015 0.05,-0.004 1.03,-0.089 1.19,-0.108 0.16,-0.019 1.15,-0.151 1.21,-0.162 0.07,-0.012 0.85,-0.178 1.1,-0.24 0.25,-0.062 1.84,-0.526 1.91,-0.553 0.07,-0.027 0.46,-0.219 0.53,-0.273 0.06,-0.055 0.47,-0.541 0.52,-0.607 0.05,-0.066 0.89,-1.213 0.89,-1.213 0,0 0.51,-0.684 0.52,-0.823 0.02,-0.14 0.08,-3.162 0.07,-3.231 -0.01,-0.068 -0.05,-0.142 -0.12,-0.202 -0.08,-0.06 -0.17,-0.101 -0.15,-0.03 0.01,0.071 0.1,0.12 0.06,0.191 -0.04,0.071 -0.26,0.246 -0.28,0.263 -0.01,0.016 -0.4,0.248 -0.43,0.251 -0.03,0 -1.21,0.443 -2.58,0.563 -1.36,0.12 -4,0.23 -4.3,0.235 -0.31,0.01 -2.77,-0.016 -2.86,-0.022 -0.09,-0.01 -3.34,-0.126 -4.05,-0.289 -0.7,-0.164 -1.17,-0.192 -1.78,-0.394 -0.61,-0.202 -0.7,-0.257 -1.38,-0.514 -0.69,-0.257 -0.71,-0.372 -1.05,-0.421 -0.34,-0.049 -3.22,0.022 -3.22,0.022 z"
   style="fill:#1f2223;fill-rule:nonzero" />

        </g>
  </g>
  <g
     id="find_002"
     transform="translate(-380.8209,-544.6178)">
    <g
       clip-path="url(#clipId0-23)"
       fill="#ffffff"
       stroke="#ffffff"
       stroke-width="0.75"
       id="g6700"
       transform="translate(-4587.2491,-3771.1522)">
<polygon
   points="4969.57,4317.27 4999.57,4317.27 4999.57,4347.27 4969.57,4347.27 "
   id="polygon6699" />

</g>
    <g
       clip-path="url(#clipId0-23)"
       fill="none"
       stroke="#260000"
       stroke-width="0.75"
       id="g6703"
       transform="translate(-4587.2491,-3771.1522)">
<polyline
   points="4969.57,4317.27 4999.57,4317.27 "
   id="polyline6700" />

<polyline
   points="4999.57,4317.27 4999.57,4347.27 "
   id="polyline6701" />

<polyline
   points="4999.57,4347.27 4969.57,4347.27 "
   id="polyline6702" />

<polyline
   points="4969.57,4347.27 4969.57,4317.27 "
   id="polyline6703" />

</g>
    <g
       clip-path="url(#clipId0-23)"
       fill="#00261c"
       stroke="#00261c"
       stroke-width="3"
       id="g6718"
       transform="translate(-4587.2491,-3771.1522)"
       style="stroke-linejoin:round">
<path
   d="m 4969.57,4347.27 v -30 l 7.71,30 z"
   id="path6703"
   style="stroke-linejoin:round" />

<path
   d="m 4977.28,4326.02 -7.71,-8.75 h 7.71 z"
   id="path6704"
   style="stroke-linejoin:round" />

<path
   d="m 4977.28,4347.27 v -8.75 l 7.35,8.75 z"
   id="path6705"
   style="stroke-linejoin:round" />

<path
   d="m 4984.63,4347.27 -7.35,-8.75 h 7.35 z"
   id="path6706"
   style="stroke-linejoin:round" />

<path
   d="m 4977.28,4326.02 v -8.75 l 7.35,8.75 z"
   id="path6707"
   style="stroke-linejoin:round" />

<path
   d="m 4984.63,4326.02 -7.35,-8.75 h 7.35 z"
   id="path6708"
   style="stroke-linejoin:round" />

<path
   d="m 4984.63,4347.27 v -8.75 l 7.02,8.75 z"
   id="path6709"
   style="stroke-linejoin:round" />

<path
   d="m 4991.65,4347.27 -7.02,-8.75 7.02,5.64 z"
   id="path6710"
   style="stroke-linejoin:round" />

<path
   d="m 4984.63,4326.02 v -8.75 l 7.02,3.1 z"
   id="path6711"
   style="stroke-linejoin:round" />

<path
   d="m 4991.65,4320.37 -7.02,-3.1 h 7.02 z"
   id="path6712"
   style="stroke-linejoin:round" />

<path
   d="m 4991.65,4320.37 v -3.1 l 7.92,30 z"
   id="path6713"
   style="stroke-linejoin:round" />

<path
   d="m 4999.57,4347.27 -7.92,-30 h 7.92 z"
   id="path6714"
   style="stroke-linejoin:round" />

<path
   d="m 4977.28,4347.27 -7.71,-30 7.71,21.25 z"
   id="path6715"
   style="stroke-linejoin:round" />

<path
   d="m 4977.28,4338.52 -7.71,-21.25 7.71,8.75 z"
   id="path6716"
   style="stroke-linejoin:round" />

<path
   d="m 4991.65,4347.27 v -3.11 l 7.92,3.11 z"
   id="path6717"
   style="stroke-linejoin:round" />

<path
   d="m 4991.65,4344.16 v -23.79 l 7.92,26.9 z"
   id="path6718"
   style="stroke-linejoin:round" />

</g>
    <g
       clip-path="url(#clipId0-23)"
       fill="none"
       stroke="#7fffff"
       stroke-width="0.75"
       id="g6719"
       transform="translate(-4587.2491,-3771.1522)">
<polyline
   points="4969.57,4347.27 4999.57,4347.27 4999.57,4317.27 4969.57,4317.27 4969.57,4347.27 "
   id="polyline6718" />

<polyline
   points="4977.28,4326.02 4977.28,4338.52 4984.63,4338.52 4991.65,4344.16 4991.65,4320.37 4984.63,4326.02 4977.28,4326.02 "
   id="polyline6719" />

</g>
  </g>
  <g
     id="replace_002"
     serif:id="TURBOSOUND SPKR 2"
     transform="matrix(0,-0.02558511,0.02558511,0,26.048299,39.168174)"
     style="clip-rule:evenodd;fill-rule:evenodd;stroke-linecap:round;stroke-linejoin:round;stroke-miterlimit:10">
            <path
   id="path7-3-7-1-4-0"
   d="m 935.773,-496.707 -12.342,6.565 c 0,0 -6.171,1.576 -9.585,1.116 -3.414,-0.459 -6.827,-1.641 -10.044,-3.479 -3.217,-1.839 -7.616,-8.272 -8.141,-9.126 -0.525,-0.853 -3.479,-9.65 -3.742,-11.226 -0.263,-1.575 -0.591,-8.337 -0.656,-9.585 -0.066,-1.247 0.262,-11.029 0.393,-12.736 0.132,-1.707 9.06,-132.875 22.19,-243.692 13.13,-110.817 30.987,-207.454 32.562,-213.756 1.576,-6.302 4.924,-13.784 7.681,-17.074 2.758,-3.28 5.712,-5.31 9.782,-7.08 4.071,-1.78 7.484,-1.25 7.484,-1.25 l 2.692,0.59 2.167,0.19 c 0,0 1.575,0.27 2.297,0.53 0.722,0.26 3.151,2.1 3.151,2.1 l 1.707,1.77 0.263,0.53 z"
   style="fill:#404144" />

            <path
   id="path7-0-6-4-8-8"
   d="m 1486.38,-496.707 12.34,6.565 c 0,0 6.17,1.576 9.58,1.116 3.42,-0.459 6.83,-1.641 10.05,-3.479 3.21,-1.838 7.61,-8.272 8.14,-9.126 0.52,-0.853 3.48,-9.65 3.74,-11.226 0.26,-1.575 0.59,-8.337 0.66,-9.585 0.06,-1.247 -0.27,-11.029 -0.4,-12.736 -0.13,-1.707 -9.06,-132.875 -22.19,-243.692 -13.13,-110.817 -30.98,-207.454 -32.56,-213.756 -1.58,-6.302 -4.92,-13.784 -7.68,-17.074 -2.76,-3.28 -5.71,-5.31 -9.78,-7.08 -4.07,-1.78 -7.49,-1.25 -7.49,-1.25 l -2.69,0.59 -2.17,0.19 c 0,0 -1.57,0.27 -2.29,0.53 -0.73,0.26 -3.15,2.1 -3.15,2.1 l -1.71,1.77 -0.26,0.53 z"
   style="fill:#404144" />

            <g
   id="g6-63-1-5-8"
   transform="translate(-988.424)">
                <path
   id="path1-4-4-0-9-2"
   d="m 1979.96,-1012.36 c 0,0 -12.81,0.19 -14.85,0.56 -2.04,0.37 -1.86,1.3 -3.34,2.6 -1.49,1.3 -4.65,8.54 -5.58,10.953 -0.92,2.414 -21.91,130.723 -28.59,184.943 -6.69,54.22 -23.77,284.471 -23.77,284.471 v 1.008 h 590.44 v -1.008 c 0,0 -17.09,-230.251 -23.77,-284.471 -6.69,-54.22 -27.67,-182.529 -28.6,-184.943 -0.93,-2.413 -4.08,-9.653 -5.57,-10.953 -1.48,-1.3 -1.3,-2.23 -3.34,-2.6 -2.04,-0.37 -14.86,-0.56 -14.86,-0.56 z"
   style="fill:#504f50" />

                <path
   id="path6-1-6-2-0"
   d="m 1971.89,-1012.32 -1.3,0.59 c 0,0 -2.1,1.44 -2.96,2.95 -0.85,1.51 -3.35,7.36 -3.87,9.129 -0.53,1.773 -2.76,14.247 -3.02,15.297 -0.26,1.051 -11.6,75.236 -11.6,75.236 l -12.06,97.671 -6.88,67.961 -7.61,83.558 -5.75,76.317 -2.98,49.95 284.79,-0.709 284.79,0.709 -2.97,-49.95 -5.76,-76.317 -7.61,-83.558 -6.88,-67.961 -12.06,-97.671 c 0,0 -11.34,-74.185 -11.6,-75.236 -0.26,-1.05 -2.49,-13.524 -3.02,-15.297 -0.52,-1.769 -3.02,-7.619 -3.87,-9.129 -0.85,-1.51 -2.96,-2.95 -2.96,-2.95 l -1.3,-0.59 z"
   style="fill:#121212" />

                <rect
   id="rect1-0-4-3-5-9"
   x="2177.1399"
   y="-602.55103"
   width="43.821999"
   height="46.236"
   style="fill:#3a3a3a" />

                <path
   id="path3-0-60-6-4-3"
   d="m 2190.72,-560.118 -0.99,-0.1 v -5.203 l 0.33,-0.122 c 0.18,-0.067 0.48,-0.069 0.66,-0.006 l 0.33,0.116 v 1.014 h 1.82 l 0.41,0.416 0.42,0.416 v 2.526 l -0.47,0.406 c -0.59,0.518 -1.26,0.663 -2.51,0.538 z m 1.6,-2.123 0.09,-1.125 -0.91,-0.345 -0.35,0.49 -0.36,0.49 v 1.116 l 0.32,0.326 0.33,0.325 0.4,-0.076 0.4,-0.077 z m -11.93,1.89 -0.19,-0.188 v -4.155 l -0.66,0.166 -0.66,0.166 v -1.348 l 4.01,0.174 0.38,0.721 0.37,0.721 v 2.479 l 0.3,0.297 0.3,0.297 0.36,-0.14 0.37,-0.14 v -3.087 l 0.29,-0.179 0.29,-0.18 0.34,0.363 0.35,0.362 -0.14,1.918 -0.15,1.918 h -1.26 c -0.7,0 -1.46,-0.072 -1.69,-0.161 l -0.42,-0.16 v -4.177 h -0.77 l -0.15,4.366 -0.54,0.077 c -0.3,0.043 -0.63,-0.007 -0.73,-0.11 z m 6.35,-0.002 -0.19,-0.186 v -3.813 l 2.08,-0.331 0.86,0.33 -0.17,0.86 h -1.31 l -0.13,1.585 -0.14,1.585 -0.41,0.078 c -0.22,0.042 -0.49,-0.006 -0.59,-0.108 z m 7.88,-0.197 -0.5,-0.365 v -2.782 l 1.22,-0.987 h 1.47 l 0.58,0.466 0.57,0.466 0.28,2.111 -0.57,0.727 -0.57,0.728 h -1.98 z m 2.03,-1.072 0.29,-0.642 -0.35,-1.396 -1.17,0.167 -0.09,0.885 c -0.05,0.487 -0.02,1.052 0.06,1.257 l 0.14,0.371 h 0.82 z m 1.96,0.924 -0.47,-0.513 0.18,-0.281 0.17,-0.281 h 0.97 l 0.15,0.396 0.16,0.397 h 1.07 v -0.718 l -1.12,-0.237 -1.13,-0.238 v -2.094 l 0.86,-0.247 0.86,-0.246 0.86,0.246 0.86,0.247 v 1.259 l -0.31,0.102 -0.3,0.103 -0.54,-0.572 -0.53,-0.571 -0.28,0.176 c -0.16,0.097 -0.29,0.347 -0.29,0.557 v 0.381 h 1.47 l 0.56,0.392 0.56,0.392 0.34,-1.827 0.58,-0.404 0.58,-0.405 0.8,0.004 c 0.44,0.002 0.96,0.104 1.15,0.225 l 0.35,0.221 0.36,1.032 0.37,1.032 0.03,-2.218 0.27,-0.171 0.28,-0.17 0.38,0.316 0.38,0.316 -0.12,2.808 0.18,0.187 0.19,0.188 0.41,-0.157 0.41,-0.157 v -3.191 h 1.34 l -0.15,4.101 h -3.16 l -0.28,-0.568 -0.29,-0.568 -0.56,0.634 -0.57,0.634 h -2.11 l -0.42,-0.416 -0.42,-0.415 -0.02,-0.889 -0.29,0.529 c -0.16,0.291 -0.47,0.678 -0.7,0.86 l -0.42,0.331 h -2.19 z m 6.61,-0.916 c 0.09,-0.349 0.12,-0.914 0.07,-1.254 l -0.08,-0.62 -0.5,-0.095 -0.5,-0.095 -0.22,0.357 c -0.6,0.932 -0.23,2.341 0.59,2.341 h 0.48 z m 5.79,1.069 c -0.08,-0.197 -0.11,-1.116 -0.06,-2.043 l 0.08,-1.684 1.16,-0.23 1.17,-0.229 0.62,0.282 0.62,0.283 v 0.601 c 0,0.331 0.12,0.78 0.26,0.998 l 0.26,0.397 v -1.418 l 0.41,-0.415 0.42,-0.416 h 1.81 v -1.094 l 0.73,0.084 0.73,0.084 -0.02,0.463 c -0.02,0.254 -0.05,1.415 -0.07,2.579 l -0.04,2.117 h -3.47 l -0.36,-0.857 -0.36,-0.857 -0.18,1.582 -0.6,0.084 -0.59,0.085 v -2.815 l -0.24,-0.369 -0.23,-0.37 -0.42,0.163 -0.43,0.162 v 3.192 h -1.07 z m 6.45,-0.488 0.31,-0.317 v -1.682 l -0.85,-0.706 -0.37,0.504 -0.36,0.503 v 1.381 l 0.31,0.317 c 0.18,0.175 0.39,0.318 0.48,0.318 0.09,0 0.3,-0.143 0.48,-0.318 z m -21.65,-6.986 -1.72,-0.362 -1.72,-0.843 -1.72,-0.842 -1.72,-1.741 -1.73,-1.74 -0.98,-1.877 -0.98,-1.876 -0.42,-1.563 -0.43,-1.564 0.04,-5.556 0.4,-1.523 c 0.51,-1.967 1.77,-4.448 3.18,-6.282 l 1.12,-1.455 1.47,-1.009 1.47,-1.01 1.41,-0.536 c 0.77,-0.295 2.04,-0.639 2.81,-0.765 l 1.4,-0.228 0.38,0.149 0.39,0.148 v 0.943 l -0.99,0.185 c -0.55,0.102 -1.84,0.575 -2.87,1.051 l -1.88,0.866 -1.44,1.444 -1.44,1.444 -0.68,1.437 c -0.38,0.79 -0.82,2.068 -0.98,2.839 l -0.3,1.402 v 3.811 l 0.37,1.398 0.37,1.399 0.83,1.299 0.84,1.3 1.07,0.969 1.08,0.97 1.2,0.532 1.2,0.532 1.74,-0.189 c 2.14,-0.233 2.57,-0.232 4.97,0.005 l 1.92,0.189 1.43,-0.702 1.43,-0.702 1.07,-1.159 c 1.25,-1.352 2.11,-2.929 2.6,-4.783 l 0.35,-1.323 v -1.473 c 0,-0.81 -0.12,-2.179 -0.28,-3.043 l -0.29,-1.57 -0.62,-1.351 -0.61,-1.352 -3,-3.235 -1.87,-0.933 -1.86,-0.934 h -1.75 l -0.3,-0.481 0.16,-0.421 0.17,-0.421 h 2.48 l 1.63,0.551 1.64,0.551 3.12,2.021 1.33,1.59 1.32,1.591 0.68,1.412 c 0.38,0.777 0.87,2.122 1.09,2.989 l 0.41,1.577 v 5.324 l -0.54,1.934 -0.54,1.933 -0.79,1.565 -0.79,1.565 -1.74,1.849 -1.74,1.85 -1.83,0.911 -1.82,0.911 -1.39,0.264 c -0.76,0.145 -2.23,0.318 -3.24,0.385 l -1.86,0.12 z m 6.94,-2.241 1.63,-0.55 1.41,-0.934 1.41,-0.935 1.33,-1.492 1.33,-1.493 0.63,-1.323 c 0.34,-0.728 0.7,-1.621 0.79,-1.984 l 0.16,-0.662 -0.66,1.231 -0.66,1.231 -1.27,1.297 -1.26,1.298 -1.49,0.725 -1.48,0.725 -1.74,0.289 -1.74,0.288 -2.12,-0.536 -1.22,0.281 -1.23,0.281 -1.64,-0.336 -1.63,-0.336 -1.3,-0.705 -1.3,-0.706 -1.08,-1.079 -1.08,-1.08 -0.73,-1.329 c -0.39,-0.731 -0.89,-1.972 -1.1,-2.757 l -0.39,-1.428 -0.01,0.53 c -0.02,0.771 0.6,2.981 1.27,4.478 l 0.57,1.3 0.94,1.146 c 0.52,0.63 1.38,1.56 1.91,2.067 l 0.98,0.921 1.61,0.793 c 2.03,1.003 3.19,1.273 5.61,1.307 l 1.92,0.026 z"
   style="fill:#e7e5e6;fill-rule:nonzero" />

                <path
   id="path5-65-1-3-1-2"
   d="m 1903.83,-527.825 0.26,9.847 c 0,0 0,10e-4 0,10e-4 0,11.74 6.95,21.402 15.39,21.402 h 559.13 c 8.45,0 15.39,-9.662 15.39,-21.402 0,0 0,-10e-4 0,-10e-4 l 0.27,-9.847 z"
   style="fill:#121212" />

            </g>

        </g>
  <g
     id="find_003"
     transform="translate(-380.2034,-544.7629)">
    <g
       clip-path="url(#clipId0-3)"
       fill="#ffffff"
       stroke="#ffffff"
       stroke-width="0.75"
       id="g6172"
       transform="translate(-3952.8966,-3369.0171)">
<polygon
   points="4364.6,3915.28 4334.6,3915.28 4334.6,3945.28 4364.6,3945.28 "
   id="polygon6171" />

</g>
    <g
       clip-path="url(#clipId0-3)"
       fill="none"
       stroke="#260000"
       stroke-width="0.75"
       id="g6175"
       transform="translate(-3952.8966,-3369.0171)">
<polyline
   points="4364.6,3915.28 4334.6,3915.28 "
   id="polyline6172" />

<polyline
   points="4334.6,3915.28 4334.6,3945.28 "
   id="polyline6173" />

<polyline
   points="4334.6,3945.28 4364.6,3945.28 "
   id="polyline6174" />

<polyline
   points="4364.6,3945.28 4364.6,3915.28 "
   id="polyline6175" />

</g>
    <g
       clip-path="url(#clipId0-3)"
       fill="#00261c"
       stroke="#00261c"
       stroke-width="3"
       id="g6218"
       transform="translate(-3952.8966,-3369.0171)"
       style="stroke-linejoin:round">
<path
   d="m 4334.6,3945.28 v -30 l 2.11,30 z"
   id="path6175"
   style="stroke-linejoin:round" />

<path
   d="m 4336.71,3931.83 -2.11,-16.55 h 2.11 z"
   id="path6176"
   style="stroke-linejoin:round" />

<path
   d="m 4336.71,3945.28 v -1.55 l 3.51,1.55 z"
   id="path6177"
   style="stroke-linejoin:round" />

<path
   d="m 4340.22,3945.28 -3.51,-1.55 3.51,-2.83 z"
   id="path6178"
   style="stroke-linejoin:round" />

<path
   d="m 4336.71,3931.83 v -16.55 l 3.51,19.37 z"
   id="path6179"
   style="stroke-linejoin:round" />

<path
   d="m 4340.22,3934.65 -3.51,-19.37 h 3.51 z"
   id="path6180"
   style="stroke-linejoin:round" />

<path
   d="m 4340.22,3945.28 v -4.38 l 3.68,4.38 z"
   id="path6181"
   style="stroke-linejoin:round" />

<path
   d="m 4343.9,3945.28 -3.68,-4.38 h 3.68 z"
   id="path6182"
   style="stroke-linejoin:round" />

<path
   d="m 4340.22,3934.65 v -19.37 l 3.68,19.37 z"
   id="path6183"
   style="stroke-linejoin:round" />

<path
   d="m 4343.9,3934.65 -3.68,-19.37 h 3.68 z"
   id="path6184"
   style="stroke-linejoin:round" />

<path
   d="m 4343.9,3934.65 v -19.37 l 2.19,30 z"
   id="path6185"
   style="stroke-linejoin:round" />

<path
   d="m 4346.09,3924.33 -2.19,-9.05 h 2.19 z"
   id="path6186"
   style="stroke-linejoin:round" />

<path
   d="m 4346.09,3945.28 v -9.05 l 3.51,9.05 z"
   id="path6187"
   style="stroke-linejoin:round" />

<path
   d="m 4349.6,3945.28 -3.51,-9.05 3.51,-2.83 z"
   id="path6188"
   style="stroke-linejoin:round" />

<path
   d="m 4346.09,3924.33 v -9.05 l 3.51,11.87 z"
   id="path6189"
   style="stroke-linejoin:round" />

<path
   d="m 4349.6,3927.15 -3.51,-11.87 h 3.51 z"
   id="path6190"
   style="stroke-linejoin:round" />

<path
   d="m 4349.6,3945.28 v -11.88 l 3.67,11.88 z"
   id="path6191"
   style="stroke-linejoin:round" />

<path
   d="m 4353.27,3945.28 -3.67,-11.88 h 3.67 z"
   id="path6192"
   style="stroke-linejoin:round" />

<path
   d="m 4349.6,3927.15 v -11.87 l 3.67,11.87 z"
   id="path6193"
   style="stroke-linejoin:round" />

<path
   d="m 4353.27,3927.15 -3.67,-11.87 h 3.67 z"
   id="path6194"
   style="stroke-linejoin:round" />

<path
   d="m 4353.27,3927.15 v -11.87 l 2.19,30 z"
   id="path6195"
   style="stroke-linejoin:round" />

<path
   d="m 4355.46,3916.83 -2.19,-1.55 h 2.19 z"
   id="path6196"
   style="stroke-linejoin:round" />

<path
   d="m 4355.46,3945.28 v -16.55 l 3.51,16.55 z"
   id="path6197"
   style="stroke-linejoin:round" />

<path
   d="m 4358.97,3945.28 -3.51,-16.55 3.51,-2.83 z"
   id="path6198"
   style="stroke-linejoin:round" />

<path
   d="m 4355.46,3916.83 v -1.55 l 3.51,4.37 z"
   id="path6199"
   style="stroke-linejoin:round" />

<path
   d="m 4358.97,3919.65 -3.51,-4.37 h 3.51 z"
   id="path6200"
   style="stroke-linejoin:round" />

<path
   d="m 4358.97,3945.28 v -19.38 l 3.68,19.38 z"
   id="path6201"
   style="stroke-linejoin:round" />

<path
   d="m 4362.65,3945.28 -3.68,-19.38 h 3.68 z"
   id="path6202"
   style="stroke-linejoin:round" />

<path
   d="m 4358.97,3919.65 v -4.37 l 3.68,4.37 z"
   id="path6203"
   style="stroke-linejoin:round" />

<path
   d="m 4362.65,3919.65 -3.68,-4.37 h 3.68 z"
   id="path6204"
   style="stroke-linejoin:round" />

<path
   d="m 4362.65,3919.65 v -4.37 l 1.95,30 z"
   id="path6205"
   style="stroke-linejoin:round" />

<path
   d="m 4364.6,3945.28 -1.95,-30 h 1.95 z"
   id="path6206"
   style="stroke-linejoin:round" />

<path
   d="m 4336.71,3945.28 -2.11,-30 2.11,28.45 z"
   id="path6207"
   style="stroke-linejoin:round" />

<path
   d="m 4336.71,3943.73 -2.11,-28.45 2.11,16.55 z"
   id="path6208"
   style="stroke-linejoin:round" />

<path
   d="m 4343.9,3945.28 v -4.38 l 2.19,4.38 z"
   id="path6209"
   style="stroke-linejoin:round" />

<path
   d="m 4343.9,3940.9 v -6.25 l 2.19,10.63 z"
   id="path6210"
   style="stroke-linejoin:round" />

<path
   d="m 4346.09,3945.28 -2.19,-30 2.19,20.95 z"
   id="path6211"
   style="stroke-linejoin:round" />

<path
   d="m 4346.09,3936.23 -2.19,-20.95 2.19,9.05 z"
   id="path6212"
   style="stroke-linejoin:round" />

<path
   d="m 4353.27,3945.28 v -11.88 l 2.19,11.88 z"
   id="path6213"
   style="stroke-linejoin:round" />

<path
   d="m 4353.27,3933.4 v -6.25 l 2.19,18.13 z"
   id="path6214"
   style="stroke-linejoin:round" />

<path
   d="m 4355.46,3945.28 -2.19,-30 2.19,13.45 z"
   id="path6215"
   style="stroke-linejoin:round" />

<path
   d="m 4355.46,3928.73 -2.19,-13.45 2.19,1.55 z"
   id="path6216"
   style="stroke-linejoin:round" />

<path
   d="m 4362.65,3945.28 v -19.38 l 1.95,19.38 z"
   id="path6217"
   style="stroke-linejoin:round" />

<path
   d="m 4362.65,3925.9 v -6.25 l 1.95,25.63 z"
   id="path6218"
   style="stroke-linejoin:round" />

</g>
    <g
       clip-path="url(#clipId0-3)"
       fill="none"
       stroke="#7fffff"
       stroke-width="0.75"
       id="g6221"
       transform="translate(-3952.8966,-3369.0171)">
<polyline
   points="4364.6,3945.28 4334.6,3945.28 4334.6,3915.28 4364.6,3915.28 4364.6,3945.28 "
   id="polyline6218" />

<polyline
   points="4353.27,3927.15 4353.27,3933.4 4349.6,3933.4 4346.09,3936.23 4346.09,3924.33 4349.6,3927.15 4353.27,3927.15 "
   id="polyline6219" />

<polyline
   points="4362.65,3919.65 4362.65,3925.9 4358.97,3925.9 4355.46,3928.73 4355.46,3916.83 4358.97,3919.65 4362.65,3919.65 "
   id="polyline6220" />

<polyline
   points="4343.9,3934.65 4343.9,3940.9 4340.22,3940.9 4336.71,3943.73 4336.71,3931.83 4340.22,3934.65 4343.9,3934.65 "
   id="polyline6221" />

</g>
  </g>
  <g
     id="replace_003"
     style="clip-rule:evenodd;fill-rule:evenodd;stroke-linecap:round;stroke-linejoin:round;stroke-miterlimit:10"
     transform="translate(-2864.8567,-804.11768)">
    <g
       id="g34-0-4-7-8-3"
       transform="matrix(-0.03156348,-0.03156348,-0.03156348,0.03156348,2925.1054,923.3929)">
                <circle
   id="path29-1-4-7-0-7"
   cx="1710.67"
   cy="-1031.6899"
   r="28.361"
   style="fill:#eff3ed" />

                <g
   id="path29-8-2-7-5-8-5"
   transform="rotate(90)">
                    <circle
   cx="-1461.84"
   cy="-2169.7"
   r="28.361"
   style="fill:#eff3ed"
   id="circle7424" />

                </g>

                <g
   id="path29-5-2-1-2-6-0"
   transform="scale(-1)">
                    <circle
   cx="-2612.9099"
   cy="1032.75"
   r="28.361"
   style="fill:#eff3ed"
   id="circle7425" />

                </g>

                <g
   id="path29-82-1-4-9-7-7-5"
   transform="rotate(-90)">
                    <circle
   cx="606.59198"
   cy="2166.4099"
   r="28.361"
   style="fill:#eff3ed"
   id="circle7426" />

                </g>

                <rect
   id="rect29-1-6-1-4-0"
   x="1679.9"
   y="-1045.87"
   width="429.61301"
   height="28.361"
   style="fill:#373739" />

                <path
   id="rect32-4-3-7-7-2"
   d="m 1900.98,-1050.4 v 39.45 l -0.16,0.16 21.82,21.261 4.76,-4.89 -17.23,-16.791 v -39.19 z"
   style="fill:#d2cdc1" />

                <rect
   id="rect31-88-5-5-1-8"
   x="1886.28"
   y="-1043.51"
   width="28.886"
   height="23.634001"
   style="fill:#b3b1ad" />

                <g
   id="rect29-8-8-4-0-8-1"
   transform="rotate(90)">
                    <rect
   x="-1492.61"
   y="-2183.8799"
   width="429.61301"
   height="28.361"
   style="fill:#373739"
   id="rect7426" />

                </g>

                <path
   id="rect32-2-8-4-1-5-3"
   d="m 2188.41,-1271.52 h -39.44 l -0.17,-0.16 -21.26,21.81 4.89,4.77 16.79,-17.23 h 39.19 z"
   style="fill:#d2cdc1" />

                <g
   id="rect31-1-1-2-2-5-6"
   transform="rotate(90)">
                    <rect
   x="-1286.23"
   y="-2181.52"
   width="28.886"
   height="23.634001"
   style="fill:#b3b1ad"
   id="rect7427" />

                </g>

                <g
   id="rect29-5-7-50-5-0-2-3"
   transform="scale(-1)">
                    <rect
   x="-2643.6799"
   y="1018.57"
   width="429.61301"
   height="28.361"
   style="fill:#373739"
   id="rect7428" />

                </g>

                <path
   id="rect32-24-0-6-3-7-1"
   d="m 2422.59,-1014.04 v -39.44 l 0.16,-0.17 -21.81,-21.26 -4.77,4.89 17.23,16.79 v 39.19 z"
   style="fill:#d2cdc1" />

                <g
   id="rect31-13-2-5-8-4-5-8"
   transform="scale(-1)">
                    <rect
   x="-2437.3"
   y="1020.93"
   width="28.886"
   height="23.634001"
   style="fill:#b3b1ad"
   id="rect7429" />

                </g>

                <g
   id="rect29-3-7-2-0-1-8-6"
   transform="rotate(-90)">
                    <rect
   x="575.823"
   y="2152.23"
   width="429.61301"
   height="28.361"
   style="fill:#373739"
   id="rect7430" />

                </g>

                <path
   id="rect34-0-7-1-8-0-8-0"
   d="m 2055.97,-1154.32 v 216.878 h 216.88 v -216.878 z m 15.6,15.59 h 185.68 v 185.691 h -185.68 z"
   style="fill:#272425" />

                <g
   id="rect30-5-2-9-2-8-9"
   transform="rotate(90)">
                    <rect
   x="-1261.02"
   y="-2178.6299"
   width="177.517"
   height="17.857"
   style="fill:#767471"
   id="rect7431" />

                </g>

                <rect
   id="rect15-9-3-1-4-5-7"
   x="1964.24"
   y="-1214.26"
   width="403.353"
   height="34.661999"
   style="fill:#404042" />

                <path
   id="rect32-6-9-2-0-2-7"
   d="m 2147.7,-796.906 h 39.44 l 0.17,0.161 21.26,-21.817 -4.89,-4.765 -16.79,17.23 h -39.19 z"
   style="fill:#d2cdc1" />

                <rect
   id="rect30-94-9-5-3-2"
   x="1911.49"
   y="-1040.62"
   width="177.517"
   height="17.857"
   style="fill:#767471" />

                <g
   id="rect31-8-8-9-2-5-8"
   transform="rotate(-90)">
                    <rect
   x="782.20001"
   y="2154.5901"
   width="28.886"
   height="23.634001"
   style="fill:#b3b1ad"
   id="rect7432" />

                </g>

                <rect
   id="rect19-40-3-77-7-9"
   x="2085.04"
   y="-1276.23"
   width="25.209999"
   height="194.32401"
   style="fill:#404042" />

                <path
   id="path27-5-3-1-7-2"
   d="m 2079.53,-978.446 v 83.268 c -0.16,2.04 -0.27,4.093 -0.27,6.172 v 23.132 c 0,44.709 37.36,80.701 83.77,80.701 46.41,0 83.77,-35.992 83.77,-80.701 v -23.132 c 0,-2.183 -0.11,-4.339 -0.29,-6.478 v -82.962 z m 16.02,12.336 h 134.94 v 72.372 c 0.15,1.866 0.24,3.747 0.24,5.652 v 20.178 c 0,39.001 -30.2,70.399 -67.7,70.399 -37.5,0 -67.69,-31.398 -67.69,-70.399 v -20.178 c 0,-1.814 0.09,-3.607 0.21,-5.386 z"
   style="fill:#403d3d" />

                <rect
   id="rect19-4-4-8-6-1-8-3"
   x="2220.6399"
   y="-1276.76"
   width="25.209999"
   height="194.32401"
   style="fill:#404042" />

                <rect
   id="rect28-5-8-1-6-8"
   x="2077.6899"
   y="-1122.35"
   width="170.69"
   height="152.83299"
   style="fill:#1b1b1d" />

                <g
   id="rect30-9-3-6-4-6-9"
   transform="scale(-1)">
                    <rect
   x="-2412.0901"
   y="1023.82"
   width="177.517"
   height="17.857"
   style="fill:#767471"
   id="rect7433" />

                </g>

                <g
   id="rect30-4-4-5-5-8-8"
   transform="rotate(-90)">
                    <rect
   x="807.40997"
   y="2157.48"
   width="177.517"
   height="17.857"
   style="fill:#767471"
   id="rect7434" />

                </g>

                <rect
   id="rect20-3-9-9-0-6"
   x="2064.8201"
   y="-1289.63"
   width="65.125"
   height="17.857"
   style="fill:#404042" />

                
                <rect
   id="rect20-2-0-9-8-2-2"
   x="2200.6799"
   y="-1288.3"
   width="65.125"
   height="17.857"
   style="fill:#404042" />

                
            </g>
    <g
       id="rect34-2-6-4-8-7"
       transform="matrix(0.04463268,-6.5573091e-4,-6.5573091e-4,-0.04463268,2865.3368,723.75452)">
                <rect
   x="439.16501"
   y="-2565.76"
   width="130.24899"
   height="670.15399"
   style="fill:#1c1c1c"
   id="rect7437" />

            </g>
    <g
       id="g50-2-8-7"
       transform="matrix(-0.03932543,-0.02354759,-0.02354759,0.03932543,2963.1791,871.60816)">
            <g
   id="g49-7-3-4"
   transform="rotate(31.10204,1836.1771,-432.8807)">
                <g
   id="g41-74-2-4"
   transform="translate(793.05,8.40318)">
                    <path
   id="path41-4-3-7-2"
   d="m 779.067,-532.158 2.67,-15.615 29.71,-32.495 c 0,0 2.043,-2.786 4.457,-4.085 2.414,-1.3 7.984,-2.043 7.984,-2.043 0,0 56.82,-12.07 151.334,-12.07 94.518,0 183.088,14.113 183.088,14.113 0,0 5.38,0.742 6.68,1.671 1.3,0.928 11.33,11.698 11.33,11.698 l 22.84,27.667 2.46,13.23 -257.964,76.456 z"
   style="fill:#6b6d71" />

                    <path
   id="path40-0-99-4-2"
   d="m 775.053,-520.385 0.928,-10.066 c 0,0 0.92,-1.182 3.086,-1.707 2.166,-0.525 5.974,-0.394 5.974,-0.394 l 408.499,1.769 c 0,0 5.76,-0.093 8.08,0.696 2.32,0.789 2.46,1.254 2.46,1.254 l 0.65,8.448 -213.725,24.975 z"
   style="fill:#a3a5ac" />

                    <path
   id="path39-4-9-2-6"
   d="m 786.008,-522.427 c 0,0 -5.199,0.279 -7.799,0.557 -2.599,0.279 -3.156,1.485 -3.156,1.485 l 3.292,24.86 89.973,193.47 c 0,0 5.383,13.918 11.062,16.938 5.679,3.019 16.183,2.56 16.183,2.56 h 188.657 c 0,0 10.5,0.459 16.18,-2.56 5.68,-3.02 11.06,-16.938 11.06,-16.938 l 89.98,-193.47 3.29,-24.86 c 0,0 -0.56,-1.206 -3.16,-1.485 -2.6,-0.278 -7.8,-0.557 -7.8,-0.557 l -203.878,1.147 z"
   style="fill:#3c3f43" />

                </g>

                <g
   id="g48-9-1-4"
   transform="translate(-5.60384,8.40318)">
                    <g
   id="g46-68-1-5">
                        <path
   id="rect35-8-3-4"
   d="m 1810.17,-511.75 c -4.66,0 -8.42,3.756 -8.42,8.422 v 199.665 c 0,4.666 3.76,8.423 8.42,8.423 h 60.03 c 3.91,0 7.16,-2.657 8.11,-6.262 l 0.03,0.021 91.27,-196.436 c 0,0 2.6,-4.735 -1.21,-9.47 -3.8,-4.735 -10.4,-4.363 -10.4,-4.363 h -107.6 z"
   style="fill:#4f5157" />

                        <g
   id="g35-81-84-4-8"
   transform="translate(800.787,3.71372)">
                            <circle
   id="path35-4-87-9-3"
   cx="1056.51"
   cy="-323.64001"
   r="22.282"
   style="fill:#393c41" />

                            <circle
   id="path35-50-9-4"
   cx="1056.51"
   cy="-323.64001"
   r="15.319"
   style="fill:#45474a" />

                        </g>

                        <g
   id="g35-9-69-3-1"
   transform="translate(878.09,-161.01)">
                            <circle
   id="path35-4-5-4-5-5"
   cx="1056.51"
   cy="-323.64001"
   r="22.282"
   style="fill:#393c41" />

                            <circle
   id="path35-5-4-4-1-0"
   cx="1056.51"
   cy="-323.64001"
   r="15.319"
   style="fill:#45474a" />

                        </g>

                    </g>

                    <g
   id="g45-52-5-7">
                        <path
   id="rect35-6-71-1-8"
   d="m 1766.92,-511.75 c 4.67,0 8.42,3.756 8.42,8.422 v 199.665 c 0,4.666 -3.75,8.423 -8.42,8.423 h -60.03 c -3.91,0 -7.15,-2.657 -8.11,-6.262 l -0.03,0.021 -91.27,-196.436 c 0,0 -2.6,-4.735 1.21,-9.47 3.81,-4.735 10.4,-4.363 10.4,-4.363 h 107.6 z"
   style="fill:#4f5157" />

                        <g
   id="g35-2-3-1-8"
   transform="translate(664.143,3.71372)">
                            <circle
   id="path35-4-7-2-8-7"
   cx="1056.51"
   cy="-323.64001"
   r="22.282"
   style="fill:#393c41" />

                            <circle
   id="path35-45-1-0-4"
   cx="1056.51"
   cy="-323.64001"
   r="15.319"
   style="fill:#45474a" />

                        </g>

                        <g
   id="g35-6-8-6-2"
   transform="translate(588.636,-161.01)">
                            <circle
   id="path35-4-0-4-1-7"
   cx="1056.51"
   cy="-323.64001"
   r="22.282"
   style="fill:#393c41" />

                            <circle
   id="path35-7-01-0-8"
   cx="1056.51"
   cy="-323.64001"
   r="15.319"
   style="fill:#45474a" />

                        </g>

                    </g>

                    <g
   id="g47-3-6-1"
   transform="translate(8.81055e-5)">
                        <rect
   id="rect36-3-5-9"
   x="1783.72"
   y="-508.40799"
   width="9.6560001"
   height="222.08"
   style="fill:#2b2b2b" />

                        <g
   id="g38-6-9-8"
   transform="translate(798.874)">
                            <circle
   id="path38-1-1-8-0"
   cx="989.672"
   cy="-359.827"
   r="11.915"
   style="fill:#38393b" />

                            <circle
   id="path37-4-3-8-2"
   cx="989.672"
   cy="-359.827"
   r="5.5799999"
   style="fill:#fbfefd" />

                            <circle
   id="path36-1-84-8-0"
   cx="989.672"
   cy="-359.827"
   r="3.6760001"
   style="fill:#101115" />

                        </g>

                    </g>

                </g>

            </g>

            <g
   id="g44-5-6-2"
   transform="rotate(-58.590829,1421.8538,-1338.868)">
                <g
   id="g43-0-7-4"
   transform="translate(129.237)">
                    <path
   id="rect42-9-4-7"
   d="m 735.316,-603.479 c -26.952,0 -48.65,21.698 -48.65,48.65 v 11.884 c 0,2.628 0.213,5.203 0.61,7.716 -0.377,0.688 -0.61,1.468 -0.61,2.311 v 215.395 c 0,2.675 2.154,4.828 4.828,4.828 h 87.644 c 2.675,0 4.828,-2.153 4.828,-4.828 v -215.395 c 0,-0.843 -0.233,-1.623 -0.61,-2.311 0.397,-2.513 0.61,-5.088 0.61,-7.716 v -11.884 c 0,-26.952 -21.698,-48.65 -48.65,-48.65 z"
   style="fill:#6e7175" />

                    <circle
   id="path42-4-0-4-5"
   cx="697.034"
   cy="-325.879"
   r="7.0560002"
   style="fill:#060606" />

                    <circle
   id="path42-7-5-3-7"
   cx="697.034"
   cy="-344.51001"
   r="4.7350001"
   style="fill:#060606" />

                    <circle
   id="path42-3-2-5-0"
   cx="772.20001"
   cy="-325.879"
   r="7.0560002"
   style="fill:#060606" />

                    <circle
   id="path42-6-5-2-7"
   cx="697.034"
   cy="-504.811"
   r="7.0560002"
   style="fill:#060606" />

                    <circle
   id="path42-3-3-2-7-0"
   cx="772.20001"
   cy="-504.811"
   r="7.0560002"
   style="fill:#060606" />

                    <circle
   id="path42-7-9-1-2-0"
   cx="772.20001"
   cy="-344.51001"
   r="4.7350001"
   style="fill:#060606" />

                    <circle
   id="path42-7-0-9-2-5"
   cx="697.034"
   cy="-481.30499"
   r="4.7350001"
   style="fill:#060606" />

                    <circle
   id="path42-7-9-8-6-6-4"
   cx="772.20001"
   cy="-481.30499"
   r="4.7350001"
   style="fill:#060606" />

                    <circle
   id="path42-7-3-8-7-3"
   cx="734.99701"
   cy="-481.30499"
   r="4.7350001"
   style="fill:#060606" />

                </g>

                <g
   id="path43-3-67-1-4"
   transform="matrix(0.910253,0,0,0.910253,201.001,-45.3493)">
                    <path
   d="m 737.379,-573.255 -8.067,5.046 -8.404,-4.465 -0.335,-9.509 8.068,-5.045 8.403,4.464 z"
   style="fill:#615e5b"
   id="path7437" />

                </g>

            </g>

        </g>
    <g
       id="g50-0-55-1-4"
       transform="matrix(0.03899154,-0.02409633,0.02409633,0.03899154,2815.8487,872.6239)">
            <g
   id="g49-5-8-6-0"
   transform="rotate(31.055906,1842.4858,-423.75589)">
                <g
   id="g41-7-6-5-8"
   transform="translate(793.05,8.40318)">
                    <path
   id="path41-4-0-0-7-2"
   d="m 779.067,-532.158 2.67,-15.615 29.71,-32.495 c 0,0 2.043,-2.786 4.457,-4.085 2.414,-1.3 7.984,-2.043 7.984,-2.043 0,0 56.82,-12.07 151.334,-12.07 94.518,0 183.088,14.113 183.088,14.113 0,0 5.38,0.742 6.68,1.671 1.3,0.928 11.33,11.698 11.33,11.698 l 22.84,27.667 2.46,13.23 -257.964,76.456 z"
   style="fill:#6b6d71" />

                    <path
   id="path40-0-9-3-0-5"
   d="m 775.053,-520.385 0.928,-10.066 c 0,0 0.92,-1.182 3.086,-1.707 2.166,-0.525 5.974,-0.394 5.974,-0.394 l 408.499,1.769 c 0,0 5.76,-0.093 8.08,0.696 2.32,0.789 2.46,1.254 2.46,1.254 l 0.65,8.448 -213.725,24.975 z"
   style="fill:#a3a5ac" />

                    <path
   id="path39-4-8-3-1-0"
   d="m 786.008,-522.427 c 0,0 -5.199,0.279 -7.799,0.557 -2.599,0.279 -3.156,1.485 -3.156,1.485 l 3.292,24.86 89.973,193.47 c 0,0 5.383,13.918 11.062,16.938 5.679,3.019 16.183,2.56 16.183,2.56 h 188.657 c 0,0 10.5,0.459 16.18,-2.56 5.68,-3.02 11.06,-16.938 11.06,-16.938 l 89.98,-193.47 3.29,-24.86 c 0,0 -0.56,-1.206 -3.16,-1.485 -2.6,-0.278 -7.8,-0.557 -7.8,-0.557 l -203.878,1.147 z"
   style="fill:#3c3f43" />

                </g>

                <g
   id="g48-8-2-8-3"
   transform="translate(-5.60384,8.40318)">
                    <g
   id="g46-5-3-2-8">
                        <path
   id="rect35-4-62-6-1"
   d="m 1810.17,-511.75 c -4.66,0 -8.42,3.756 -8.42,8.422 v 199.665 c 0,4.666 3.76,8.423 8.42,8.423 h 60.03 c 3.91,0 7.16,-2.657 8.11,-6.262 l 0.03,0.021 91.27,-196.436 c 0,0 2.6,-4.735 -1.21,-9.47 -3.8,-4.735 -10.4,-4.363 -10.4,-4.363 h -107.6 z"
   style="fill:#4f5157" />

                        <g
   id="g35-81-8-3-3-4"
   transform="translate(800.787,3.71372)">
                            <circle
   id="path35-4-8-4-4-7"
   cx="1056.51"
   cy="-323.64001"
   r="22.282"
   style="fill:#393c41" />

                            <circle
   id="path35-1-2-9-3"
   cx="1056.51"
   cy="-323.64001"
   r="15.319"
   style="fill:#45474a" />

                        </g>

                        <g
   id="g35-9-6-6-2-0"
   transform="translate(878.09,-161.01)">
                            <circle
   id="path35-4-5-0-3-6-4"
   cx="1056.51"
   cy="-323.64001"
   r="22.282"
   style="fill:#393c41" />

                            <circle
   id="path35-5-4-1-6-8-7"
   cx="1056.51"
   cy="-323.64001"
   r="15.319"
   style="fill:#45474a" />

                        </g>

                    </g>

                    <g
   id="g45-9-3-6-7">
                        <path
   id="rect35-6-6-9-6-0"
   d="m 1766.92,-511.75 c 4.67,0 8.42,3.756 8.42,8.422 v 199.665 c 0,4.666 -3.75,8.423 -8.42,8.423 h -60.03 c -3.91,0 -7.15,-2.657 -8.11,-6.262 l -0.03,0.021 -91.27,-196.436 c 0,0 -2.6,-4.735 1.21,-9.47 3.81,-4.735 10.4,-4.363 10.4,-4.363 h 107.6 z"
   style="fill:#4f5157" />

                        <g
   id="g35-2-1-7-0-9"
   transform="translate(664.143,3.71372)">
                            <circle
   id="path35-4-7-8-3-4-5"
   cx="1056.51"
   cy="-323.64001"
   r="22.282"
   style="fill:#393c41" />

                            <circle
   id="path35-45-9-3-3-7"
   cx="1056.51"
   cy="-323.64001"
   r="15.319"
   style="fill:#45474a" />

                        </g>

                        <g
   id="g35-6-4-4-7-7"
   transform="translate(588.636,-161.01)">
                            <circle
   id="path35-4-0-0-1-3-5"
   cx="1056.51"
   cy="-323.64001"
   r="22.282"
   style="fill:#393c41" />

                            <circle
   id="path35-7-6-83-6-0"
   cx="1056.51"
   cy="-323.64001"
   r="15.319"
   style="fill:#45474a" />

                        </g>

                    </g>

                    <g
   id="g47-9-2-5-8"
   transform="translate(8.81055e-5)">
                        <rect
   id="rect36-6-5-1-9"
   x="1783.72"
   y="-508.40799"
   width="9.6560001"
   height="222.08"
   style="fill:#2b2b2b" />

                        <g
   id="g38-0-4-4-3"
   transform="translate(798.874)">
                            <circle
   id="path38-1-0-4-3-8"
   cx="989.672"
   cy="-359.827"
   r="11.915"
   style="fill:#38393b" />

                            <circle
   id="path37-4-1-9-6-4"
   cx="989.672"
   cy="-359.827"
   r="5.5799999"
   style="fill:#fbfefd" />

                            <circle
   id="path36-1-7-3-4-9"
   cx="989.672"
   cy="-359.827"
   r="3.6760001"
   style="fill:#101115" />

                        </g>

                    </g>

                </g>

            </g>

            <g
   id="g44-0-4-6-0"
   transform="rotate(-58.590829,1421.8538,-1338.868)">
                <g
   id="g43-8-0-4-6"
   transform="translate(129.237)">
                    <path
   id="rect42-2-2-9-5"
   d="m 735.316,-603.479 c -26.952,0 -48.65,21.698 -48.65,48.65 v 11.884 c 0,2.628 0.213,5.203 0.61,7.716 -0.377,0.688 -0.61,1.468 -0.61,2.311 v 215.395 c 0,2.675 2.154,4.828 4.828,4.828 h 87.644 c 2.675,0 4.828,-2.153 4.828,-4.828 v -215.395 c 0,-0.843 -0.233,-1.623 -0.61,-2.311 0.397,-2.513 0.61,-5.088 0.61,-7.716 v -11.884 c 0,-26.952 -21.698,-48.65 -48.65,-48.65 z"
   style="fill:#6e7175" />

                    <circle
   id="path42-4-3-5-0-0"
   cx="697.034"
   cy="-325.879"
   r="7.0560002"
   style="fill:#060606" />

                    <circle
   id="path42-7-04-34-8-8"
   cx="697.034"
   cy="-344.51001"
   r="4.7350001"
   style="fill:#060606" />

                    <circle
   id="path42-3-4-6-3-3"
   cx="772.20001"
   cy="-325.879"
   r="7.0560002"
   style="fill:#060606" />

                    <circle
   id="path42-6-0-0-3-0"
   cx="697.034"
   cy="-504.811"
   r="7.0560002"
   style="fill:#060606" />

                    <circle
   id="path42-3-3-3-1-9-2"
   cx="772.20001"
   cy="-504.811"
   r="7.0560002"
   style="fill:#060606" />

                    <circle
   id="path42-7-9-0-8-5-2"
   cx="772.20001"
   cy="-344.51001"
   r="4.7350001"
   style="fill:#060606" />

                    <circle
   id="path42-7-0-1-3-1-6"
   cx="697.034"
   cy="-481.30499"
   r="4.7350001"
   style="fill:#060606" />

                    <circle
   id="path42-7-9-8-2-3-2-7"
   cx="772.20001"
   cy="-481.30499"
   r="4.7350001"
   style="fill:#060606" />

                    <circle
   id="path42-7-3-5-4-1-1"
   cx="734.99701"
   cy="-481.30499"
   r="4.7350001"
   style="fill:#060606" />

                </g>

                <g
   id="path43-3-8-1-3-4"
   transform="matrix(0.910253,0,0,0.910253,201.001,-45.3493)">
                    <path
   d="m 737.379,-573.255 -8.067,5.046 -8.404,-4.465 -0.335,-9.509 8.068,-5.045 8.403,4.464 z"
   style="fill:#615e5b"
   id="path7438" />

                </g>

            </g>

        </g>
    <g
       id="g9-2-2-1-5-1-1-8"
       transform="matrix(-0.02881589,0.00998458,-0.00998458,-0.02881589,2926.9075,827.26612)">
            <g
   id="g8-6-3-3-7-1-5-7"
   transform="rotate(45.031034,1613.5436,364.45517)">
                <path
   id="path21-8-4-0-2-8-7-1"
   d="m 1601.23,236.276 v 5.159 l -212.56,23.958 -3.35,1.986 0.88,17.64 c 0,0 0,2.878 0.28,3.992 0.28,1.114 1.21,3.806 1.21,3.806 L 1455,531.145 c 0,0 0.83,3.436 3.43,5.757 2.6,2.321 5.67,2.692 8.55,3.249 2.87,0.557 8.82,0.743 12.16,0.929 2.42,0.134 74.27,1.088 122.09,1.716 v 0.605 c 0,0 17.44,-0.231 22.89,-0.302 5.44,0.071 22.88,0.302 22.88,0.302 v -0.605 c 47.82,-0.628 119.67,-1.582 122.09,-1.716 3.34,-0.186 9.29,-0.372 12.16,-0.929 2.88,-0.557 5.95,-0.928 8.55,-3.249 2.6,-2.321 3.43,-5.757 3.43,-5.757 l 67.31,-238.328 c 0,0 0.93,-2.692 1.21,-3.806 0.28,-1.114 0.28,-3.992 0.28,-3.992 l 0.88,-17.64 -3.35,-1.986 L 1647,241.435 v -5.159 l -22.88,2.58 z"
   style="fill:#868589" />

                <path
   id="path20-80-5-6-2-1-7-7"
   d="m 1389.09,257.444 c 0,0 -1.12,0.209 -1.77,0.581 -0.65,0.371 -0.95,0.951 -0.95,0.951 l -1.18,9.47 c 0,0 1.39,-0.51 3.76,-0.928 2.36,-0.418 6.82,-0.325 8.77,-0.325 h 11.23 l 444.95,-0.789 c 0,0 4,0.046 5.3,0.185 1.3,0.14 3.71,0.789 3.71,0.789 l -1.21,-8.866 c 0,0 -0.32,-1.068 -0.88,-1.532 -0.56,-0.464 -2.04,-0.743 -2.04,-0.743 l -35.61,-7.742 -209.68,-8.479 -217.7,14.963 z"
   style="fill:#595b60" />

                <path
   id="path19-72-7-4-8-0-1-3"
   d="m 1403.11,200.624 c 0,0 5.57,-4.827 11.14,-6.127 5.57,-1.3 12.44,-2.414 12.44,-2.414 0,0 98.05,-15.879 199.41,-15.879 101.36,0 201.94,16.807 201.94,16.807 0,0 11.06,2.321 14.4,5.107 3.34,2.785 3.99,7.334 3.99,7.334 l 8.73,29.339 3.53,19.311 0.09,2.135 c 0,0 -5.34,-0.512 -7.75,-0.512 -2.42,0 -15.65,-0.23 -15.65,-0.23 l -423.55,0.835 c 0,0 -12.62,-0.278 -16.15,0.186 -3.53,0.464 -6.59,0.928 -6.59,0.928 l 2.13,-14.298 c 0,0 0.1,-1.299 0.28,-2.599 0.19,-1.3 9.47,-34.909 9.47,-34.909 0,0 1.11,-3.714 2.14,-5.014 z"
   style="fill:#64666c" />

                <g
   id="g22-4-7-6-12-5-5-2"
   transform="translate(402.248,23.1088)">
                    <path
   id="rect21-8-0-9-77-3-3-2"
   d="m 1256.36,266.276 c -8.85,0 -15.98,7.126 -15.98,15.977 V 476.09 c 0,8.852 7.13,15.978 15.98,15.978 h 81.31 c 8.03,0 14.63,-5.873 15.78,-13.572 l 0.2,0.091 55.59,-198.262 c 0,0 1.31,-6.04 -1.44,-9.847 -2.76,-3.808 -6.7,-4.202 -6.7,-4.202 h -66.04 z"
   style="fill:#8e8d91;stroke:#000000;stroke-width:1.9px;stroke-linecap:butt;stroke-linejoin:miter;stroke-miterlimit:4" />

                    <path
   id="rect21-5-69-0-0-2-1-3-0"
   d="m 1187.38,266.276 c 8.85,0 15.97,7.126 15.97,15.977 V 476.09 c 0,8.852 -7.12,15.978 -15.97,15.978 h -81.32 c -8.03,0 -14.62,-5.873 -15.78,-13.572 l -0.2,0.091 -55.59,-198.262 c 0,0 -1.31,-6.04 1.45,-9.847 2.75,-3.808 6.69,-4.202 6.69,-4.202 h 66.05 z"
   style="fill:#8e8d91;stroke:#000000;stroke-width:1.9px;stroke-linecap:butt;stroke-linejoin:miter;stroke-miterlimit:4" />

                </g>

                <rect
   id="rect22-8-56-3-4-80-5-5-1"
   x="1614.64"
   y="290.12601"
   width="18.940001"
   height="238.047"
   style="fill:#646261" />

                <g
   id="g23-9-1-1-0-5-0-5"
   transform="translate(402.141,23.1088)">
                    <circle
   id="path22-7-2-80-79-5-5-3-2-5"
   cx="1221.97"
   cy="435.45599"
   r="14.64"
   style="fill:#b5b2b4;stroke:#000000;stroke-width:0.78px;stroke-linecap:butt;stroke-linejoin:miter;stroke-miterlimit:4" />

                    <circle
   id="path22-7-03-78-53-24-4-1-6"
   cx="1221.97"
   cy="435.45599"
   r="10.012"
   style="fill:#4d4b4e" />

                    <circle
   id="path22-12-1-5-5-6-3-7"
   cx="1221.97"
   cy="435.45599"
   r="7.8940001"
   style="fill:#8d8b8e" />

                </g>

            </g>

            <g
   id="g27-43-4-7-5-1-0-1"
   transform="rotate(107.52165,1921.5261,115.42306)">
                <path
   id="rect23-4-02-31-68-0-1-3"
   d="m 2233,291.223 c 0,0 0,0 0,0 -18.17,0 -33.11,7.823 -33.11,17.331 0,0 0,341.183 0,341.183 0,3.909 3.14,7.056 7.05,7.056 h 52.11 c 3.91,0 7.06,-3.147 7.06,-7.056 0,0 0,-341.183 0,-341.183 0,-9.508 -14.95,-17.331 -33.11,-17.331 z"
   style="fill:#727174" />

                <g
   id="g26-3-07-3-8-0-6-8"
   transform="translate(974.048)">
                    <circle
   id="path24-01-71-9-70-3-0-2"
   cx="1258.95"
   cy="325.879"
   r="12.07"
   style="fill:#b4b0b1" />

                    <circle
   id="path24-9-93-00-2-8-0-1-7"
   cx="1258.95"
   cy="325.879"
   r="9.1450005"
   style="fill:#e2e3db" />

                    <g
   id="g25-06-9-46-76-2-1-3"
   transform="translate(52.0848,-0.0696716)">
                        <circle
   id="path25-1-4-5-0-8-7-6"
   cx="1206.87"
   cy="325.948"
   r="8.3330002"
   style="fill:#676058" />

                        <rect
   id="rect25-9-9-1-8-8-6-3"
   x="1205.73"
   y="321.16699"
   width="2.2750001"
   height="9.5629997"
   style="fill:#b3aba3" />

                        <g
   id="rect25-8-6-2-7-74-7-9-4"
   transform="rotate(90)">
                            <rect
   x="324.811"
   y="-1211.65"
   width="2.2750001"
   height="9.5629997"
   style="fill:#b3aba3"
   id="rect7449" />

                        </g>

                    </g>

                </g>

            </g>

        </g>
    <g
       id="g9-2-2-0-9-3-2-8-7"
       transform="matrix(0.02881589,0.00998457,0.00998457,-0.02881589,2852.1085,827.36533)">
            <g
   id="g8-6-3-0-7-4-8-3-5"
   transform="rotate(64.508506,1617.5401,359.34453)">
                <path
   id="path21-8-4-9-2-93-3-4-6"
   d="m 1601.23,236.276 v 5.159 l -212.56,23.958 -3.35,1.986 0.88,17.64 c 0,0 0,2.878 0.28,3.992 0.28,1.114 1.21,3.806 1.21,3.806 L 1455,531.145 c 0,0 0.83,3.436 3.43,5.757 2.6,2.321 5.67,2.692 8.55,3.249 2.87,0.557 8.82,0.743 12.16,0.929 2.42,0.134 74.27,1.088 122.09,1.716 v 0.605 c 0,0 17.44,-0.231 22.89,-0.302 5.44,0.071 22.88,0.302 22.88,0.302 v -0.605 c 47.82,-0.628 119.67,-1.582 122.09,-1.716 3.34,-0.186 9.29,-0.372 12.16,-0.929 2.88,-0.557 5.95,-0.928 8.55,-3.249 2.6,-2.321 3.43,-5.757 3.43,-5.757 l 67.31,-238.328 c 0,0 0.93,-2.692 1.21,-3.806 0.28,-1.114 0.28,-3.992 0.28,-3.992 l 0.88,-17.64 -3.35,-1.986 L 1647,241.435 v -5.159 l -22.88,2.58 z"
   style="fill:#868589" />

                <path
   id="path20-80-5-9-6-4-6-9-9"
   d="m 1389.09,257.444 c 0,0 -1.12,0.209 -1.77,0.581 -0.65,0.371 -0.95,0.951 -0.95,0.951 l -1.18,9.47 c 0,0 1.39,-0.51 3.76,-0.928 2.36,-0.418 6.82,-0.325 8.77,-0.325 h 11.23 l 444.95,-0.789 c 0,0 4,0.046 5.3,0.185 1.3,0.14 3.71,0.789 3.71,0.789 l -1.21,-8.866 c 0,0 -0.32,-1.068 -0.88,-1.532 -0.56,-0.464 -2.04,-0.743 -2.04,-0.743 l -35.61,-7.742 -209.68,-8.479 -217.7,14.963 z"
   style="fill:#595b60" />

                <path
   id="path19-72-7-3-7-89-0-2-2"
   d="m 1403.11,200.624 c 0,0 5.57,-4.827 11.14,-6.127 5.57,-1.3 12.44,-2.414 12.44,-2.414 0,0 98.05,-15.879 199.41,-15.879 101.36,0 201.94,16.807 201.94,16.807 0,0 11.06,2.321 14.4,5.107 3.34,2.785 3.99,7.334 3.99,7.334 l 8.73,29.339 3.53,19.311 0.09,2.135 c 0,0 -5.34,-0.512 -7.75,-0.512 -2.42,0 -15.65,-0.23 -15.65,-0.23 l -423.55,0.835 c 0,0 -12.62,-0.278 -16.15,0.186 -3.53,0.464 -6.59,0.928 -6.59,0.928 l 2.13,-14.298 c 0,0 0.1,-1.299 0.28,-2.599 0.19,-1.3 9.47,-34.909 9.47,-34.909 0,0 1.11,-3.714 2.14,-5.014 z"
   style="fill:#64666c" />

                <g
   id="g22-4-7-8-7-6-6-0-8"
   transform="translate(402.248,23.1088)">
                    <path
   id="rect21-8-0-6-9-23-1-4-2"
   d="m 1256.36,266.276 c -8.85,0 -15.98,7.126 -15.98,15.977 V 476.09 c 0,8.852 7.13,15.978 15.98,15.978 h 81.31 c 8.03,0 14.63,-5.873 15.78,-13.572 l 0.2,0.091 55.59,-198.262 c 0,0 1.31,-6.04 -1.44,-9.847 -2.76,-3.808 -6.7,-4.202 -6.7,-4.202 h -66.04 z"
   style="fill:#8e8d91;stroke:#000000;stroke-width:1.9px;stroke-linecap:butt;stroke-linejoin:miter;stroke-miterlimit:4" />

                    <path
   id="rect21-5-69-0-9-1-1-3-3-4"
   d="m 1187.38,266.276 c 8.85,0 15.97,7.126 15.97,15.977 V 476.09 c 0,8.852 -7.12,15.978 -15.97,15.978 h -81.32 c -8.03,0 -14.62,-5.873 -15.78,-13.572 l -0.2,0.091 -55.59,-198.262 c 0,0 -1.31,-6.04 1.45,-9.847 2.75,-3.808 6.69,-4.202 6.69,-4.202 h 66.05 z"
   style="fill:#8e8d91;stroke:#000000;stroke-width:1.9px;stroke-linecap:butt;stroke-linejoin:miter;stroke-miterlimit:4" />

                </g>

                <rect
   id="rect22-8-56-3-7-7-9-8-6-1"
   x="1614.64"
   y="290.12601"
   width="18.940001"
   height="238.047"
   style="fill:#646261" />

                <g
   id="g23-9-1-3-3-85-4-8-6"
   transform="translate(402.141,23.1088)">
                    <circle
   id="path22-7-2-80-79-7-9-9-0-4-8"
   cx="1221.97"
   cy="435.45599"
   r="14.64"
   style="fill:#b5b2b4;stroke:#000000;stroke-width:0.78px;stroke-linecap:butt;stroke-linejoin:miter;stroke-miterlimit:4" />

                    <circle
   id="path22-7-03-78-5-0-9-6-5-5"
   cx="1221.97"
   cy="435.45599"
   r="10.012"
   style="fill:#4d4b4e" />

                    <circle
   id="path22-12-1-0-6-8-0-9-4"
   cx="1221.97"
   cy="435.45599"
   r="7.8940001"
   style="fill:#8d8b8e" />

                </g>

            </g>

            <g
   id="g27-43-4-1-1-9-8-9-4"
   transform="rotate(107.52165,1921.5261,115.42306)">
                <path
   id="rect23-4-02-3-1-0-3-0-4"
   d="m 2233,291.223 c 0,0 0,0 0,0 -18.17,0 -33.11,7.823 -33.11,17.331 0,0 0,341.183 0,341.183 0,3.909 3.14,7.056 7.05,7.056 h 52.11 c 3.91,0 7.06,-3.147 7.06,-7.056 0,0 0,-341.183 0,-341.183 0,-9.508 -14.95,-17.331 -33.11,-17.331 z"
   style="fill:#727174" />

                <g
   id="g26-3-07-4-7-80-5-1-8"
   transform="translate(974.048)">
                    <circle
   id="path24-01-71-3-9-92-1-0-1"
   cx="1258.95"
   cy="325.879"
   r="12.07"
   style="fill:#b4b0b1" />

                    <circle
   id="path24-9-93-00-5-5-7-5-9-1"
   cx="1258.95"
   cy="325.879"
   r="9.1450005"
   style="fill:#e2e3db" />

                    <g
   id="g25-06-9-4-7-1-3-5-0"
   transform="translate(52.0848,-0.0696716)">
                        <circle
   id="path25-1-4-0-4-7-4-8-3"
   cx="1206.87"
   cy="325.948"
   r="8.3330002"
   style="fill:#676058" />

                        <rect
   id="rect25-9-9-7-3-30-0-5-5"
   x="1205.73"
   y="321.16699"
   width="2.2750001"
   height="9.5629997"
   style="fill:#b3aba3" />

                        <g
   id="rect25-8-6-2-8-3-02-0-1-8"
   transform="rotate(90)">
                            <rect
   x="324.811"
   y="-1211.65"
   width="2.2750001"
   height="9.5629997"
   style="fill:#b3aba3"
   id="rect7450" />

                        </g>

                    </g>

                </g>

            </g>

        </g>
  </g>
</svg>
